<svg width="358" height="216" viewBox="0 0 358 216" fill="none" xmlns="http://www.w3.org/2000/svg">
<g clip-path="url(#clip0_278_25269)">
<rect width="358" height="216" rx="24" fill="#D47611"/>
<path d="M401.047 140.219L318.129 157.002L315.931 256.42" stroke="#921B1B" stroke-opacity="0.52" stroke-width="22.8213"/>
<path d="M380.398 91.3034L268.245 116.503L263.672 287.131" stroke="#921B1B" stroke-opacity="0.52" stroke-width="22.8213"/>
<path d="M-48.4672 56.496L34.4514 39.7129L36.6494 -59.705" stroke="#921B1B" stroke-opacity="0.52" stroke-width="22.8213"/>
<path d="M-27.8159 105.412L84.337 80.2124L88.9098 -90.4163" stroke="#921B1B" stroke-opacity="0.52" stroke-width="22.8213"/>
<path fill-rule="evenodd" clip-rule="evenodd" d="M334 179.395C334 188.491 326.627 195.864 317.531 195.864C308.436 195.864 301.062 188.491 301.062 179.395C301.062 170.299 308.436 162.925 317.531 162.925C326.627 162.925 334 170.299 334 179.395ZM321.488 173.274C323.779 174.061 325.455 175.239 325.126 177.431C324.887 179.036 323.994 179.813 322.807 180.085C324.436 180.929 324.99 182.531 324.475 184.469C323.496 187.257 321.169 187.492 318.074 186.909L317.322 189.907L315.508 189.456L316.249 186.498C315.779 186.382 315.298 186.257 314.803 186.125L314.059 189.096L312.247 188.645L312.997 185.642L309.343 184.723L310.245 182.654C310.245 182.654 311.582 183.007 311.564 182.981C312.077 183.108 312.306 182.774 312.396 182.553L314.432 174.417C314.455 174.033 314.322 173.549 313.587 173.366C313.614 173.346 312.269 173.039 312.269 173.039L312.751 171.109L316.411 172.012L317.155 169.042L318.968 169.493L318.239 172.404C318.727 172.514 319.217 172.627 319.694 172.745L320.417 169.853L322.232 170.304L321.488 173.274ZM317.149 178.227C318.385 178.554 321.074 179.267 321.543 177.398C322.021 175.485 319.409 174.908 318.129 174.625C317.984 174.593 317.857 174.565 317.752 174.539L316.849 178.149C316.935 178.17 317.036 178.197 317.149 178.227ZM315.749 184.039C317.229 184.429 320.466 185.282 320.981 183.222C321.508 181.116 318.37 180.414 316.838 180.072C316.667 180.034 316.516 180 316.392 179.969L315.396 183.948C315.497 183.973 315.616 184.004 315.749 184.039Z" fill="#F7931A"/>
</g>
<defs>
<clipPath id="clip0_278_25269">
<rect width="358" height="216" rx="24" fill="white"/>
</clipPath>
</defs>
</svg>
