<svg width="218" height="60" viewBox="0 0 218 60" fill="none" xmlns="http://www.w3.org/2000/svg">
<g clip-path="url(#clip0_52327_34432)">
<path d="M56.45 57.7138V57.9931C51.1072 58.0098 45.7644 58.0489 40.4216 58.0098C39.8506 57.9388 39.3272 57.6556 38.9553 57.2167C35.6038 53.3569 32.3026 49.4552 28.9846 45.5674L20.0026 35.0326C19.539 35.4152 19.1424 35.728 18.7626 36.0632C13.1153 41.042 7.46805 46.0208 1.8208 50.9996C1.42871 51.3038 1.01831 51.5836 0.591919 51.8375L0.591919 11.0611L16.7908 25.1932C17.2293 24.8078 17.5812 24.5145 17.9079 24.2017C25.0541 17.4838 32.203 10.7706 39.3547 4.06206C39.768 3.67664 40.3434 3.22419 40.8461 3.22419C46.0493 3.1823 51.2524 3.22419 56.4556 3.25491V3.5342C56.1873 3.70678 55.9281 3.89322 55.6792 4.09278C47.738 11.116 39.8025 18.1448 31.8725 25.1792C29.5153 27.2711 27.1692 29.3686 24.7645 31.5163C25.1751 31.8822 25.4711 32.1699 25.7895 32.4324C30.0143 35.9328 34.2409 39.4296 38.4693 42.9226C44.4592 47.8586 50.4527 52.789 56.45 57.7138ZM2.36541 14.9907L2.08612 15.0968L8.55449 33.7674L13.9616 28.0615L2.36541 14.9907Z" fill="white"/>
<path d="M91.8222 40.4051C90.9173 39.0161 89.8756 37.5582 88.697 36.0315C87.5184 34.5047 86.2774 33.0291 84.974 31.6047C83.6707 30.1822 82.3254 28.8286 80.9383 27.5438C79.6515 26.3384 78.2814 25.225 76.8383 24.2119V40.4107H70.2666V4.3208H76.8383V19.2126C77.9834 18.0675 79.1806 16.8442 80.43 15.5427C81.6793 14.2412 82.9203 12.922 84.1529 11.5851C85.3855 10.2501 86.5567 8.95703 87.6664 7.7058C88.7761 6.45458 89.7834 5.32625 90.6883 4.3208H98.5392C97.3904 5.64091 96.1755 7.01223 94.8944 8.43475C93.6134 9.85727 92.2943 11.2891 90.9369 12.7302C89.5833 14.1714 88.2203 15.6069 86.8481 17.0369C85.4758 18.4669 84.1306 19.8168 82.8123 21.0866C84.3747 22.287 85.8614 23.5825 87.2642 24.966C88.7761 26.4443 90.2601 28.027 91.7161 29.7139C93.1721 31.4008 94.5686 33.1538 95.9055 34.9729C97.2405 36.7939 98.4638 38.6074 99.5754 40.4135L91.8222 40.4051Z" fill="white"/>
<path d="M127.278 26.761C127.303 28.7614 126.986 30.7513 126.343 32.6456C125.774 34.3203 124.87 35.8616 123.687 37.1757C122.531 38.4318 121.12 39.426 119.548 40.0915C117.858 40.7997 116.042 41.1543 114.21 41.1333C112.389 41.1555 110.582 40.8008 108.904 40.0915C107.343 39.4205 105.942 38.4268 104.793 37.1757C103.605 35.8596 102.693 34.3194 102.109 32.6456C101.443 30.7559 101.115 28.7642 101.137 26.761C101.109 24.7646 101.434 22.7789 102.098 20.8959C102.689 19.2282 103.61 17.6969 104.807 16.3937C105.968 15.1473 107.383 14.1645 108.957 13.5114C110.623 12.8196 112.412 12.4737 114.216 12.4948C116.028 12.4757 117.825 12.8214 119.5 13.5114C121.075 14.1598 122.488 15.1467 123.639 16.4021C124.82 17.7118 125.732 19.2418 126.32 20.9042C126.982 22.7848 127.306 24.7676 127.278 26.761ZM120.824 26.761C120.824 24.0556 120.242 21.9143 119.078 20.3373C117.915 18.7602 116.292 17.9708 114.21 17.9689C112.127 17.9689 110.504 18.7584 109.342 20.3373C108.181 21.9162 107.599 24.0574 107.597 26.761C107.597 29.5036 108.179 31.6737 109.342 33.2712C110.506 34.8688 112.129 35.6666 114.21 35.6648C116.294 35.6648 117.917 34.8669 119.078 33.2712C120.24 31.6756 120.822 29.5055 120.824 26.761Z" fill="white"/>
<path d="M156.802 39.5727C155.254 40.0204 153.68 40.3674 152.087 40.6116C150.117 40.9308 148.124 41.0878 146.127 41.0809C144.156 41.1126 142.195 40.7773 140.346 40.0922C138.708 39.4734 137.225 38.5051 136 37.2546C134.774 35.9773 133.834 34.4541 133.241 32.7859C132.573 30.8854 132.247 28.8818 132.277 26.8678C132.252 24.8834 132.524 22.9065 133.084 21.0027C133.564 19.3583 134.37 17.8273 135.453 16.5005C136.482 15.2584 137.782 14.2694 139.254 13.6098C140.88 12.9066 142.638 12.5608 144.41 12.596C145.589 12.576 146.765 12.7332 147.898 13.0624C148.795 13.3321 149.666 13.6807 150.501 14.1042V1.04175L156.802 0V39.5727ZM138.734 26.7253C138.734 29.5015 139.394 31.679 140.712 33.2579C142.03 34.8368 143.852 35.6272 146.178 35.6291C147.039 35.6364 147.9 35.5926 148.755 35.4978C149.342 35.4339 149.924 35.3407 150.501 35.2185V19.5783C149.812 19.1307 149.068 18.7722 148.289 18.5114C147.344 18.1768 146.348 18.0086 145.345 18.0142C143.055 18.0142 141.379 18.7953 140.318 20.3575C139.257 21.9197 138.729 24.0376 138.734 26.7114V26.7253Z" fill="white"/>
<path d="M163.309 26.9178C163.266 24.7701 163.628 22.6334 164.376 20.6198C165.007 18.9412 165.972 17.4084 167.214 16.1148C168.362 14.9362 169.746 14.013 171.275 13.4057C172.764 12.8042 174.355 12.4942 175.961 12.4924C179.709 12.4924 182.633 13.6552 184.734 15.9808C186.834 18.3063 187.884 21.7788 187.884 26.3983C187.884 26.7446 187.884 27.1356 187.859 27.5685C187.834 28.0014 187.814 28.4064 187.781 28.7416H169.817C169.99 30.9293 170.763 32.6218 172.135 33.8191C173.507 35.0163 175.494 35.6149 178.095 35.6149C179.502 35.6263 180.907 35.4868 182.284 35.1988C183.307 34.9943 184.309 34.698 185.278 34.3134L186.116 39.4663C185.655 39.6901 185.177 39.8769 184.686 40.0249C184.002 40.2355 183.306 40.4089 182.603 40.5444C181.821 40.7008 180.983 40.8311 180.089 40.9354C179.173 41.0413 178.252 41.0935 177.33 41.0918C174.933 41.0918 172.851 40.7362 171.082 40.0249C169.415 39.3843 167.919 38.3684 166.708 37.056C165.548 35.7656 164.678 34.242 164.156 32.5874C163.577 30.7538 163.291 28.8404 163.309 26.9178ZM181.572 24.1081C181.577 23.2697 181.455 22.4353 181.209 21.6336C180.989 20.8939 180.626 20.2043 180.142 19.6032C179.674 19.0327 179.088 18.5705 178.424 18.2486C177.665 17.9021 176.837 17.733 176.003 17.7543C175.12 17.7375 174.246 17.9288 173.45 18.3128C172.743 18.6591 172.113 19.1467 171.601 19.7456C171.092 20.346 170.695 21.0339 170.431 21.7761C170.158 22.5339 169.971 23.3199 169.873 24.1193L181.572 24.1081Z" fill="white"/>
<path d="M204.329 21.5054L210.119 13.1686H216.729L207.588 26.2114C209.499 28.6096 211.33 31.0301 213.082 33.473C214.679 35.6776 216.124 37.988 217.408 40.3882H210.546C210.179 39.6632 209.771 38.9601 209.323 38.2824C208.82 37.5171 208.285 36.7212 207.717 35.8945C207.149 35.0678 206.555 34.2476 205.935 33.4339C205.311 32.624 204.708 31.8596 204.125 31.1409C202.843 32.6368 201.646 34.2043 200.542 35.8358C199.374 37.5506 198.407 39.0681 197.64 40.3882H191.216C191.785 39.2516 192.418 38.1484 193.113 37.0842C193.857 35.928 194.661 34.7456 195.523 33.5372C196.385 32.3288 197.269 31.1186 198.173 29.9065C199.084 28.6999 199.986 27.552 200.88 26.4628L191.627 13.1742H198.55L204.329 21.5054Z" fill="white"/>
<path d="M193.861 45.0758C195.557 45.0758 196.86 45.3849 197.771 46.0031C198.681 46.6212 199.133 47.5857 199.125 48.8965C199.142 49.5029 199.019 50.1049 198.765 50.656C198.526 51.1397 198.163 51.5512 197.712 51.8486C197.201 52.1791 196.633 52.4103 196.036 52.5301C195.289 52.6847 194.527 52.7587 193.763 52.7507H192.688V56.8563H190.568V45.3635C191.108 45.2455 191.656 45.1689 192.207 45.1345C192.809 45.0954 193.36 45.0758 193.861 45.0758ZM194.014 46.9107C193.475 46.9107 193.031 46.9275 192.685 46.961V50.9325H193.71C194.732 50.9325 195.518 50.7892 196.067 50.5024C196.626 50.2231 196.905 49.6645 196.905 48.8797C196.916 48.547 196.841 48.217 196.687 47.9218C196.545 47.6678 196.335 47.4581 196.081 47.3157C195.795 47.1601 195.484 47.0543 195.162 47.0029C194.784 46.9428 194.401 46.9157 194.017 46.9219L194.014 46.9107Z" fill="white"/>
<path d="M203.589 47.8335C204.166 47.8193 204.742 47.9053 205.29 48.0877C205.715 48.2271 206.099 48.4699 206.407 48.7943C206.687 49.1092 206.888 49.4864 206.994 49.8947C207.117 50.3592 207.178 50.8384 207.172 51.3191V56.6507C206.857 56.7178 206.385 56.8016 205.751 56.8965C205.039 56.9968 204.321 57.0444 203.603 57.039C203.117 57.0431 202.631 56.9925 202.156 56.8881C201.755 56.8009 201.375 56.6348 201.039 56.3994C200.728 56.1735 200.48 55.8728 200.316 55.5252C200.128 55.1078 200.038 54.6531 200.053 54.1958C200.038 53.7508 200.14 53.3097 200.349 52.9166C200.542 52.5757 200.817 52.2879 201.148 52.0788C201.505 51.8498 201.902 51.6897 202.318 51.6068C202.777 51.5097 203.245 51.4619 203.715 51.4643C203.951 51.4651 204.187 51.4791 204.421 51.5062C204.687 51.5379 204.951 51.5854 205.212 51.6487V51.3135C205.213 51.0856 205.185 50.8584 205.128 50.6376C205.075 50.4248 204.97 50.228 204.825 50.0641C204.679 49.9002 204.495 49.7741 204.29 49.6964C204.012 49.599 203.719 49.5535 203.424 49.5624C202.99 49.5595 202.557 49.5932 202.128 49.6629C201.803 49.7133 201.482 49.7918 201.17 49.8975L200.919 48.2497C201.284 48.1297 201.658 48.0363 202.036 47.9704C202.549 47.8794 203.068 47.8336 203.589 47.8335ZM203.759 55.4219C204.238 55.4334 204.717 55.3997 205.189 55.3213V53.0647C205.029 53.021 204.865 52.9875 204.701 52.9641C204.467 52.929 204.23 52.9122 203.994 52.9138C203.766 52.9141 203.538 52.9309 203.313 52.9641C203.097 52.9938 202.887 53.0559 202.69 53.1484C202.511 53.2334 202.357 53.3645 202.246 53.5283C202.126 53.7101 202.066 53.9251 202.075 54.1427C202.055 54.3349 202.086 54.5291 202.166 54.705C202.246 54.8809 202.372 55.032 202.531 55.1426C202.907 55.3459 203.332 55.4425 203.759 55.4219Z" fill="white"/>
<path d="M216.615 48.0549C215.791 51.1582 214.735 54.1951 213.456 57.1403C213.261 57.59 213.03 58.0233 212.766 58.4362C212.549 58.7724 212.282 59.073 211.973 59.3271C211.686 59.5619 211.354 59.7366 210.998 59.841C210.285 60.0313 209.537 60.0514 208.814 59.8996C208.574 59.8539 208.34 59.7808 208.116 59.6818L208.487 58.0479C208.869 58.2022 209.277 58.2828 209.688 58.2853C210.134 58.3109 210.574 58.1761 210.928 57.9055C211.277 57.5811 211.547 57.1807 211.716 56.7353C211.074 55.5027 210.456 54.1574 209.864 52.6995C209.253 51.1812 208.726 49.6307 208.283 48.0549H210.456C210.568 48.5241 210.706 49.0343 210.87 49.5854C211.032 50.144 211.21 50.7026 211.4 51.2612C211.59 51.8198 211.794 52.3923 212.009 52.9537C212.224 53.5151 212.436 54.0373 212.652 54.5177C213.009 53.5216 213.344 52.4584 213.657 51.3282C213.97 50.198 214.255 49.1079 214.512 48.0577L216.615 48.0549Z" fill="white"/>
</g>
<defs>
<clipPath id="clip0_52327_34432">
<rect width="216.816" height="60" fill="white" transform="translate(0.591919)"/>
</clipPath>
</defs>
</svg>
