<svg width="16" height="16" viewBox="0 0 16 16" fill="none" xmlns="http://www.w3.org/2000/svg">
<path d="M4.74834 5.99972C4.74834 5.5855 4.41255 5.24972 3.99834 5.24972C3.58413 5.24972 3.24834 5.5855 3.24834 5.99972H4.74834ZM12.7517 5.99972C12.7517 5.5855 12.4159 5.24972 12.0017 5.24972C11.5875 5.24972 11.2517 5.5855 11.2517 5.99972H12.7517ZM10.0839 6.66666C10.0839 6.25245 9.74811 5.91666 9.3339 5.91666C8.91968 5.91666 8.5839 6.25245 8.5839 6.66666H10.0839ZM8.5839 11.3353C8.5839 11.7495 8.91968 12.0853 9.3339 12.0853C9.74811 12.0853 10.0839 11.7495 10.0839 11.3353H8.5839ZM7.41612 6.66666C7.41612 6.25245 7.08033 5.91666 6.66612 5.91666C6.25191 5.91666 5.91612 6.25245 5.91612 6.66666H7.41612ZM5.91612 11.3353C5.91612 11.7495 6.25191 12.0853 6.66612 12.0853C7.08033 12.0853 7.41612 11.7495 7.41612 11.3353H5.91612ZM2.99792 3.24888C2.58371 3.24888 2.24792 3.58467 2.24792 3.99888C2.24792 4.4131 2.58371 4.74888 2.99792 4.74888V3.24888ZM13.0021 4.74888C13.4163 4.74888 13.7521 4.4131 13.7521 3.99888C13.7521 3.58467 13.4163 3.24888 13.0021 3.24888V4.74888ZM4.62072 3.76171C4.48973 4.15467 4.7021 4.57941 5.09506 4.71039C5.48802 4.84138 5.91276 4.62901 6.04374 4.23605L4.62072 3.76171ZM5.69505 2.91043L6.40656 3.1476L6.40662 3.14743L5.69505 2.91043ZM6.96091 1.99805L6.96073 2.74805H6.96091V1.99805ZM9.03911 1.99805V2.74805L9.04004 2.74805L9.03911 1.99805ZM10.3063 2.91043L11.0181 2.67404L11.0179 2.67343L10.3063 2.91043ZM9.95601 4.23527C10.0866 4.62837 10.5111 4.84121 10.9042 4.71066C11.2973 4.5801 11.5101 4.1556 11.3796 3.7625L9.95601 4.23527ZM3.24834 5.99972V12.6692H4.74834V5.99972H3.24834ZM3.24834 12.6692C3.24834 13.8201 4.18133 14.753 5.33223 14.753V13.253C5.00976 13.253 4.74834 12.9916 4.74834 12.6692H3.24834ZM5.33223 14.753H10.6678V13.253H5.33223V14.753ZM10.6678 14.753C11.8187 14.753 12.7517 13.8201 12.7517 12.6692H11.2517C11.2517 12.9916 10.9903 13.253 10.6678 13.253V14.753ZM12.7517 12.6692V5.99972H11.2517V12.6692H12.7517ZM8.5839 6.66666V11.3353H10.0839V6.66666H8.5839ZM5.91612 6.66666V11.3353H7.41612V6.66666H5.91612ZM2.99792 4.74888H13.0021V3.24888H2.99792V4.74888ZM6.04374 4.23605L6.40656 3.1476L4.98354 2.67326L4.62072 3.76171L6.04374 4.23605ZM6.40662 3.14743C6.48607 2.90889 6.7093 2.74799 6.96073 2.74805L6.96109 1.24805C6.06375 1.24783 5.26704 1.82207 4.98348 2.67343L6.40662 3.14743ZM6.96091 2.74805H9.03911V1.24805H6.96091V2.74805ZM9.04004 2.74805C9.29168 2.74774 9.51521 2.90868 9.59473 3.14743L11.0179 2.67343C10.7341 1.82134 9.93628 1.24694 9.03818 1.24805L9.04004 2.74805ZM9.59453 3.14681L9.95601 4.23527L11.3796 3.7625L11.0181 2.67404L9.59453 3.14681Z" fill="#140344"/>
</svg>
