<svg width="24" height="24" viewBox="0 0 24 24" fill="none" xmlns="http://www.w3.org/2000/svg">
<path d="M20.5856 9.35174C20.8587 10.2081 20.9997 11.101 21.0037 11.9998C21.0037 16.9725 16.9726 21.0036 12 21.0036C7.02736 21.0036 2.99625 16.9725 2.99625 11.9998C2.99625 7.02721 7.02736 2.99609 12 2.99609C12.8988 3.00016 13.7918 3.14117 14.6481 3.41427" stroke="#040E2C" stroke-width="1.5" stroke-linecap="round" stroke-linejoin="round"/>
<path d="M20.5856 9.35174C20.8587 10.2081 20.9997 11.101 21.0037 11.9998C21.0037 16.9725 16.9726 21.0036 12 21.0036C7.02736 21.0036 2.99625 16.9725 2.99625 11.9998C2.99625 7.02721 7.02736 2.99609 12 2.99609C12.8988 3.00016 13.7918 3.14117 14.6481 3.41427" stroke="#0F215C" stroke-width="1.5" stroke-linecap="round" stroke-linejoin="round"/>
<path d="M20.5856 9.35174C20.8587 10.2081 20.9997 11.101 21.0037 11.9998C21.0037 16.9725 16.9726 21.0036 12 21.0036C7.02736 21.0036 2.99625 16.9725 2.99625 11.9998C2.99625 7.02721 7.02736 2.99609 12 2.99609C12.8988 3.00016 13.7918 3.14117 14.6481 3.41427" stroke="black" stroke-width="1.5" stroke-linecap="round" stroke-linejoin="round"/>
<path d="M21.0037 4.27051L19.0149 6.25934L17.7394 4.9838" stroke="#040E2C" stroke-width="1.5" stroke-linecap="round" stroke-linejoin="round"/>
<path d="M21.0037 4.27051L19.0149 6.25934L17.7394 4.9838" stroke="#0F215C" stroke-width="1.5" stroke-linecap="round" stroke-linejoin="round"/>
<path d="M21.0037 4.27051L19.0149 6.25934L17.7394 4.9838" stroke="black" stroke-width="1.5" stroke-linecap="round" stroke-linejoin="round"/>
<path d="M7.63116 10.7256C7.63116 9.91118 8.29137 9.25098 9.10578 9.25098C9.92019 9.25098 10.5804 9.91118 10.5804 10.7256C10.5804 12.5684 7.63116 12.5684 7.63116 14.7513H10.5804" stroke="#040E2C" stroke-width="1.5" stroke-linecap="round" stroke-linejoin="round"/>
<path d="M7.63116 10.7256C7.63116 9.91118 8.29137 9.25098 9.10578 9.25098C9.92019 9.25098 10.5804 9.91118 10.5804 10.7256C10.5804 12.5684 7.63116 12.5684 7.63116 14.7513H10.5804" stroke="#0F215C" stroke-width="1.5" stroke-linecap="round" stroke-linejoin="round"/>
<path d="M7.63116 10.7256C7.63116 9.91118 8.29137 9.25098 9.10578 9.25098C9.92019 9.25098 10.5804 9.91118 10.5804 10.7256C10.5804 12.5684 7.63116 12.5684 7.63116 14.7513H10.5804" stroke="black" stroke-width="1.5" stroke-linecap="round" stroke-linejoin="round"/>
<path d="M15.5335 14.7514V9.76128C15.5345 9.53384 15.3845 9.33332 15.166 9.2701C14.9476 9.20688 14.7137 9.29631 14.5931 9.48917C13.9658 10.5036 13.2815 11.6551 12.6903 12.6725C12.5919 12.8428 12.5921 13.0526 12.6909 13.2227C12.7897 13.3927 12.9719 13.4969 13.1685 13.4958H16.3688" stroke="#040E2C" stroke-width="1.5" stroke-linecap="round" stroke-linejoin="round"/>
<path d="M15.5335 14.7514V9.76128C15.5345 9.53384 15.3845 9.33332 15.166 9.2701C14.9476 9.20688 14.7137 9.29631 14.5931 9.48917C13.9658 10.5036 13.2815 11.6551 12.6903 12.6725C12.5919 12.8428 12.5921 13.0526 12.6909 13.2227C12.7897 13.3927 12.9719 13.4969 13.1685 13.4958H16.3688" stroke="#0F215C" stroke-width="1.5" stroke-linecap="round" stroke-linejoin="round"/>
<path d="M15.5335 14.7514V9.76128C15.5345 9.53384 15.3845 9.33332 15.166 9.2701C14.9476 9.20688 14.7137 9.29631 14.5931 9.48917C13.9658 10.5036 13.2815 11.6551 12.6903 12.6725C12.5919 12.8428 12.5921 13.0526 12.6909 13.2227C12.7897 13.3927 12.9719 13.4969 13.1685 13.4958H16.3688" stroke="black" stroke-width="1.5" stroke-linecap="round" stroke-linejoin="round"/>
</svg>
