<svg width="40" height="41" viewBox="0 0 40 41" fill="none" xmlns="http://www.w3.org/2000/svg">
<rect y="0.282227" width="40" height="40" rx="8" fill="#F6F8FA"/>
<g clip-path="url(#clip0_52349_38219)">
<path d="M20 32.2822C26.6274 32.2822 32 26.9096 32 20.2822C32 13.6548 26.6274 8.28223 20 8.28223C13.3726 8.28223 8 13.6548 8 20.2822C8 26.9096 13.3726 32.2822 20 32.2822Z" fill="#F3BA2F"/>
<path d="M17.0875 19.0857L20.0005 16.1727L22.915 19.0872L24.61 17.3922L20.0005 12.7827L15.3925 17.3907L17.0875 19.0857ZM12.5005 20.2827L14.1955 18.5877L15.8905 20.2827L14.1955 21.9777L12.5005 20.2827ZM17.0875 21.4797L20.0005 24.3927L22.915 21.4782L24.61 23.1725L20.0005 27.7827L15.3925 23.1747L15.3902 23.1725L17.0875 21.4797ZM24.1105 20.2827L25.8055 18.5877L27.5005 20.2827L25.8055 21.9777L24.1105 20.2827ZM21.7195 20.2812H21.721V20.2827L20.0005 22.0032L18.2822 20.2857L18.2792 20.2827L18.2822 20.2805L18.583 19.979L18.7292 19.8327L20.0005 18.5622L21.7202 20.282L21.7195 20.2812Z" fill="white"/>
</g>
<defs>
<clipPath id="clip0_52349_38219">
<rect width="24" height="24" fill="white" transform="translate(8 8.28223)"/>
</clipPath>
</defs>
</svg>
