<svg width="40" height="41" viewBox="0 0 40 41" fill="none" xmlns="http://www.w3.org/2000/svg">
<rect y="0.282227" width="40" height="40" rx="8" fill="#F6F8FA"/>
<g clip-path="url(#clip0_52349_38197)">
<path d="M20 32.2822C26.6274 32.2822 32 26.9096 32 20.2822C32 13.6548 26.6274 8.28223 20 8.28223C13.3726 8.28223 8 13.6548 8 20.2822C8 26.9096 13.3726 32.2822 20 32.2822Z" fill="#F7931A"/>
<path d="M25.3929 18.7977C25.6284 17.2257 24.4306 16.3805 22.7941 15.8165L23.3251 13.6865L22.0291 13.364L21.5116 15.4377C21.1711 15.3522 20.8216 15.2727 20.4729 15.1932L20.9941 13.106L19.6981 12.7827L19.1671 14.912C18.8851 14.8475 18.6076 14.7845 18.3391 14.717L18.3406 14.7102L16.5526 14.264L16.2076 15.6485C16.2076 15.6485 17.1699 15.869 17.1496 15.8825C17.6746 16.0137 17.7691 16.361 17.7534 16.637L17.1489 19.0632C17.1849 19.0722 17.2314 19.0857 17.2839 19.106L17.1466 19.0722L16.2991 22.4712C16.2346 22.6302 16.0719 22.8695 15.7044 22.7787C15.7179 22.7975 14.7624 22.544 14.7624 22.544L14.1189 24.0275L15.8064 24.4482C16.1199 24.527 16.4274 24.6095 16.7296 24.6867L16.1934 26.8407L17.4886 27.1632L18.0196 25.0332C18.3736 25.1285 18.7171 25.217 19.0531 25.301L18.5236 27.422L19.8196 27.7445L20.3559 25.595C22.5669 26.0135 24.2289 25.8447 24.9286 23.8452C25.4926 22.2357 24.9009 21.3065 23.7376 20.7012C24.5851 20.5062 25.2226 19.949 25.3929 18.7977ZM22.4304 22.9512C22.0306 24.5615 19.3194 23.6907 18.4404 23.4725L19.1529 20.6187C20.0319 20.8385 22.8496 21.2727 22.4304 22.9512ZM22.8316 18.7745C22.4664 20.2392 20.2104 19.4945 19.4791 19.3122L20.1241 16.7247C20.8554 16.907 23.2126 17.2467 22.8316 18.7745Z" fill="white"/>
</g>
<defs>
<clipPath id="clip0_52349_38197">
<rect width="24" height="24" fill="white" transform="translate(8 8.28223)"/>
</clipPath>
</defs>
</svg>
