<svg width="56" height="56" viewBox="0 0 56 56" fill="none" xmlns="http://www.w3.org/2000/svg">
<rect x="0.5" y="0.5" width="55" height="55" rx="15.5" fill="white"/>
<g clip-path="url(#clip0_52391_43022)">
<path d="M28 44C36.8366 44 44 36.8366 44 28C44 19.1634 36.8366 12 28 12C19.1634 12 12 19.1634 12 28C12 36.8366 19.1634 44 28 44Z" fill="#F7931A"/>
<path d="M35.1906 26.02C35.5046 23.924 33.9076 22.797 31.7256 22.045L32.4336 19.205L30.7056 18.775L30.0156 21.54C29.5616 21.426 29.0956 21.32 28.6306 21.214L29.3256 18.431L27.5976 18L26.8896 20.839C26.5136 20.753 26.1436 20.669 25.7856 20.579L25.7876 20.57L23.4036 19.975L22.9436 21.821C22.9436 21.821 24.2266 22.115 24.1996 22.133C24.8996 22.308 25.0256 22.771 25.0046 23.139L24.1986 26.374C24.2466 26.386 24.3086 26.404 24.3786 26.431L24.1956 26.386L23.0656 30.918C22.9796 31.13 22.7626 31.449 22.2726 31.328C22.2906 31.353 21.0166 31.015 21.0166 31.015L20.1586 32.993L22.4086 33.554C22.8266 33.659 23.2366 33.769 23.6396 33.872L22.9246 36.744L24.6516 37.174L25.3596 34.334C25.8316 34.461 26.2896 34.579 26.7376 34.691L26.0316 37.519L27.7596 37.949L28.4746 35.083C31.4226 35.641 33.6386 35.416 34.5716 32.75C35.3236 30.604 34.5346 29.365 32.9836 28.558C34.1136 28.298 34.9636 27.555 35.1906 26.02ZM31.2406 31.558C30.7076 33.705 27.0926 32.544 25.9206 32.253L26.8706 28.448C28.0426 28.741 31.7996 29.32 31.2406 31.558ZM31.7756 25.989C31.2886 27.942 28.2806 26.949 27.3056 26.706L28.1656 23.256C29.1406 23.499 32.2836 23.952 31.7756 25.989Z" fill="white"/>
</g>
<rect x="0.5" y="0.5" width="55" height="55" rx="15.5" stroke="#ECECEE"/>
<defs>
<clipPath id="clip0_52391_43022">
<rect width="32" height="32" fill="white" transform="translate(12 12)"/>
</clipPath>
</defs>
</svg>
