<svg width="40" height="41" viewBox="0 0 40 41" fill="none" xmlns="http://www.w3.org/2000/svg">
<rect y="0.282227" width="40" height="40" rx="8" fill="#F6F8FA"/>
<g clip-path="url(#clip0_52349_38208)">
<path d="M32.0521 20.2822C32.0521 22.6556 31.3483 24.9757 30.0298 26.9491C28.7112 28.9225 26.837 30.4605 24.6443 31.3688C22.4516 32.277 20.0388 32.5147 17.711 32.0517C15.3833 31.5886 13.2451 30.4457 11.5668 28.7675C9.88862 27.0893 8.74573 24.9511 8.28271 22.6233C7.81968 20.2955 8.05732 17.8827 8.96557 15.69C9.87383 13.4973 11.4119 11.6232 13.3853 10.3046C15.3587 8.98601 17.6788 8.28223 20.0521 8.28223C23.2347 8.28223 26.287 9.54651 28.5374 11.7969C30.7878 14.0474 32.0521 17.0996 32.0521 20.2822Z" fill="#43A047"/>
<path fill-rule="evenodd" clip-rule="evenodd" d="M16.5713 13.7621L19.3291 14.5007L19.9466 12.2021L21.3255 12.5763L20.7321 14.7789L21.8557 15.0811L22.4481 12.8556L23.851 13.2298L23.2466 15.4683C23.2466 15.4683 25.5375 15.9756 26.0775 17.8389C26.6175 19.7021 24.8939 20.6818 24.3648 20.7189C24.3648 20.7189 26.3731 21.8196 25.6837 23.9851C24.9942 26.1505 22.8768 26.5378 20.6513 26.0414L20.0459 28.364L18.643 27.9898L19.2604 25.6989L18.1466 25.4L17.527 27.7007L16.1361 27.3265L16.7524 25.0356L13.9215 24.272L14.6361 22.688C14.6361 22.688 15.4335 22.9062 15.7368 22.9782C16.0401 23.0502 16.2321 22.736 16.3171 22.4218C16.4022 22.1076 17.6841 16.9007 17.8051 16.472C17.9262 16.0432 17.8771 15.7083 17.3688 15.5763C16.8604 15.4443 16.1688 15.2381 16.1688 15.2381L16.5713 13.7621ZM19.3531 20.6578L18.5895 23.6938C18.5895 23.6938 22.375 25.0607 22.8593 23.1374C23.3437 21.2141 19.3531 20.6578 19.3531 20.6578ZM19.7044 19.2178L20.4539 16.436C20.4539 16.436 23.6961 17.0163 23.2968 18.5643C22.8975 20.1123 20.983 19.5189 19.7044 19.2178Z" fill="white"/>
</g>
<defs>
<clipPath id="clip0_52349_38208">
<rect width="24" height="24" fill="white" transform="translate(8 8.28223)"/>
</clipPath>
</defs>
</svg>
