<svg width="18" height="18" viewBox="0 0 18 18" fill="none" xmlns="http://www.w3.org/2000/svg">
<path d="M7.82923 10.0983C7.5172 9.82592 7.04342 9.85804 6.771 10.1701C6.49859 10.4821 6.5307 10.9559 6.84273 11.2283L7.82923 10.0983ZM13.9951 10.6633L14.4883 11.2283C14.5011 11.2172 14.5135 11.2056 14.5254 11.1937L13.9951 10.6633ZM8.47527 1.80433C8.17929 2.0941 8.17427 2.56895 8.46404 2.86493C8.75382 3.16091 9.22866 3.16594 9.52464 2.87616L8.47527 1.80433ZM10.1707 7.90031C10.4827 8.17272 10.9565 8.1406 11.2289 7.82857C11.5013 7.51654 11.4692 7.04276 11.1572 6.77034L10.1707 7.90031ZM4.00483 7.33532L3.51158 6.77034C3.49883 6.78147 3.48646 6.79303 3.47449 6.805L4.00483 7.33532ZM9.52464 16.1944C9.82062 15.9046 9.82565 15.4297 9.53587 15.1338C9.2461 14.8378 8.77125 14.8328 8.47527 15.1225L9.52464 16.1944ZM6.84273 11.2283C9.03269 13.1402 12.2984 13.1402 14.4883 11.2283L13.5018 10.0983C11.877 11.5169 9.45406 11.5169 7.82923 10.0983L6.84273 11.2283ZM14.5254 11.1937L16.1894 9.52968L15.1287 8.46902L13.4648 10.133L14.5254 11.1937ZM16.195 9.52403C18.2884 7.38583 18.2702 3.9609 16.1543 1.84499L15.0937 2.90565C16.6282 4.44015 16.6413 6.92399 15.1231 8.47466L16.195 9.52403ZM16.1543 1.84499C14.0384 -0.270924 10.6135 -0.289059 8.47527 1.80433L9.52464 2.87616C11.0753 1.35799 13.5592 1.37114 15.0937 2.90565L16.1543 1.84499ZM11.1572 6.77034C8.96723 4.85843 5.70153 4.85843 3.51158 6.77034L4.49808 7.90031C6.1229 6.48177 8.54586 6.48177 10.1707 7.90031L11.1572 6.77034ZM3.47449 6.805L1.81052 8.46903L2.87119 9.52967L4.53517 7.86565L3.47449 6.805ZM1.80494 8.47466C-0.288448 10.6129 -0.270314 14.0378 1.8456 16.1537L2.90626 15.093C1.37175 13.5585 1.3586 11.0747 2.87677 9.52403L1.80494 8.47466ZM1.8456 16.1537C3.96151 18.2696 7.38644 18.2878 9.52464 16.1944L8.47527 15.1225C6.9246 16.6407 4.44076 16.6276 2.90626 15.093L1.8456 16.1537Z" fill="#040E2C"/>
<path d="M7.82923 10.0983C7.5172 9.82592 7.04342 9.85804 6.771 10.1701C6.49859 10.4821 6.5307 10.9559 6.84273 11.2283L7.82923 10.0983ZM13.9951 10.6633L14.4883 11.2283C14.5011 11.2172 14.5135 11.2056 14.5254 11.1937L13.9951 10.6633ZM8.47527 1.80433C8.17929 2.0941 8.17427 2.56895 8.46404 2.86493C8.75382 3.16091 9.22866 3.16594 9.52464 2.87616L8.47527 1.80433ZM10.1707 7.90031C10.4827 8.17272 10.9565 8.1406 11.2289 7.82857C11.5013 7.51654 11.4692 7.04276 11.1572 6.77034L10.1707 7.90031ZM4.00483 7.33532L3.51158 6.77034C3.49883 6.78147 3.48646 6.79303 3.47449 6.805L4.00483 7.33532ZM9.52464 16.1944C9.82062 15.9046 9.82565 15.4297 9.53587 15.1338C9.2461 14.8378 8.77125 14.8328 8.47527 15.1225L9.52464 16.1944ZM6.84273 11.2283C9.03269 13.1402 12.2984 13.1402 14.4883 11.2283L13.5018 10.0983C11.877 11.5169 9.45406 11.5169 7.82923 10.0983L6.84273 11.2283ZM14.5254 11.1937L16.1894 9.52968L15.1287 8.46902L13.4648 10.133L14.5254 11.1937ZM16.195 9.52403C18.2884 7.38583 18.2702 3.9609 16.1543 1.84499L15.0937 2.90565C16.6282 4.44015 16.6413 6.92399 15.1231 8.47466L16.195 9.52403ZM16.1543 1.84499C14.0384 -0.270924 10.6135 -0.289059 8.47527 1.80433L9.52464 2.87616C11.0753 1.35799 13.5592 1.37114 15.0937 2.90565L16.1543 1.84499ZM11.1572 6.77034C8.96723 4.85843 5.70153 4.85843 3.51158 6.77034L4.49808 7.90031C6.1229 6.48177 8.54586 6.48177 10.1707 7.90031L11.1572 6.77034ZM3.47449 6.805L1.81052 8.46903L2.87119 9.52967L4.53517 7.86565L3.47449 6.805ZM1.80494 8.47466C-0.288448 10.6129 -0.270314 14.0378 1.8456 16.1537L2.90626 15.093C1.37175 13.5585 1.3586 11.0747 2.87677 9.52403L1.80494 8.47466ZM1.8456 16.1537C3.96151 18.2696 7.38644 18.2878 9.52464 16.1944L8.47527 15.1225C6.9246 16.6407 4.44076 16.6276 2.90626 15.093L1.8456 16.1537Z" fill="#0F215C"/>
<path d="M7.82923 10.0983C7.5172 9.82592 7.04342 9.85804 6.771 10.1701C6.49859 10.4821 6.5307 10.9559 6.84273 11.2283L7.82923 10.0983ZM13.9951 10.6633L14.4883 11.2283C14.5011 11.2172 14.5135 11.2056 14.5254 11.1937L13.9951 10.6633ZM8.47527 1.80433C8.17929 2.0941 8.17427 2.56895 8.46404 2.86493C8.75382 3.16091 9.22866 3.16594 9.52464 2.87616L8.47527 1.80433ZM10.1707 7.90031C10.4827 8.17272 10.9565 8.1406 11.2289 7.82857C11.5013 7.51654 11.4692 7.04276 11.1572 6.77034L10.1707 7.90031ZM4.00483 7.33532L3.51158 6.77034C3.49883 6.78147 3.48646 6.79303 3.47449 6.805L4.00483 7.33532ZM9.52464 16.1944C9.82062 15.9046 9.82565 15.4297 9.53587 15.1338C9.2461 14.8378 8.77125 14.8328 8.47527 15.1225L9.52464 16.1944ZM6.84273 11.2283C9.03269 13.1402 12.2984 13.1402 14.4883 11.2283L13.5018 10.0983C11.877 11.5169 9.45406 11.5169 7.82923 10.0983L6.84273 11.2283ZM14.5254 11.1937L16.1894 9.52968L15.1287 8.46902L13.4648 10.133L14.5254 11.1937ZM16.195 9.52403C18.2884 7.38583 18.2702 3.9609 16.1543 1.84499L15.0937 2.90565C16.6282 4.44015 16.6413 6.92399 15.1231 8.47466L16.195 9.52403ZM16.1543 1.84499C14.0384 -0.270924 10.6135 -0.289059 8.47527 1.80433L9.52464 2.87616C11.0753 1.35799 13.5592 1.37114 15.0937 2.90565L16.1543 1.84499ZM11.1572 6.77034C8.96723 4.85843 5.70153 4.85843 3.51158 6.77034L4.49808 7.90031C6.1229 6.48177 8.54586 6.48177 10.1707 7.90031L11.1572 6.77034ZM3.47449 6.805L1.81052 8.46903L2.87119 9.52967L4.53517 7.86565L3.47449 6.805ZM1.80494 8.47466C-0.288448 10.6129 -0.270314 14.0378 1.8456 16.1537L2.90626 15.093C1.37175 13.5585 1.3586 11.0747 2.87677 9.52403L1.80494 8.47466ZM1.8456 16.1537C3.96151 18.2696 7.38644 18.2878 9.52464 16.1944L8.47527 15.1225C6.9246 16.6407 4.44076 16.6276 2.90626 15.093L1.8456 16.1537Z" fill="black"/>
</svg>
