<svg width="24" height="24" viewBox="0 0 24 24" fill="none" xmlns="http://www.w3.org/2000/svg">
<path d="M16.595 13.125C16.388 13.126 16.221 13.294 16.221 13.501C16.221 13.708 16.389 13.876 16.596 13.875C16.803 13.875 16.971 13.707 16.971 13.5C16.971 13.293 16.803 13.125 16.595 13.125" stroke="#040E2C" stroke-width="1.5" stroke-linecap="round" stroke-linejoin="round"/>
<path d="M16.595 13.125C16.388 13.126 16.221 13.294 16.221 13.501C16.221 13.708 16.389 13.876 16.596 13.875C16.803 13.875 16.971 13.707 16.971 13.5C16.971 13.293 16.803 13.125 16.595 13.125" stroke="#0F215C" stroke-width="1.5" stroke-linecap="round" stroke-linejoin="round"/>
<path d="M16.595 13.125C16.388 13.126 16.221 13.294 16.221 13.501C16.221 13.708 16.389 13.876 16.596 13.875C16.803 13.875 16.971 13.707 16.971 13.5C16.971 13.293 16.803 13.125 16.595 13.125" stroke="black" stroke-width="1.5" stroke-linecap="round" stroke-linejoin="round"/>
<path d="M3 5V18.5C3 19.605 3.895 20.5 5 20.5H19C20.105 20.5 21 19.605 21 18.5V8.5C21 7.395 20.105 6.5 19 6.5H4.5C3.672 6.5 3 5.828 3 5V5C3 4.172 3.672 3.5 4.5 3.5H17" stroke="#040E2C" stroke-width="1.5" stroke-linecap="round" stroke-linejoin="round"/>
<path d="M3 5V18.5C3 19.605 3.895 20.5 5 20.5H19C20.105 20.5 21 19.605 21 18.5V8.5C21 7.395 20.105 6.5 19 6.5H4.5C3.672 6.5 3 5.828 3 5V5C3 4.172 3.672 3.5 4.5 3.5H17" stroke="#0F215C" stroke-width="1.5" stroke-linecap="round" stroke-linejoin="round"/>
<path d="M3 5V18.5C3 19.605 3.895 20.5 5 20.5H19C20.105 20.5 21 19.605 21 18.5V8.5C21 7.395 20.105 6.5 19 6.5H4.5C3.672 6.5 3 5.828 3 5V5C3 4.172 3.672 3.5 4.5 3.5H17" stroke="black" stroke-width="1.5" stroke-linecap="round" stroke-linejoin="round"/>
</svg>
