<svg width="25" height="24" viewBox="0 0 25 24" fill="none" xmlns="http://www.w3.org/2000/svg">
<path fill-rule="evenodd" clip-rule="evenodd" d="M8.29599 3H17.305C19.787 3 21.8 5.012 21.8 7.496V16.505C21.8 18.987 19.788 21 17.304 21H8.29599C5.81299 21 3.79999 18.988 3.79999 16.504V7.496C3.79999 5.013 5.81199 3 8.29599 3V3Z" stroke="#040E2C" stroke-width="1.5" stroke-linecap="round" stroke-linejoin="round"/>
<path fill-rule="evenodd" clip-rule="evenodd" d="M8.29599 3H17.305C19.787 3 21.8 5.012 21.8 7.496V16.505C21.8 18.987 19.788 21 17.304 21H8.29599C5.81299 21 3.79999 18.988 3.79999 16.504V7.496C3.79999 5.013 5.81199 3 8.29599 3V3Z" stroke="#0F215C" stroke-width="1.5" stroke-linecap="round" stroke-linejoin="round"/>
<path fill-rule="evenodd" clip-rule="evenodd" d="M8.29599 3H17.305C19.787 3 21.8 5.012 21.8 7.496V16.505C21.8 18.987 19.788 21 17.304 21H8.29599C5.81299 21 3.79999 18.988 3.79999 16.504V7.496C3.79999 5.013 5.81199 3 8.29599 3V3Z" stroke="black" stroke-width="1.5" stroke-linecap="round" stroke-linejoin="round"/>
<path d="M17.749 6.71328C17.563 6.71428 17.412 6.86528 17.412 7.05128C17.412 7.23728 17.564 7.38828 17.75 7.38828C17.936 7.38828 18.087 7.23728 18.087 7.05128C18.088 6.86428 17.936 6.71328 17.749 6.71328" stroke="#040E2C" stroke-width="1.5" stroke-linecap="round" stroke-linejoin="round"/>
<path d="M17.749 6.71328C17.563 6.71428 17.412 6.86528 17.412 7.05128C17.412 7.23728 17.564 7.38828 17.75 7.38828C17.936 7.38828 18.087 7.23728 18.087 7.05128C18.088 6.86428 17.936 6.71328 17.749 6.71328" stroke="#0F215C" stroke-width="1.5" stroke-linecap="round" stroke-linejoin="round"/>
<path d="M17.749 6.71328C17.563 6.71428 17.412 6.86528 17.412 7.05128C17.412 7.23728 17.564 7.38828 17.75 7.38828C17.936 7.38828 18.087 7.23728 18.087 7.05128C18.088 6.86428 17.936 6.71328 17.749 6.71328" stroke="black" stroke-width="1.5" stroke-linecap="round" stroke-linejoin="round"/>
<path d="M15.3456 9.45481C16.7515 10.8607 16.7515 13.1401 15.3456 14.546C13.9397 15.9519 11.6603 15.9519 10.2544 14.546C8.84854 13.1401 8.84854 10.8607 10.2544 9.45481C11.6603 8.04892 13.9397 8.04892 15.3456 9.45481" stroke="#040E2C" stroke-width="1.5" stroke-linecap="round" stroke-linejoin="round"/>
<path d="M15.3456 9.45481C16.7515 10.8607 16.7515 13.1401 15.3456 14.546C13.9397 15.9519 11.6603 15.9519 10.2544 14.546C8.84854 13.1401 8.84854 10.8607 10.2544 9.45481C11.6603 8.04892 13.9397 8.04892 15.3456 9.45481" stroke="#0F215C" stroke-width="1.5" stroke-linecap="round" stroke-linejoin="round"/>
<path d="M15.3456 9.45481C16.7515 10.8607 16.7515 13.1401 15.3456 14.546C13.9397 15.9519 11.6603 15.9519 10.2544 14.546C8.84854 13.1401 8.84854 10.8607 10.2544 9.45481C11.6603 8.04892 13.9397 8.04892 15.3456 9.45481" stroke="black" stroke-width="1.5" stroke-linecap="round" stroke-linejoin="round"/>
</svg>
