<svg width="32" height="30" viewBox="0 0 32 30" fill="none" xmlns="http://www.w3.org/2000/svg">
<path d="M31.153 29.7029V29.8545C28.2539 29.8636 25.3549 29.8848 22.4558 29.8636C22.146 29.825 21.862 29.6714 21.6602 29.4332C19.8417 27.3388 18.0504 25.2218 16.25 23.1123L11.3764 17.396C11.1248 17.6036 10.9096 17.7733 10.7035 17.9552C7.63927 20.6567 4.57503 23.3583 1.51079 26.0598C1.29804 26.2249 1.07536 26.3767 0.843994 26.5144L0.843994 4.38888L9.6336 12.0571C9.87152 11.8479 10.0625 11.6888 10.2398 11.5191C14.1173 7.87391 17.9963 4.23127 21.8769 0.591163C22.1012 0.382031 22.4134 0.136528 22.6862 0.136528C25.5094 0.113796 28.3327 0.136528 31.156 0.153198V0.304743C31.0104 0.398383 30.8698 0.499551 30.7347 0.607833C26.4258 4.41868 22.1199 8.23256 17.817 12.0495C16.538 13.1845 15.265 14.3226 13.9602 15.488C14.183 15.6866 14.3436 15.8426 14.5164 15.9851C16.8087 17.8845 19.1021 19.7818 21.3965 21.6771C24.6466 24.3554 27.8988 27.0307 31.153 29.7029ZM1.8063 6.52112L1.65476 6.5787L5.16454 16.7095L8.09845 13.6134L1.8063 6.52112Z" fill="url(#paint0_linear_51885_29223)"/>
<path d="M31.153 29.7029V29.8545C28.2539 29.8636 25.3549 29.8848 22.4558 29.8636C22.146 29.825 21.862 29.6714 21.6602 29.4332C19.8417 27.3388 18.0504 25.2218 16.25 23.1123L11.3764 17.396C11.1248 17.6036 10.9096 17.7733 10.7035 17.9552C7.63927 20.6567 4.57503 23.3583 1.51079 26.0598C1.29804 26.2249 1.07536 26.3767 0.843994 26.5144L0.843994 4.38888L9.6336 12.0571C9.87152 11.8479 10.0625 11.6888 10.2398 11.5191C14.1173 7.87391 17.9963 4.23127 21.8769 0.591163C22.1012 0.382031 22.4134 0.136528 22.6862 0.136528C25.5094 0.113796 28.3327 0.136528 31.156 0.153198V0.304743C31.0104 0.398383 30.8698 0.499551 30.7347 0.607833C26.4258 4.41868 22.1199 8.23256 17.817 12.0495C16.538 13.1845 15.265 14.3226 13.9602 15.488C14.183 15.6866 14.3436 15.8426 14.5164 15.9851C16.8087 17.8845 19.1021 19.7818 21.3965 21.6771C24.6466 24.3554 27.8988 27.0307 31.153 29.7029ZM1.8063 6.52112L1.65476 6.5787L5.16454 16.7095L8.09845 13.6134L1.8063 6.52112Z" fill="#132D7C"/>
<defs>
<linearGradient id="paint0_linear_51885_29223" x1="16" y1="0.126953" x2="16" y2="29.8727" gradientUnits="userSpaceOnUse">
<stop stop-color="#0F215C"/>
<stop offset="1" stop-color="#007BD1"/>
</linearGradient>
</defs>
</svg>
