<svg width="40" height="41" viewBox="0 0 40 41" fill="none" xmlns="http://www.w3.org/2000/svg">
<rect y="0.282227" width="40" height="40" rx="8" fill="#F6F8FA"/>
<rect x="8" y="8.28223" width="24" height="24" rx="12" fill="url(#paint0_linear_52349_38186)"/>
<path d="M26.3518 26.4343V26.4983C25.1286 26.5021 23.9053 26.5111 22.6821 26.5021C22.5514 26.4858 22.4316 26.421 22.3464 26.3205C21.5791 25.4368 20.8233 24.5436 20.0636 23.6535L18.0073 21.2416C17.9011 21.3292 17.8103 21.4008 17.7233 21.4775C16.4304 22.6174 15.1375 23.7573 13.8446 24.8972C13.7548 24.9668 13.6609 25.0309 13.5632 25.089V15.7534L17.2719 18.9889C17.3723 18.9006 17.4529 18.8335 17.5277 18.7619C19.1638 17.2238 20.8005 15.6868 22.4378 14.1509C22.5325 14.0627 22.6642 13.9591 22.7793 13.9591C23.9705 13.9495 25.1618 13.9591 26.3531 13.9662V14.0301C26.2916 14.0696 26.2323 14.1123 26.1753 14.158C24.3572 15.7659 22.5404 17.3751 20.7248 18.9857C20.1851 19.4646 19.648 19.9448 19.0975 20.4365C19.1915 20.5203 19.2592 20.5861 19.3321 20.6462C20.2994 21.4477 21.2671 22.2482 22.2351 23.0479C23.6065 24.178 24.9787 25.3068 26.3518 26.4343ZM13.9693 16.653L13.9053 16.6773L15.3862 20.9519L16.6242 19.6455L13.9693 16.653Z" fill="white"/>
<defs>
<linearGradient id="paint0_linear_52349_38186" x1="10.2798" y1="31.8995" x2="33.1418" y2="9.46452" gradientUnits="userSpaceOnUse">
<stop stop-color="#000407"/>
<stop offset="0.22" stop-color="#040C1E"/>
<stop offset="0.51" stop-color="#081437"/>
<stop offset="0.78" stop-color="#0B1947"/>
<stop offset="1" stop-color="#0C1B4C"/>
</linearGradient>
</defs>
</svg>
