<svg width="110" height="32" viewBox="0 0 110 32" fill="none" xmlns="http://www.w3.org/2000/svg">
<g clip-path="url(#clip0_51943_29173)">
<path d="M28.1341 29.9576V30.0983C25.4431 30.1067 22.7521 30.1264 20.061 30.1067C19.7735 30.0709 19.5098 29.9283 19.3225 29.7072C17.6345 27.7632 15.9717 25.798 14.3006 23.8399L9.7766 18.5338C9.54309 18.7265 9.34334 18.884 9.15203 19.0528C6.30767 21.5605 3.46331 24.0682 0.618951 26.5759C0.421467 26.7291 0.214761 26.87 0 26.9979L0 6.46001L8.15889 13.5779C8.37975 13.3838 8.55699 13.2361 8.72158 13.0786C12.3209 9.69496 15.9216 6.31371 19.5237 2.93481C19.7319 2.74068 20.0216 2.51279 20.2748 2.51279C22.8955 2.49169 25.5162 2.51279 28.1369 2.52827V2.66894C28.0018 2.75586 27.8712 2.84977 27.7459 2.95028C23.7461 6.48768 19.7492 10.0279 15.7551 13.5709C14.5678 14.6245 13.3862 15.681 12.175 16.7627C12.3818 16.947 12.5309 17.0919 12.6913 17.2241C14.8192 18.9872 16.948 20.7484 19.0777 22.5077C22.0947 24.9938 25.1134 27.4771 28.1341 29.9576ZM0.893258 8.43924L0.752588 8.4927L4.01052 17.8965L6.7339 15.0226L0.893258 8.43924Z" fill="url(#paint0_linear_51943_29173)"/>
<path d="M28.1341 29.9576V30.0983C25.4431 30.1067 22.7521 30.1264 20.061 30.1067C19.7735 30.0709 19.5098 29.9283 19.3225 29.7072C17.6345 27.7632 15.9717 25.798 14.3006 23.8399L9.7766 18.5338C9.54309 18.7265 9.34334 18.884 9.15203 19.0528C6.30767 21.5605 3.46331 24.0682 0.618951 26.5759C0.421467 26.7291 0.214761 26.87 0 26.9979L0 6.46001L8.15889 13.5779C8.37975 13.3838 8.55699 13.2361 8.72158 13.0786C12.3209 9.69496 15.9216 6.31371 19.5237 2.93481C19.7319 2.74068 20.0216 2.51279 20.2748 2.51279C22.8955 2.49169 25.5162 2.51279 28.1369 2.52827V2.66894C28.0018 2.75586 27.8712 2.84977 27.7459 2.95028C23.7461 6.48768 19.7492 10.0279 15.7551 13.5709C14.5678 14.6245 13.3862 15.681 12.175 16.7627C12.3818 16.947 12.5309 17.0919 12.6913 17.2241C14.8192 18.9872 16.948 20.7484 19.0777 22.5077C22.0947 24.9938 25.1134 27.4771 28.1341 29.9576ZM0.893258 8.43924L0.752588 8.4927L4.01052 17.8965L6.7339 15.0226L0.893258 8.43924Z" fill="#132D7C"/>
<path d="M45.9502 21.2391C45.4944 20.5395 44.9697 19.8052 44.3761 19.0362C43.7825 18.2672 43.1574 17.524 42.501 16.8066C41.8445 16.0901 41.1669 15.4083 40.4683 14.7612C39.8202 14.1541 39.1301 13.5933 38.4032 13.083V21.2419H35.0933V3.06445H38.4032V10.565C38.98 9.98826 39.583 9.37212 40.2123 8.7166C40.8415 8.06107 41.4666 7.39664 42.0874 6.72329C42.7082 6.05089 43.2981 5.39958 43.857 4.76938C44.416 4.13918 44.9233 3.57087 45.3791 3.06445H49.3333C48.7547 3.72936 48.1428 4.42005 47.4976 5.13653C46.8524 5.85301 46.188 6.57418 45.5043 7.30004C44.8225 8.0259 44.136 8.74895 43.4449 9.46918C42.7537 10.1894 42.0762 10.8693 41.4122 11.5089C42.1991 12.1135 42.9479 12.766 43.6545 13.4628C44.416 14.2074 45.1634 15.0046 45.8968 15.8542C46.6301 16.7039 47.3335 17.5868 48.0068 18.503C48.6792 19.4202 49.2954 20.3336 49.8552 21.2433L45.9502 21.2391Z" fill="url(#paint1_linear_51943_29173)"/>
<path d="M45.9502 21.2391C45.4944 20.5395 44.9697 19.8052 44.3761 19.0362C43.7825 18.2672 43.1574 17.524 42.501 16.8066C41.8445 16.0901 41.1669 15.4083 40.4683 14.7612C39.8202 14.1541 39.1301 13.5933 38.4032 13.083V21.2419H35.0933V3.06445H38.4032V10.565C38.98 9.98826 39.583 9.37212 40.2123 8.7166C40.8415 8.06107 41.4666 7.39664 42.0874 6.72329C42.7082 6.05089 43.2981 5.39958 43.857 4.76938C44.416 4.13918 44.9233 3.57087 45.3791 3.06445H49.3333C48.7547 3.72936 48.1428 4.42005 47.4976 5.13653C46.8524 5.85301 46.188 6.57418 45.5043 7.30004C44.8225 8.0259 44.136 8.74895 43.4449 9.46918C42.7537 10.1894 42.0762 10.8693 41.4122 11.5089C42.1991 12.1135 42.9479 12.766 43.6545 13.4628C44.416 14.2074 45.1634 15.0046 45.8968 15.8542C46.6301 16.7039 47.3335 17.5868 48.0068 18.503C48.6792 19.4202 49.2954 20.3336 49.8552 21.2433L45.9502 21.2391Z" fill="#132D7C"/>
<path d="M63.8082 14.3695C63.8204 15.3771 63.6611 16.3793 63.337 17.3334C63.0505 18.1769 62.5954 18.9532 61.9992 19.6151C61.417 20.2478 60.7062 20.7485 59.9145 21.0837C59.0637 21.4404 58.1488 21.619 57.2263 21.6084C56.3087 21.6196 55.3987 21.441 54.5535 21.0837C53.7674 20.7457 53.0617 20.2452 52.4828 19.6151C51.8847 18.9522 51.4251 18.1765 51.131 17.3334C50.7959 16.3816 50.6302 15.3785 50.6415 14.3695C50.6273 13.364 50.7911 12.3639 51.1254 11.4154C51.423 10.5754 51.8871 9.80418 52.4899 9.14781C53.0749 8.52005 53.7877 8.02502 54.5802 7.69609C55.4193 7.34762 56.3205 7.17341 57.2291 7.18405C58.1416 7.17441 59.0467 7.34855 59.8906 7.69609C60.6838 8.02266 61.3956 8.51971 61.9753 9.15203C62.5702 9.81171 63.0291 10.5823 63.3257 11.4196C63.659 12.3668 63.8224 13.3655 63.8082 14.3695V14.3695ZM60.5573 14.3695C60.5573 13.0069 60.2643 11.9284 59.6781 11.1341C59.092 10.3398 58.2747 9.94213 57.2263 9.9412C56.1769 9.9412 55.3596 10.3388 54.7744 11.1341C54.1892 11.9293 53.8961 13.0078 53.8952 14.3695C53.8952 15.7509 54.1882 16.8439 54.7744 17.6485C55.3605 18.4532 56.1778 18.855 57.2263 18.8541C58.2757 18.8541 59.093 18.4522 59.6781 17.6485C60.2633 16.8448 60.5564 15.7518 60.5573 14.3695Z" fill="url(#paint2_linear_51943_29173)"/>
<path d="M63.8082 14.3695C63.8204 15.3771 63.6611 16.3793 63.337 17.3334C63.0505 18.1769 62.5954 18.9532 61.9992 19.6151C61.417 20.2478 60.7062 20.7485 59.9145 21.0837C59.0637 21.4404 58.1488 21.619 57.2263 21.6084C56.3087 21.6196 55.3987 21.441 54.5535 21.0837C53.7674 20.7457 53.0617 20.2452 52.4828 19.6151C51.8847 18.9522 51.4251 18.1765 51.131 17.3334C50.7959 16.3816 50.6302 15.3785 50.6415 14.3695C50.6273 13.364 50.7911 12.3639 51.1254 11.4154C51.423 10.5754 51.8871 9.80418 52.4899 9.14781C53.0749 8.52005 53.7877 8.02502 54.5802 7.69609C55.4193 7.34762 56.3205 7.17341 57.2291 7.18405C58.1416 7.17441 59.0467 7.34855 59.8906 7.69609C60.6838 8.02266 61.3956 8.51971 61.9753 9.15203C62.5702 9.81171 63.0291 10.5823 63.3257 11.4196C63.659 12.3668 63.8224 13.3655 63.8082 14.3695V14.3695ZM60.5573 14.3695C60.5573 13.0069 60.2643 11.9284 59.6781 11.1341C59.092 10.3398 58.2747 9.94213 57.2263 9.9412C56.1769 9.9412 55.3596 10.3388 54.7744 11.1341C54.1892 11.9293 53.8961 13.0078 53.8952 14.3695C53.8952 15.7509 54.1882 16.8439 54.7744 17.6485C55.3605 18.4532 56.1778 18.855 57.2263 18.8541C58.2757 18.8541 59.093 18.4522 59.6781 17.6485C60.2633 16.8448 60.5564 15.7518 60.5573 14.3695Z" fill="#132D7C"/>
<path d="M78.6789 20.8222C77.8995 21.0477 77.1064 21.2225 76.3044 21.3455C75.3119 21.5063 74.3079 21.5853 73.3025 21.5819C72.3094 21.5978 71.322 21.429 70.3906 21.0839C69.5658 20.7722 68.8188 20.2845 68.2018 19.6547C67.5843 19.0113 67.1106 18.2442 66.812 17.4039C66.4758 16.4467 66.3115 15.4376 66.3266 14.4231C66.3141 13.4237 66.4511 12.428 66.7332 11.469C66.9748 10.6409 67.3804 9.86969 67.9261 9.20144C68.4442 8.57583 69.0993 8.07769 69.8406 7.7455C70.6596 7.39129 71.5452 7.21715 72.4374 7.23487C73.0315 7.2248 73.6237 7.30399 74.1943 7.46979C74.646 7.60562 75.0847 7.78121 75.5054 7.99449V1.41533L78.6789 0.890625V20.8222ZM69.5789 14.3514C69.5789 15.7497 69.9109 16.8464 70.5749 17.6417C71.2389 18.4369 72.1565 18.835 73.3278 18.836C73.7615 18.8397 74.1951 18.8176 74.6262 18.7699C74.9214 18.7377 75.2149 18.6907 75.5054 18.6292V10.7516C75.1582 10.5262 74.7839 10.3456 74.3913 10.2143C73.9153 10.0457 73.4136 9.96103 72.9086 9.96387C71.7551 9.96387 70.9111 10.3573 70.3766 11.1441C69.842 11.9309 69.5761 12.9977 69.5789 14.3444V14.3514Z" fill="url(#paint3_linear_51943_29173)"/>
<path d="M78.6789 20.8222C77.8995 21.0477 77.1064 21.2225 76.3044 21.3455C75.3119 21.5063 74.3079 21.5853 73.3025 21.5819C72.3094 21.5978 71.322 21.429 70.3906 21.0839C69.5658 20.7722 68.8188 20.2845 68.2018 19.6547C67.5843 19.0113 67.1106 18.2442 66.812 17.4039C66.4758 16.4467 66.3115 15.4376 66.3266 14.4231C66.3141 13.4237 66.4511 12.428 66.7332 11.469C66.9748 10.6409 67.3804 9.86969 67.9261 9.20144C68.4442 8.57583 69.0993 8.07769 69.8406 7.7455C70.6596 7.39129 71.5452 7.21715 72.4374 7.23487C73.0315 7.2248 73.6237 7.30399 74.1943 7.46979C74.646 7.60562 75.0847 7.78121 75.5054 7.99449V1.41533L78.6789 0.890625V20.8222ZM69.5789 14.3514C69.5789 15.7497 69.9109 16.8464 70.5749 17.6417C71.2389 18.4369 72.1565 18.835 73.3278 18.836C73.7615 18.8397 74.1951 18.8176 74.6262 18.7699C74.9214 18.7377 75.2149 18.6907 75.5054 18.6292V10.7516C75.1582 10.5262 74.7839 10.3456 74.3913 10.2143C73.9153 10.0457 73.4136 9.96103 72.9086 9.96387C71.7551 9.96387 70.9111 10.3573 70.3766 11.1441C69.842 11.9309 69.5761 12.9977 69.5789 14.3444V14.3514Z" fill="#132D7C"/>
<path d="M81.9563 14.4473C81.9345 13.3655 82.1168 12.2894 82.4937 11.2752C82.8112 10.4297 83.2975 9.65767 83.9229 9.00614C84.5011 8.41248 85.1981 7.94751 85.9683 7.64163C86.7184 7.33868 87.5197 7.18252 88.3287 7.18164C90.2165 7.18164 91.6893 7.7673 92.7472 8.93862C93.805 10.1099 94.3339 11.8589 94.3339 14.1856C94.3339 14.3601 94.334 14.557 94.3213 14.775C94.3086 14.9931 94.2988 15.197 94.2819 15.3659H85.234C85.3212 16.4678 85.7104 17.3202 86.4015 17.9232C87.0927 18.5263 88.0933 18.8278 89.4034 18.8278C90.1123 18.8335 90.8197 18.7632 91.5135 18.6182C92.0286 18.5152 92.5333 18.3659 93.0215 18.1722L93.4435 20.7676C93.2113 20.8803 92.9704 20.9744 92.7233 21.0489C92.3784 21.155 92.0281 21.2423 91.6739 21.3106C91.28 21.3894 90.858 21.455 90.4078 21.5075C89.9465 21.5609 89.4824 21.5872 89.018 21.5863C87.8111 21.5863 86.7621 21.4072 85.8712 21.0489C85.0318 20.7263 84.278 20.2146 83.6683 19.5536C83.0841 18.9037 82.6457 18.1362 82.3826 17.3029C82.0911 16.3794 81.9472 15.4156 81.9563 14.4473V14.4473ZM91.1548 13.0321C91.1572 12.6098 91.0956 12.1896 90.9719 11.7858C90.8609 11.4132 90.6784 11.0659 90.4346 10.7631C90.199 10.4758 89.9038 10.243 89.5694 10.0809C89.1871 9.90631 88.77 9.82116 88.3498 9.83187C87.9051 9.82342 87.4646 9.9198 87.0641 10.1132C86.7076 10.2876 86.3907 10.5332 86.1329 10.8349C85.8761 11.1372 85.6763 11.4838 85.5434 11.8575C85.4061 12.2393 85.3117 12.6351 85.2621 13.0378L91.1548 13.0321Z" fill="url(#paint4_linear_51943_29173)"/>
<path d="M81.9563 14.4473C81.9345 13.3655 82.1168 12.2894 82.4937 11.2752C82.8112 10.4297 83.2975 9.65767 83.9229 9.00614C84.5011 8.41248 85.1981 7.94751 85.9683 7.64163C86.7184 7.33868 87.5197 7.18252 88.3287 7.18164C90.2165 7.18164 91.6893 7.7673 92.7472 8.93862C93.805 10.1099 94.3339 11.8589 94.3339 14.1856C94.3339 14.3601 94.334 14.557 94.3213 14.775C94.3086 14.9931 94.2988 15.197 94.2819 15.3659H85.234C85.3212 16.4678 85.7104 17.3202 86.4015 17.9232C87.0927 18.5263 88.0933 18.8278 89.4034 18.8278C90.1123 18.8335 90.8197 18.7632 91.5135 18.6182C92.0286 18.5152 92.5333 18.3659 93.0215 18.1722L93.4435 20.7676C93.2113 20.8803 92.9704 20.9744 92.7233 21.0489C92.3784 21.155 92.0281 21.2423 91.6739 21.3106C91.28 21.3894 90.858 21.455 90.4078 21.5075C89.9465 21.5609 89.4824 21.5872 89.018 21.5863C87.8111 21.5863 86.7621 21.4072 85.8712 21.0489C85.0318 20.7263 84.278 20.2146 83.6683 19.5536C83.0841 18.9037 82.6457 18.1362 82.3826 17.3029C82.0911 16.3794 81.9472 15.4156 81.9563 14.4473V14.4473ZM91.1548 13.0321C91.1572 12.6098 91.0956 12.1896 90.9719 11.7858C90.8609 11.4132 90.6784 11.0659 90.4346 10.7631C90.199 10.4758 89.9038 10.243 89.5694 10.0809C89.1871 9.90631 88.77 9.82116 88.3498 9.83187C87.9051 9.82342 87.4646 9.9198 87.0641 10.1132C86.7076 10.2876 86.3907 10.5332 86.1329 10.8349C85.8761 11.1372 85.6763 11.4838 85.5434 11.8575C85.4061 12.2393 85.3117 12.6351 85.2621 13.0378L91.1548 13.0321Z" fill="#132D7C"/>
<path d="M102.617 11.7225L105.533 7.52344H108.862L104.258 14.0928C105.221 15.3006 106.143 16.5198 107.025 17.7502C107.83 18.8606 108.558 20.0243 109.204 21.2332H105.748C105.563 20.868 105.358 20.5139 105.132 20.1725C104.879 19.7871 104.609 19.3862 104.323 18.9698C104.037 18.5534 103.738 18.1403 103.426 17.7305C103.111 17.3225 102.808 16.9376 102.514 16.5756C101.868 17.329 101.266 18.1185 100.709 18.9403C100.121 19.804 99.634 20.5683 99.2476 21.2332H96.0122C96.2985 20.6607 96.6174 20.105 96.9674 19.5691C97.3425 18.9867 97.7471 18.3912 98.1813 17.7825C98.6155 17.1739 99.0605 16.5643 99.5163 15.9538C99.9749 15.3461 100.429 14.768 100.879 14.2194L96.219 7.52625H99.7062L102.617 11.7225Z" fill="url(#paint5_linear_51943_29173)"/>
<path d="M102.617 11.7225L105.533 7.52344H108.862L104.258 14.0928C105.221 15.3006 106.143 16.5198 107.025 17.7502C107.83 18.8606 108.558 20.0243 109.204 21.2332H105.748C105.563 20.868 105.358 20.5139 105.132 20.1725C104.879 19.7871 104.609 19.3862 104.323 18.9698C104.037 18.5534 103.738 18.1403 103.426 17.7305C103.111 17.3225 102.808 16.9376 102.514 16.5756C101.868 17.329 101.266 18.1185 100.709 18.9403C100.121 19.804 99.634 20.5683 99.2476 21.2332H96.0122C96.2985 20.6607 96.6174 20.105 96.9674 19.5691C97.3425 18.9867 97.7471 18.3912 98.1813 17.7825C98.6155 17.1739 99.0605 16.5643 99.5163 15.9538C99.9749 15.3461 100.429 14.768 100.879 14.2194L96.219 7.52625H99.7062L102.617 11.7225Z" fill="#132D7C"/>
<path d="M97.344 23.5938C98.1984 23.5938 98.8549 23.7494 99.3134 24.0608C99.772 24.3721 99.9994 24.8579 99.9957 25.5181C100.004 25.8235 99.9419 26.1268 99.8142 26.4043C99.6937 26.648 99.5107 26.8552 99.2839 27.005C99.0266 27.1715 98.7403 27.2879 98.4399 27.3482C98.0633 27.4261 97.6794 27.4634 97.2948 27.4594H96.7532V29.5272H95.6855V23.7386C95.9574 23.6792 96.2335 23.6406 96.5113 23.6233C96.8142 23.6036 97.0918 23.5938 97.344 23.5938ZM97.4214 24.518C97.1499 24.518 96.9263 24.5264 96.7518 24.5433V26.5436H97.2681C97.7829 26.5436 98.1787 26.4714 98.4554 26.327C98.7367 26.1863 98.8774 25.905 98.8774 25.5097C98.883 25.3421 98.8452 25.1759 98.7676 25.0272C98.6959 24.8993 98.5903 24.7936 98.4624 24.7219C98.3182 24.6435 98.1617 24.5902 97.9996 24.5644C97.8089 24.5341 97.6159 24.5204 97.4228 24.5236L97.4214 24.518Z" fill="url(#paint6_linear_51943_29173)"/>
<path d="M97.344 23.5938C98.1984 23.5938 98.8549 23.7494 99.3134 24.0608C99.772 24.3721 99.9994 24.8579 99.9957 25.5181C100.004 25.8235 99.9419 26.1268 99.8142 26.4043C99.6937 26.648 99.5107 26.8552 99.2839 27.005C99.0266 27.1715 98.7403 27.2879 98.4399 27.3482C98.0633 27.4261 97.6794 27.4634 97.2948 27.4594H96.7532V29.5272H95.6855V23.7386C95.9574 23.6792 96.2335 23.6406 96.5113 23.6233C96.8142 23.6036 97.0918 23.5938 97.344 23.5938ZM97.4214 24.518C97.1499 24.518 96.9263 24.5264 96.7518 24.5433V26.5436H97.2681C97.7829 26.5436 98.1787 26.4714 98.4554 26.327C98.7367 26.1863 98.8774 25.905 98.8774 25.5097C98.883 25.3421 98.8452 25.1759 98.7676 25.0272C98.6959 24.8993 98.5903 24.7936 98.4624 24.7219C98.3182 24.6435 98.1617 24.5902 97.9996 24.5644C97.8089 24.5341 97.6159 24.5204 97.4228 24.5236L97.4214 24.518Z" fill="#132D7C"/>
<path d="M102.244 24.9832C102.534 24.976 102.824 25.0193 103.1 25.1112C103.314 25.1814 103.508 25.3037 103.663 25.4671C103.804 25.6257 103.905 25.8157 103.958 26.0213C104.021 26.2553 104.051 26.4966 104.048 26.7388V29.4242C103.889 29.4579 103.652 29.5001 103.332 29.5479C102.974 29.5985 102.612 29.6224 102.251 29.6197C102.006 29.6218 101.761 29.5963 101.522 29.5437C101.32 29.4998 101.129 29.4161 100.959 29.2976C100.803 29.1838 100.677 29.0323 100.595 28.8573C100.5 28.647 100.455 28.418 100.463 28.1877C100.455 27.9635 100.507 27.7414 100.612 27.5434C100.709 27.3717 100.847 27.2267 101.014 27.1214C101.194 27.006 101.394 26.9254 101.604 26.8836C101.835 26.8348 102.071 26.8107 102.307 26.8119C102.426 26.8123 102.545 26.8193 102.663 26.833C102.797 26.8489 102.93 26.8729 103.061 26.9047V26.7359C103.061 26.6211 103.047 26.5067 103.019 26.3955C102.992 26.2883 102.939 26.1892 102.866 26.1067C102.792 26.0241 102.7 25.9606 102.597 25.9215C102.457 25.8724 102.309 25.8495 102.161 25.8539C101.942 25.8525 101.724 25.8695 101.508 25.9046C101.344 25.93 101.183 25.9695 101.025 26.0227L100.899 25.1928C101.083 25.1323 101.271 25.0853 101.461 25.0521C101.72 25.0063 101.981 24.9832 102.244 24.9832ZM102.329 28.8052C102.571 28.811 102.812 28.7941 103.05 28.7546V27.6179C102.969 27.596 102.886 27.5791 102.803 27.5673C102.686 27.5496 102.567 27.5411 102.448 27.542C102.333 27.5421 102.218 27.5506 102.104 27.5673C101.996 27.5823 101.89 27.6136 101.791 27.6601C101.7 27.7029 101.623 27.769 101.567 27.8515C101.507 27.943 101.477 28.0513 101.481 28.1609C101.471 28.2577 101.487 28.3555 101.527 28.4441C101.567 28.5327 101.631 28.6089 101.71 28.6645C101.9 28.7669 102.114 28.8156 102.329 28.8052V28.8052Z" fill="url(#paint7_linear_51943_29173)"/>
<path d="M102.244 24.9832C102.534 24.976 102.824 25.0193 103.1 25.1112C103.314 25.1814 103.508 25.3037 103.663 25.4671C103.804 25.6257 103.905 25.8157 103.958 26.0213C104.021 26.2553 104.051 26.4966 104.048 26.7388V29.4242C103.889 29.4579 103.652 29.5001 103.332 29.5479C102.974 29.5985 102.612 29.6224 102.251 29.6197C102.006 29.6218 101.761 29.5963 101.522 29.5437C101.32 29.4998 101.129 29.4161 100.959 29.2976C100.803 29.1838 100.677 29.0323 100.595 28.8573C100.5 28.647 100.455 28.418 100.463 28.1877C100.455 27.9635 100.507 27.7414 100.612 27.5434C100.709 27.3717 100.847 27.2267 101.014 27.1214C101.194 27.006 101.394 26.9254 101.604 26.8836C101.835 26.8348 102.071 26.8107 102.307 26.8119C102.426 26.8123 102.545 26.8193 102.663 26.833C102.797 26.8489 102.93 26.8729 103.061 26.9047V26.7359C103.061 26.6211 103.047 26.5067 103.019 26.3955C102.992 26.2883 102.939 26.1892 102.866 26.1067C102.792 26.0241 102.7 25.9606 102.597 25.9215C102.457 25.8724 102.309 25.8495 102.161 25.8539C101.942 25.8525 101.724 25.8695 101.508 25.9046C101.344 25.93 101.183 25.9695 101.025 26.0227L100.899 25.1928C101.083 25.1323 101.271 25.0853 101.461 25.0521C101.72 25.0063 101.981 24.9832 102.244 24.9832ZM102.329 28.8052C102.571 28.811 102.812 28.7941 103.05 28.7546V27.6179C102.969 27.596 102.886 27.5791 102.803 27.5673C102.686 27.5496 102.567 27.5411 102.448 27.542C102.333 27.5421 102.218 27.5506 102.104 27.5673C101.996 27.5823 101.89 27.6136 101.791 27.6601C101.7 27.7029 101.623 27.769 101.567 27.8515C101.507 27.943 101.477 28.0513 101.481 28.1609C101.471 28.2577 101.487 28.3555 101.527 28.4441C101.567 28.5327 101.631 28.6089 101.71 28.6645C101.9 28.7669 102.114 28.8156 102.329 28.8052V28.8052Z" fill="#132D7C"/>
<path d="M108.805 25.0938C108.389 26.6568 107.858 28.1864 107.214 29.6698C107.115 29.8963 106.999 30.1145 106.866 30.3225C106.757 30.4918 106.622 30.6432 106.467 30.7712C106.322 30.8895 106.155 30.9775 105.976 31.03C105.616 31.1259 105.24 31.136 104.876 31.0596C104.755 31.0366 104.637 30.9997 104.524 30.9499L104.711 30.1269C104.903 30.2046 105.109 30.2452 105.316 30.2465C105.54 30.2594 105.762 30.1915 105.94 30.0552C106.116 29.8918 106.252 29.6901 106.337 29.4658C106.014 28.845 105.703 28.1674 105.405 27.4331C105.097 26.6684 104.831 25.8874 104.608 25.0938H105.703C105.759 25.3301 105.828 25.587 105.911 25.8646C105.993 26.146 106.083 26.4273 106.178 26.7086C106.274 26.99 106.377 27.2784 106.485 27.5611C106.593 27.8439 106.7 28.1069 106.808 28.3489C106.988 27.8471 107.157 27.3117 107.315 26.7424C107.472 26.1732 107.616 25.6241 107.745 25.0952L108.805 25.0938Z" fill="url(#paint8_linear_51943_29173)"/>
<path d="M108.805 25.0938C108.389 26.6568 107.858 28.1864 107.214 29.6698C107.115 29.8963 106.999 30.1145 106.866 30.3225C106.757 30.4918 106.622 30.6432 106.467 30.7712C106.322 30.8895 106.155 30.9775 105.976 31.03C105.616 31.1259 105.24 31.136 104.876 31.0596C104.755 31.0366 104.637 30.9997 104.524 30.9499L104.711 30.1269C104.903 30.2046 105.109 30.2452 105.316 30.2465C105.54 30.2594 105.762 30.1915 105.94 30.0552C106.116 29.8918 106.252 29.6901 106.337 29.4658C106.014 28.845 105.703 28.1674 105.405 27.4331C105.097 26.6684 104.831 25.8874 104.608 25.0938H105.703C105.759 25.3301 105.828 25.587 105.911 25.8646C105.993 26.146 106.083 26.4273 106.178 26.7086C106.274 26.99 106.377 27.2784 106.485 27.5611C106.593 27.8439 106.7 28.1069 106.808 28.3489C106.988 27.8471 107.157 27.3117 107.315 26.7424C107.472 26.1732 107.616 25.6241 107.745 25.0952L108.805 25.0938Z" fill="#132D7C"/>
</g>
<defs>
<linearGradient id="paint0_linear_51943_29173" x1="14.0685" y1="2.50391" x2="14.0685" y2="30.1152" gradientUnits="userSpaceOnUse">
<stop stop-color="#0F215C"/>
<stop offset="1" stop-color="#007BD1"/>
</linearGradient>
<linearGradient id="paint1_linear_51943_29173" x1="42.4742" y1="3.06445" x2="42.4742" y2="21.2433" gradientUnits="userSpaceOnUse">
<stop stop-color="#0F215C"/>
<stop offset="1" stop-color="#007BD1"/>
</linearGradient>
<linearGradient id="paint2_linear_51943_29173" x1="57.2249" y1="7.18359" x2="57.2249" y2="21.6089" gradientUnits="userSpaceOnUse">
<stop stop-color="#0F215C"/>
<stop offset="1" stop-color="#007BD1"/>
</linearGradient>
<linearGradient id="paint3_linear_51943_29173" x1="72.5023" y1="0.890625" x2="72.5023" y2="21.5829" gradientUnits="userSpaceOnUse">
<stop stop-color="#0F215C"/>
<stop offset="1" stop-color="#007BD1"/>
</linearGradient>
<linearGradient id="paint4_linear_51943_29173" x1="88.1443" y1="7.18164" x2="88.1443" y2="21.5863" gradientUnits="userSpaceOnUse">
<stop stop-color="#0F215C"/>
<stop offset="1" stop-color="#007BD1"/>
</linearGradient>
<linearGradient id="paint5_linear_51943_29173" x1="102.608" y1="7.52344" x2="102.608" y2="21.2332" gradientUnits="userSpaceOnUse">
<stop stop-color="#0F215C"/>
<stop offset="1" stop-color="#007BD1"/>
</linearGradient>
<linearGradient id="paint6_linear_51943_29173" x1="97.841" y1="23.5938" x2="97.841" y2="29.5272" gradientUnits="userSpaceOnUse">
<stop stop-color="#0F215C"/>
<stop offset="1" stop-color="#007BD1"/>
</linearGradient>
<linearGradient id="paint7_linear_51943_29173" x1="102.255" y1="24.9824" x2="102.255" y2="29.6199" gradientUnits="userSpaceOnUse">
<stop stop-color="#0F215C"/>
<stop offset="1" stop-color="#007BD1"/>
</linearGradient>
<linearGradient id="paint8_linear_51943_29173" x1="106.664" y1="25.0938" x2="106.664" y2="31.1103" gradientUnits="userSpaceOnUse">
<stop stop-color="#0F215C"/>
<stop offset="1" stop-color="#007BD1"/>
</linearGradient>
<clipPath id="clip0_51943_29173">
<rect width="109.204" height="30.2203" fill="white" transform="translate(0 0.890625)"/>
</clipPath>
</defs>
</svg>
