<svg width="132" height="38" viewBox="0 0 132 38" fill="none" xmlns="http://www.w3.org/2000/svg">
<g clip-path="url(#clip0_51893_12277)">
<path d="M34.1861 35.7782V35.9473C30.9515 35.9574 27.717 35.9811 24.4824 35.9574C24.1367 35.9144 23.8199 35.743 23.5947 35.4772C21.5657 33.1405 19.5671 30.7784 17.5584 28.4247L12.1207 22.0469C11.84 22.2785 11.5999 22.4679 11.37 22.6708C7.95109 25.685 4.53222 28.6992 1.11335 31.7134C0.87598 31.8976 0.627524 32.067 0.369385 32.2207L0.369385 7.53446L10.1762 16.0901C10.4417 15.8568 10.6547 15.6792 10.8526 15.4898C15.1788 11.4228 19.5068 7.35862 23.8365 3.29723C24.0867 3.0639 24.435 2.78998 24.7394 2.78998C27.8894 2.76462 31.0395 2.78998 34.1895 2.80858V2.97766C34.027 3.08214 33.8701 3.19502 33.7194 3.31583C28.9118 7.56772 24.1076 11.823 19.3067 16.0816C17.8797 17.3481 16.4594 18.6179 15.0036 19.9181C15.2521 20.1396 15.4313 20.3138 15.6241 20.4727C18.1818 22.5919 20.7406 24.7088 23.3005 26.8235C26.9268 29.8118 30.5553 32.7967 34.1861 35.7782ZM1.44307 9.91347L1.27398 9.97772L5.18996 21.281L8.46341 17.8266L1.44307 9.91347Z" fill="white"/>
<path d="M55.6005 25.2997C55.0527 24.4588 54.422 23.5762 53.7085 22.6518C52.9949 21.7275 52.2437 20.8342 51.4546 19.9719C50.6655 19.1107 49.8511 18.2912 49.0113 17.5134C48.2323 16.7836 47.4029 16.1096 46.5292 15.4962V25.3031H42.5507V3.4541H46.5292V12.4696C47.2224 11.7764 47.9472 11.0358 48.7036 10.2479C49.46 9.45995 50.2113 8.66131 50.9575 7.85196C51.7037 7.04375 52.4127 6.26089 53.0846 5.50339C53.7564 4.7459 54.3662 4.0628 54.914 3.4541H59.667C58.9715 4.2533 58.236 5.0835 57.4604 5.9447C56.6849 6.8059 55.8863 7.67274 55.0645 8.54521C54.245 9.41768 53.4199 10.2868 52.5891 11.1525C51.7584 12.0182 50.944 12.8354 50.1459 13.6042C51.0917 14.3309 51.9918 15.1152 52.8411 15.9528C53.7564 16.8478 54.6548 17.8059 55.5363 18.8272C56.4178 19.8484 57.2632 20.9097 58.0725 22.011C58.8807 23.1134 59.6213 24.2114 60.2943 25.3048L55.6005 25.2997Z" fill="white"/>
<path d="M77.0657 17.0387C77.0803 18.2498 76.8888 19.4545 76.4993 20.6013C76.155 21.6151 75.6079 22.5483 74.8913 23.3438C74.1915 24.1043 73.3371 24.7061 72.3855 25.1091C71.3628 25.5378 70.2631 25.7525 69.1543 25.7397C68.0514 25.7532 66.9576 25.5385 65.9417 25.1091C64.9968 24.7028 64.1486 24.1012 63.4528 23.3438C62.7338 22.5471 62.1814 21.6146 61.8279 20.6013C61.4251 19.4573 61.226 18.2515 61.2395 17.0387C61.2224 15.8301 61.4194 14.628 61.8211 13.488C62.1789 12.4783 62.7367 11.5513 63.4612 10.7623C64.1644 10.0078 65.0212 9.41275 65.9738 9.01738C66.9824 8.59852 68.0656 8.38912 69.1577 8.40192C70.2545 8.39033 71.3425 8.59965 72.3567 9.01738C73.3102 9.40991 74.1657 10.0074 74.8625 10.7674C75.5776 11.5603 76.1292 12.4866 76.4857 13.493C76.8863 14.6315 77.0827 15.8319 77.0657 17.0387ZM73.1582 17.0387C73.1582 15.4009 72.8059 14.1045 72.1014 13.1498C71.3969 12.195 70.4145 11.7171 69.1543 11.716C67.8929 11.716 66.9105 12.1939 66.2072 13.1498C65.5038 14.1057 65.1515 15.402 65.1504 17.0387C65.1504 18.6991 65.5026 20.0129 66.2072 20.98C66.9117 21.9472 67.894 22.4302 69.1543 22.4291C70.4156 22.4291 71.398 21.9461 72.1014 20.98C72.8048 20.014 73.1571 18.7002 73.1582 17.0387Z" fill="white"/>
<path d="M94.9395 24.7953C94.0027 25.0664 93.0493 25.2765 92.0854 25.4243C90.8924 25.6176 89.6856 25.7126 88.4771 25.7084C87.2834 25.7276 86.0966 25.5246 84.9771 25.1098C83.9857 24.7352 83.0879 24.149 82.3462 23.3919C81.604 22.6187 81.0346 21.6965 80.6756 20.6866C80.2715 19.536 80.0741 18.3231 80.0923 17.1037C80.0772 15.9024 80.2419 14.7056 80.5809 13.553C80.8713 12.5575 81.3589 11.6306 82.0148 10.8273C82.6376 10.0754 83.4249 9.47662 84.316 9.07733C85.3005 8.65157 86.3649 8.44226 87.4373 8.46356C88.1514 8.45146 88.8633 8.54664 89.5491 8.74593C90.092 8.9092 90.6194 9.12025 91.125 9.37661V1.46857L94.9395 0.837891V24.7953ZM84.0015 17.0175C84.0015 18.6982 84.4005 20.0165 85.1986 20.9724C85.9967 21.9282 87.0997 22.4067 88.5076 22.4079C89.0289 22.4123 89.55 22.3858 90.0682 22.3284C90.4231 22.2897 90.7758 22.2333 91.125 22.1593V12.6906C90.7077 12.4197 90.2577 12.2027 89.7858 12.0447C89.2137 11.8422 88.6107 11.7404 88.0037 11.7438C86.6172 11.7438 85.6027 12.2166 84.9602 13.1624C84.3177 14.1081 83.9981 15.3903 84.0015 17.009V17.0175Z" fill="white"/>
<path d="M98.8791 17.1336C98.8529 15.8333 99.072 14.5398 99.525 13.3207C99.9067 12.3045 100.491 11.3765 101.243 10.5934C101.938 9.87984 102.776 9.32096 103.701 8.95329C104.603 8.58915 105.566 8.40145 106.539 8.40039C108.808 8.40039 110.578 9.10434 111.85 10.5122C113.121 11.9201 113.757 14.0224 113.757 16.8191C113.757 17.0287 113.757 17.2654 113.742 17.5275C113.726 17.7896 113.715 18.0348 113.694 18.2377H102.819C102.924 19.5622 103.391 20.5868 104.222 21.3116C105.053 22.0364 106.256 22.3988 107.83 22.3988C108.682 22.4057 109.533 22.3213 110.367 22.1469C110.986 22.0231 111.592 21.8437 112.179 21.6109L112.686 24.7305C112.407 24.866 112.118 24.9791 111.821 25.0686C111.406 25.1961 110.985 25.3011 110.559 25.3831C110.086 25.4778 109.579 25.5567 109.038 25.6199C108.483 25.684 107.925 25.7156 107.367 25.7145C105.916 25.7145 104.656 25.4992 103.585 25.0686C102.576 24.6808 101.67 24.0658 100.937 23.2713C100.235 22.4901 99.7077 21.5676 99.3914 20.5659C99.0411 19.4559 98.8682 18.2975 98.8791 17.1336ZM109.935 15.4326C109.938 14.925 109.864 14.4199 109.716 13.9345C109.582 13.4867 109.363 13.0692 109.07 12.7053C108.787 12.3599 108.432 12.0801 108.03 11.8852C107.57 11.6754 107.069 11.573 106.564 11.5859C106.029 11.5758 105.5 11.6916 105.019 11.9241C104.59 12.1337 104.209 12.4289 103.899 12.7915C103.591 13.1549 103.351 13.5715 103.191 14.0207C103.026 14.4796 102.912 14.9554 102.853 15.4393L109.935 15.4326Z" fill="white"/>
<path d="M123.712 13.8577L127.218 8.81055H131.22L125.686 16.7067C126.842 18.1586 127.951 19.624 129.012 21.1029C129.978 22.4376 130.853 23.8363 131.631 25.2894H127.476C127.254 24.8505 127.007 24.4248 126.736 24.0145C126.431 23.5513 126.107 23.0694 125.763 22.5689C125.42 22.0684 125.06 21.5718 124.685 21.0792C124.307 20.5889 123.942 20.1262 123.589 19.6911C122.813 20.5967 122.088 21.5456 121.42 22.5334C120.713 23.5715 120.127 24.4902 119.663 25.2894H115.774C116.118 24.6013 116.501 23.9334 116.922 23.2892C117.373 22.5892 117.859 21.8734 118.381 21.1418C118.903 20.4102 119.438 19.6775 119.986 18.9437C120.537 18.2133 121.083 17.5183 121.624 16.8589L116.023 8.81393H120.214L123.712 13.8577Z" fill="white"/>
<path d="M117.375 28.127C118.402 28.127 119.191 28.3141 119.742 28.6883C120.293 29.0625 120.567 29.6465 120.562 30.44C120.572 30.8071 120.498 31.1716 120.344 31.5052C120.199 31.7981 119.979 32.0472 119.707 32.2272C119.398 32.4273 119.053 32.5673 118.692 32.6398C118.24 32.7334 117.778 32.7782 117.316 32.7734H116.665V35.2589H115.382V28.3011C115.708 28.2297 116.04 28.1833 116.374 28.1625C116.738 28.1388 117.072 28.127 117.375 28.127ZM117.468 29.2378C117.142 29.2378 116.873 29.248 116.663 29.2683V31.6726H117.284C117.903 31.6726 118.378 31.5858 118.711 31.4122C119.049 31.2432 119.218 30.905 119.218 30.4299C119.225 30.2284 119.179 30.0286 119.086 29.8499C119 29.6962 118.873 29.5692 118.719 29.483C118.546 29.3888 118.358 29.3247 118.163 29.2936C117.934 29.2572 117.702 29.2408 117.47 29.2446L117.468 29.2378Z" fill="white"/>
<path d="M123.264 29.7968C123.614 29.7882 123.962 29.8403 124.294 29.9507C124.551 30.035 124.784 30.182 124.97 30.3785C125.14 30.5691 125.262 30.7975 125.325 31.0447C125.4 31.3259 125.437 31.616 125.434 31.907V35.1348C125.243 35.1754 124.957 35.2261 124.573 35.2836C124.142 35.3443 123.708 35.3731 123.273 35.3698C122.978 35.3723 122.685 35.3417 122.397 35.2785C122.154 35.2257 121.924 35.1251 121.721 34.9826C121.532 34.8458 121.382 34.6638 121.283 34.4534C121.169 34.2007 121.115 33.9254 121.124 33.6485C121.115 33.3792 121.176 33.1121 121.303 32.8741C121.42 32.6677 121.586 32.4935 121.787 32.3669C122.003 32.2283 122.243 32.1313 122.495 32.0811C122.773 32.0224 123.056 31.9935 123.34 31.9949C123.483 31.9954 123.626 32.0038 123.768 32.0203C123.929 32.0394 124.089 32.0682 124.247 32.1065V31.9036C124.247 31.7656 124.23 31.6281 124.196 31.4944C124.164 31.3656 124.101 31.2464 124.012 31.1472C123.924 31.048 123.813 30.9716 123.689 30.9246C123.52 30.8656 123.343 30.8381 123.165 30.8434C122.902 30.8417 122.639 30.8621 122.38 30.9043C122.183 30.9349 121.989 30.9824 121.8 31.0463L121.648 30.0487C121.869 29.9761 122.095 29.9196 122.324 29.8797C122.635 29.8246 122.949 29.7968 123.264 29.7968ZM123.367 34.3908C123.657 34.3978 123.947 34.3774 124.233 34.3299V32.9637C124.136 32.9373 124.037 32.917 123.937 32.9029C123.796 32.8816 123.653 32.8714 123.51 32.8724C123.371 32.8726 123.234 32.8828 123.097 32.9029C122.966 32.9209 122.839 32.9585 122.72 33.0145C122.611 33.0659 122.519 33.1453 122.451 33.2444C122.378 33.3545 122.342 33.4847 122.348 33.6164C122.335 33.7328 122.354 33.8503 122.403 33.9568C122.451 34.0633 122.528 34.1548 122.624 34.2217C122.851 34.3448 123.109 34.4033 123.367 34.3908Z" fill="white"/>
<path d="M131.15 29.9307C130.652 31.8094 130.012 33.648 129.238 35.431C129.12 35.7032 128.98 35.9656 128.82 36.2155C128.689 36.4191 128.527 36.601 128.34 36.7549C128.166 36.897 127.966 37.0028 127.75 37.066C127.318 37.1812 126.865 37.1934 126.428 37.1015C126.282 37.0738 126.141 37.0296 126.005 36.9696L126.23 35.9805C126.461 36.0739 126.708 36.1226 126.957 36.1242C127.227 36.1396 127.493 36.0581 127.708 35.8942C127.919 35.6979 128.082 35.4554 128.185 35.1858C127.796 34.4396 127.422 33.6251 127.064 32.7425C126.694 31.8233 126.374 30.8847 126.107 29.9307H127.422C127.49 30.2147 127.573 30.5236 127.672 30.8572C127.77 31.1954 127.879 31.5336 127.994 31.8717C128.109 32.2099 128.232 32.5565 128.362 32.8964C128.492 33.2362 128.621 33.5524 128.751 33.8433C128.968 33.2402 129.17 32.5965 129.36 31.9123C129.549 31.2281 129.722 30.5681 129.877 29.9324L131.15 29.9307Z" fill="white"/>
</g>
<defs>
<clipPath id="clip0_51893_12277">
<rect width="131.261" height="36.3242" fill="white" transform="translate(0.369385 0.837891)"/>
</clipPath>
</defs>
</svg>
