<svg width="25" height="24" viewBox="0 0 25 24" fill="none" xmlns="http://www.w3.org/2000/svg">
<path fill-rule="evenodd" clip-rule="evenodd" d="M8.10001 3H17.104C19.587 3 21.6 5.013 21.6 7.496V16.505C21.6 18.987 19.587 21 17.104 21H8.09601C5.61301 21 3.60001 18.987 3.60001 16.504V7.5C3.60001 5.015 5.61501 3 8.10001 3V3Z" stroke="#040E2C" stroke-width="1.5" stroke-linecap="round" stroke-linejoin="round"/>
<path fill-rule="evenodd" clip-rule="evenodd" d="M8.10001 3H17.104C19.587 3 21.6 5.013 21.6 7.496V16.505C21.6 18.987 19.587 21 17.104 21H8.09601C5.61301 21 3.60001 18.987 3.60001 16.504V7.5C3.60001 5.015 5.61501 3 8.10001 3V3Z" stroke="#0F215C" stroke-width="1.5" stroke-linecap="round" stroke-linejoin="round"/>
<path fill-rule="evenodd" clip-rule="evenodd" d="M8.10001 3H17.104C19.587 3 21.6 5.013 21.6 7.496V16.505C21.6 18.987 19.587 21 17.104 21H8.09601C5.61301 21 3.60001 18.987 3.60001 16.504V7.5C3.60001 5.015 5.61501 3 8.10001 3V3Z" stroke="black" stroke-width="1.5" stroke-linecap="round" stroke-linejoin="round"/>
<path d="M8.72 11.0996V16.4996" stroke="#040E2C" stroke-width="1.5" stroke-linecap="round" stroke-linejoin="round"/>
<path d="M8.72 11.0996V16.4996" stroke="#0F215C" stroke-width="1.5" stroke-linecap="round" stroke-linejoin="round"/>
<path d="M8.72 11.0996V16.4996" stroke="black" stroke-width="1.5" stroke-linecap="round" stroke-linejoin="round"/>
<path d="M12.319 16.5006V13.3506C12.319 12.1076 13.326 11.1006 14.569 11.1006V11.1006C15.812 11.1006 16.819 12.1076 16.819 13.3506V16.5006" stroke="#222222" stroke-width="1.5" stroke-linecap="round" stroke-linejoin="round"/>
<path d="M8.71801 7.83848C8.59401 7.83848 8.49301 7.93948 8.49401 8.06348C8.49401 8.18748 8.59501 8.28848 8.71901 8.28848C8.84301 8.28848 8.94401 8.18748 8.94401 8.06348C8.94401 7.93848 8.84301 7.83848 8.71801 7.83848" stroke="#040E2C" stroke-width="1.5" stroke-linecap="round" stroke-linejoin="round"/>
<path d="M8.71801 7.83848C8.59401 7.83848 8.49301 7.93948 8.49401 8.06348C8.49401 8.18748 8.59501 8.28848 8.71901 8.28848C8.84301 8.28848 8.94401 8.18748 8.94401 8.06348C8.94401 7.93848 8.84301 7.83848 8.71801 7.83848" stroke="#0F215C" stroke-width="1.5" stroke-linecap="round" stroke-linejoin="round"/>
<path d="M8.71801 7.83848C8.59401 7.83848 8.49301 7.93948 8.49401 8.06348C8.49401 8.18748 8.59501 8.28848 8.71901 8.28848C8.84301 8.28848 8.94401 8.18748 8.94401 8.06348C8.94401 7.93848 8.84301 7.83848 8.71801 7.83848" stroke="black" stroke-width="1.5" stroke-linecap="round" stroke-linejoin="round"/>
</svg>
