<svg width="16" height="16" viewBox="0 0 16 16" fill="none" xmlns="http://www.w3.org/2000/svg">
<path d="M7.21958 8.73271C7.01156 8.5511 6.6957 8.57251 6.51409 8.78054C6.33248 8.98856 6.35389 9.30441 6.56191 9.48602L7.21958 8.73271ZM11.3301 9.10937L11.659 9.48602C11.6675 9.4786 11.6757 9.4709 11.6837 9.46292L11.3301 9.10937ZM7.65027 3.20337C7.45295 3.39656 7.4496 3.71312 7.64279 3.91044C7.83597 4.10776 8.15253 4.11111 8.34985 3.91793L7.65027 3.20337ZM8.78054 7.26737C8.98856 7.44898 9.30441 7.42757 9.48602 7.21955C9.66763 7.01153 9.64622 6.69567 9.4382 6.51406L8.78054 7.26737ZM4.66997 6.89072L4.34113 6.51406C4.33263 6.52148 4.32439 6.52919 4.31641 6.53717L4.66997 6.89072ZM8.34984 12.7967C8.54716 12.6036 8.55051 12.287 8.35733 12.0897C8.16415 11.8924 7.84758 11.889 7.65026 12.0822L8.34984 12.7967ZM6.56191 9.48602C8.02188 10.7606 10.199 10.7606 11.659 9.48602L11.0013 8.73271C9.9181 9.6784 8.30279 9.6784 7.21958 8.73271L6.56191 9.48602ZM11.6837 9.46292L12.793 8.35361L12.0859 7.6465L10.9766 8.75582L11.6837 9.46292ZM12.7967 8.34984C14.1923 6.92438 14.1802 4.64109 12.7696 3.23048L12.0625 3.93759C13.0855 4.96059 13.0943 6.61648 12.0822 7.65026L12.7967 8.34984ZM12.7696 3.23048C11.359 1.81987 9.07574 1.80778 7.65027 3.20337L8.34985 3.91793C9.38363 2.90581 11.0395 2.91458 12.0625 3.93759L12.7696 3.23048ZM9.4382 6.51406C7.97823 5.23945 5.8011 5.23945 4.34113 6.51406L4.9988 7.26737C6.08201 6.32168 7.69732 6.32168 8.78054 7.26737L9.4382 6.51406ZM4.31641 6.53717L3.20709 7.64652L3.91421 8.35361L5.02352 7.24427L4.31641 6.53717ZM3.20337 7.65028C1.80778 9.07574 1.81987 11.359 3.23048 12.7696L3.93759 12.0625C2.91458 11.0395 2.90581 9.38364 3.91793 8.34986L3.20337 7.65028ZM3.23048 12.7696C4.64109 14.1802 6.92438 14.1923 8.34984 12.7967L7.65026 12.0822C6.61648 13.0943 4.96059 13.0855 3.93759 12.0625L3.23048 12.7696Z" fill="white"/>
</svg>
