<svg width="316" height="87" viewBox="0 0 316 87" fill="none" xmlns="http://www.w3.org/2000/svg">
<path d="M81.8026 83.683V84.0879C74.0555 84.1122 66.3084 84.1689 58.5613 84.1122C57.7334 84.0092 56.9745 83.5987 56.4352 82.9621C51.5756 77.3654 46.7888 71.708 41.9777 66.0708L28.9539 50.7952C28.2816 51.35 27.7066 51.8036 27.1558 52.2896C18.9673 59.5089 10.7788 66.7282 2.59024 73.9474C2.02171 74.3885 1.42663 74.7943 0.808365 75.1624L0.808365 16.0365L24.2967 36.5281C24.9325 35.9692 25.4428 35.544 25.9166 35.0904C36.2785 25.3495 46.6444 15.6154 57.0143 5.88796C57.6137 5.3291 58.4479 4.67305 59.1769 4.67305C66.7215 4.6123 74.2661 4.67305 81.8107 4.71759V5.12257C81.4216 5.3728 81.0458 5.64315 80.6849 5.93251C69.1702 16.1162 57.6636 26.308 46.1651 36.5078C42.7472 39.5411 39.3454 42.5824 35.8586 45.6966C36.4539 46.2272 36.8832 46.6443 37.3449 47.025C43.4707 52.1006 49.5993 57.1708 55.7306 62.2357C64.4159 69.3929 73.1065 76.542 81.8026 83.683ZM3.37993 21.7345L2.97496 21.8884L12.3541 48.9607L20.1943 40.6871L3.37993 21.7345Z" fill="url(#paint0_linear_51891_29285)"/>
<path d="M133.092 58.5918C131.78 56.5778 130.269 54.4638 128.56 52.25C126.851 50.0361 125.052 47.8965 123.162 45.8312C121.272 43.7685 119.322 41.8058 117.31 39.9429C115.444 38.195 113.458 36.5806 111.365 35.1116V58.5999H101.836V6.26953H111.365V27.8626C113.026 26.2022 114.762 24.4284 116.573 22.5413C118.385 20.6541 120.184 18.7413 121.972 16.8028C123.759 14.8671 125.457 12.9921 127.066 11.1778C128.675 9.36351 130.136 7.72743 131.448 6.26953H142.832C141.166 8.1837 139.404 10.1721 137.547 12.2348C135.689 14.2974 133.776 16.3736 131.808 18.4632C129.846 20.5529 127.869 22.6344 125.88 24.7079C123.89 26.7813 121.939 28.7387 120.028 30.58C122.293 32.3205 124.449 34.1991 126.483 36.205C128.675 38.3487 130.827 40.6435 132.938 43.0895C135.049 45.5356 137.074 48.0774 139.013 50.7151C140.949 53.3556 142.722 55.9852 144.334 58.604L133.092 58.5918Z" fill="url(#paint1_linear_51891_29285)"/>
<path d="M184.503 38.8025C184.538 41.7031 184.079 44.5885 183.146 47.3352C182.322 49.7635 181.011 51.9984 179.295 53.9039C177.619 55.7252 175.573 57.1667 173.294 58.1318C170.844 59.1587 168.21 59.6728 165.555 59.6423C162.913 59.6745 160.293 59.1603 157.86 58.1318C155.597 57.1588 153.565 55.718 151.899 53.9039C150.177 51.9955 148.854 49.7622 148.007 47.3352C147.042 44.5952 146.565 41.7072 146.598 38.8025C146.557 35.9077 147.029 33.0286 147.991 30.2981C148.848 27.8799 150.184 25.6596 151.919 23.77C153.603 21.9627 155.655 20.5376 157.937 19.5907C160.353 18.5874 162.947 18.0859 165.563 18.1166C168.19 18.0888 170.795 18.5901 173.225 19.5907C175.508 20.5308 177.557 21.9617 179.226 23.7821C180.939 25.6812 182.26 27.8996 183.114 30.3102C184.074 33.0371 184.544 35.912 184.503 38.8025ZM175.144 38.8025C175.144 34.8797 174.301 31.7749 172.613 29.4882C170.926 27.2014 168.573 26.0567 165.555 26.054C162.533 26.054 160.181 27.1987 158.496 29.4882C156.811 31.7776 155.967 34.8824 155.965 38.8025C155.965 42.7793 156.808 45.9259 158.496 48.2424C160.183 50.5588 162.536 51.7157 165.555 51.713C168.576 51.713 170.928 50.5561 172.613 48.2424C174.298 45.9286 175.142 42.782 175.144 38.8025Z" fill="url(#paint2_linear_51891_29285)"/>
<path d="M227.313 57.3804C225.069 58.0295 222.786 58.5327 220.477 58.8869C217.62 59.3497 214.73 59.5773 211.835 59.5672C208.976 59.6133 206.133 59.1271 203.452 58.1336C201.078 57.2364 198.927 55.8323 197.151 54.0191C195.373 52.167 194.009 49.9584 193.15 47.5396C192.182 44.7838 191.709 41.8787 191.753 38.9582C191.716 36.0809 192.111 33.2144 192.923 30.4538C193.618 28.0696 194.786 25.8495 196.357 23.9257C197.849 22.1247 199.735 20.6906 201.869 19.7343C204.227 18.7145 206.776 18.2132 209.345 18.2642C211.055 18.2352 212.76 18.4632 214.403 18.9405C215.703 19.3316 216.966 19.8371 218.177 20.4511V1.51054L227.313 0V57.3804ZM201.116 38.7517C201.116 42.7771 202.071 45.9346 203.983 48.224C205.894 50.5134 208.536 51.6595 211.908 51.6622C213.157 51.6729 214.405 51.6093 215.646 51.4719C216.496 51.3792 217.341 51.244 218.177 51.0669V28.3885C217.177 27.7395 216.1 27.2197 214.97 26.8415C213.599 26.3564 212.155 26.1125 210.701 26.1207C207.38 26.1207 204.951 27.2532 203.412 29.5184C201.873 31.7835 201.107 34.8545 201.116 38.7315V38.7517Z" fill="url(#paint3_linear_51891_29285)"/>
<path d="M236.749 39.03C236.686 35.9158 237.211 32.8177 238.296 29.8979C239.21 27.4639 240.61 25.2414 242.411 23.3658C244.075 21.6567 246.082 20.3181 248.299 19.4375C250.459 18.5654 252.765 18.1158 255.094 18.1133C260.529 18.1133 264.769 19.7993 267.815 23.1714C270.86 26.5434 272.383 31.5786 272.383 38.2768C272.383 38.779 272.383 39.3459 272.346 39.9736C272.31 40.6013 272.281 41.1885 272.233 41.6745H246.185C246.436 44.8468 247.557 47.3009 249.546 49.0369C251.536 50.7729 254.417 51.6408 258.188 51.6408C260.229 51.6574 262.266 51.4551 264.263 51.0374C265.746 50.741 267.199 50.3113 268.604 49.7537L269.819 57.2254C269.151 57.5499 268.457 57.8208 267.746 58.0353C266.753 58.3407 265.745 58.5921 264.725 58.7886C263.591 59.0154 262.376 59.2044 261.08 59.3556C259.752 59.5092 258.416 59.5849 257.079 59.5823C253.604 59.5823 250.584 59.0667 248.02 58.0353C245.603 57.1065 243.433 55.6335 241.678 53.7305C239.996 51.8594 238.734 49.6501 237.976 47.251C237.137 44.5923 236.723 41.8179 236.749 39.03ZM263.23 34.956C263.237 33.7403 263.06 32.5305 262.704 31.368C262.384 30.2955 261.859 29.2955 261.157 28.4239C260.479 27.5966 259.629 26.9265 258.666 26.4597C257.566 25.9572 256.365 25.7121 255.155 25.7429C253.875 25.7186 252.607 25.9961 251.454 26.5529C250.428 27.0549 249.515 27.7619 248.773 28.6304C248.034 29.5009 247.459 30.4985 247.076 31.5745C246.681 32.6735 246.409 33.8131 246.266 34.9722L263.23 34.956Z" fill="url(#paint4_linear_51891_29285)"/>
<path d="M296.227 31.1821L304.622 19.0938H314.208L300.953 38.0059C303.723 41.4833 306.378 44.993 308.919 48.5352C311.234 51.7319 313.33 55.0819 315.192 58.5623H305.241C304.71 57.511 304.118 56.4914 303.468 55.5088C302.739 54.3992 301.963 53.245 301.139 52.0463C300.316 50.8476 299.454 49.6583 298.555 48.4785C297.651 47.3041 296.776 46.1958 295.931 45.1537C294.072 47.3226 292.337 49.5955 290.735 51.9612C289.043 54.4477 287.64 56.6481 286.528 58.5623H277.213C278.038 56.9141 278.956 55.3145 279.963 53.7714C281.043 52.0949 282.208 50.3805 283.458 48.6283C284.708 46.8761 285.989 45.1213 287.301 43.3637C288.621 41.6142 289.93 39.9498 291.225 38.3704L277.809 19.1018H287.848L296.227 31.1821Z" fill="url(#paint5_linear_51891_29285)"/>
<path d="M281.048 65.3594C283.508 65.3594 285.397 65.8075 286.718 66.7039C288.038 67.6002 288.692 68.9987 288.682 70.8994C288.706 71.7786 288.527 72.6516 288.159 73.4507C287.812 74.152 287.285 74.7487 286.633 75.1799C285.892 75.6592 285.068 75.9944 284.203 76.1681C283.118 76.3923 282.013 76.4996 280.906 76.488H279.347V82.4411H276.273V65.7765C277.056 65.6054 277.851 65.4944 278.651 65.4444C279.523 65.3877 280.322 65.3594 281.048 65.3594ZM281.271 68.02C280.489 68.02 279.845 68.0443 279.343 68.0929V73.8516H280.829C282.311 73.8516 283.451 73.6437 284.247 73.228C285.057 72.823 285.462 72.0131 285.462 70.8751C285.478 70.3926 285.37 69.914 285.146 69.486C284.94 69.1178 284.636 68.8137 284.268 68.6072C283.852 68.3815 283.402 68.2282 282.935 68.1537C282.386 68.0665 281.831 68.0272 281.275 68.0362L281.271 68.02Z" fill="url(#paint6_linear_51891_29285)"/>
<path d="M295.154 69.3596C295.991 69.339 296.826 69.4637 297.62 69.7281C298.237 69.9302 298.794 70.2823 299.24 70.7527C299.647 71.2093 299.938 71.7563 300.091 72.3483C300.27 73.0218 300.358 73.7166 300.35 74.4137V82.1446C299.892 82.2418 299.208 82.3632 298.289 82.5009C297.257 82.6464 296.216 82.7154 295.174 82.7075C294.469 82.7135 293.766 82.6402 293.077 82.4888C292.495 82.3623 291.944 82.1214 291.457 81.7801C291.006 81.4525 290.645 81.0165 290.408 80.5125C290.136 79.9073 290.006 79.248 290.027 78.5849C290.005 77.9397 290.153 77.3001 290.456 76.7301C290.736 76.2358 291.134 75.8184 291.615 75.5152C292.133 75.1831 292.708 74.951 293.312 74.8308C293.977 74.69 294.656 74.6208 295.336 74.6242C295.679 74.6254 296.021 74.6456 296.361 74.685C296.747 74.7309 297.13 74.7998 297.507 74.8915V74.4056C297.509 74.075 297.468 73.7457 297.386 73.4255C297.308 73.1169 297.157 72.8316 296.946 72.594C296.734 72.3563 296.468 72.1734 296.171 72.0608C295.768 71.9195 295.342 71.8536 294.915 71.8664C294.286 71.8623 293.657 71.9111 293.036 72.0122C292.564 72.0853 292.099 72.1991 291.647 72.3524L291.283 69.963C291.812 69.789 292.353 69.6537 292.903 69.5581C293.646 69.4261 294.399 69.3597 295.154 69.3596ZM295.401 80.3627C296.095 80.3794 296.79 80.3306 297.475 80.2169V76.9447C297.242 76.8815 297.005 76.8328 296.766 76.7989C296.427 76.748 296.084 76.7236 295.741 76.726C295.411 76.7264 295.08 76.7508 294.753 76.7989C294.44 76.842 294.136 76.9321 293.85 77.0662C293.59 77.1894 293.368 77.3795 293.206 77.617C293.032 77.8806 292.946 78.1924 292.959 78.5079C292.929 78.7866 292.975 79.0682 293.091 79.3232C293.207 79.5783 293.389 79.7974 293.619 79.9577C294.165 80.2525 294.781 80.3925 295.401 80.3627Z" fill="url(#paint7_linear_51891_29285)"/>
<path d="M314.042 69.6816C312.847 74.1813 311.316 78.5849 309.461 82.8554C309.179 83.5074 308.844 84.1358 308.461 84.7344C308.147 85.222 307.759 85.6578 307.311 86.0263C306.894 86.3667 306.414 86.6201 305.898 86.7714C304.863 87.0474 303.778 87.0765 302.731 86.8565C302.382 86.7902 302.043 86.6842 301.718 86.5406L302.257 84.1715C302.81 84.3952 303.401 84.512 303.998 84.5157C304.644 84.5527 305.282 84.3574 305.796 83.965C306.302 83.4946 306.693 82.914 306.938 82.2682C306.007 80.4809 305.112 78.5303 304.253 76.4163C303.367 74.2148 302.602 71.9665 301.961 69.6816H305.112C305.274 70.362 305.474 71.1017 305.711 71.9009C305.946 72.7108 306.205 73.5208 306.481 74.3307C306.756 75.1407 307.052 75.9708 307.364 76.7848C307.675 77.5988 307.983 78.3561 308.295 79.0527C308.813 77.6083 309.299 76.0667 309.753 74.4279C310.206 72.7891 310.62 71.2084 310.992 69.6857L314.042 69.6816Z" fill="url(#paint8_linear_51891_29285)"/>
<defs>
<linearGradient id="paint0_linear_51891_29285" x1="41.3095" y1="4.64746" x2="41.3095" y2="84.1366" gradientUnits="userSpaceOnUse">
<stop stop-color="#0D1C4E"/>
<stop offset="1" stop-color="#000406"/>
</linearGradient>
<linearGradient id="paint1_linear_51891_29285" x1="123.085" y1="6.26953" x2="123.085" y2="58.604" gradientUnits="userSpaceOnUse">
<stop stop-color="#0D1C4E"/>
<stop offset="1" stop-color="#000406"/>
</linearGradient>
<linearGradient id="paint2_linear_51891_29285" x1="165.55" y1="18.1152" x2="165.55" y2="59.6437" gradientUnits="userSpaceOnUse">
<stop stop-color="#0D1C4E"/>
<stop offset="1" stop-color="#000406"/>
</linearGradient>
<linearGradient id="paint3_linear_51891_29285" x1="209.531" y1="0" x2="209.531" y2="59.5702" gradientUnits="userSpaceOnUse">
<stop stop-color="#0D1C4E"/>
<stop offset="1" stop-color="#000406"/>
</linearGradient>
<linearGradient id="paint4_linear_51891_29285" x1="254.563" y1="18.1133" x2="254.563" y2="59.5824" gradientUnits="userSpaceOnUse">
<stop stop-color="#0D1C4E"/>
<stop offset="1" stop-color="#000406"/>
</linearGradient>
<linearGradient id="paint5_linear_51891_29285" x1="296.203" y1="19.0937" x2="296.203" y2="58.5623" gradientUnits="userSpaceOnUse">
<stop stop-color="#0D1C4E"/>
<stop offset="1" stop-color="#000406"/>
</linearGradient>
<linearGradient id="paint6_linear_51891_29285" x1="282.479" y1="65.3594" x2="282.479" y2="82.4411" gradientUnits="userSpaceOnUse">
<stop stop-color="#0D1C4E"/>
<stop offset="1" stop-color="#000406"/>
</linearGradient>
<linearGradient id="paint7_linear_51891_29285" x1="295.188" y1="69.3574" x2="295.188" y2="82.7081" gradientUnits="userSpaceOnUse">
<stop stop-color="#0D1C4E"/>
<stop offset="1" stop-color="#000406"/>
</linearGradient>
<linearGradient id="paint8_linear_51891_29285" x1="307.88" y1="69.6816" x2="307.88" y2="87.0024" gradientUnits="userSpaceOnUse">
<stop stop-color="#0D1C4E"/>
<stop offset="1" stop-color="#000406"/>
</linearGradient>
</defs>
</svg>
