<svg width="26" height="26" viewBox="0 0 26 26" fill="none" xmlns="http://www.w3.org/2000/svg">
<path d="M13.0009 9.99846V8.99805" stroke="white" stroke-width="1.5" stroke-linecap="round" stroke-linejoin="round"/>
<path d="M13.0009 16.001V17.0014" stroke="white" stroke-width="1.5" stroke-linecap="round" stroke-linejoin="round"/>
<path d="M11.2654 15.2871C11.5218 15.7279 11.9915 16.0008 12.5014 16.0051H13.5978C14.3071 16.0045 14.9047 15.4756 14.9913 14.7717C15.0779 14.0678 14.6265 13.4096 13.9386 13.2371L12.0635 12.7661C11.3756 12.5935 10.9241 11.9354 11.0107 11.2315C11.0974 10.5276 11.695 9.99862 12.4042 9.99805H13.5007C14.0095 10.0016 14.4788 10.2732 14.7355 10.7126" stroke="white" stroke-width="1.5" stroke-linecap="round" stroke-linejoin="round"/>
<path d="M13 3.99609C17.9726 3.99609 22.0037 8.02721 22.0037 12.9998C22.0037 17.9725 17.9726 22.0036 13 22.0036C8.02733 22.0036 3.99622 17.9725 3.99622 12.9998C3.99622 8.02721 8.02733 3.99609 13 3.99609" stroke="white" stroke-width="1.5" stroke-linecap="round" stroke-linejoin="round"/>
<path d="M13 3.99609C17.9726 3.99609 22.0037 8.02721 22.0037 12.9998C22.0037 17.9725 17.9726 22.0036 13 22.0036C8.02733 22.0036 3.99622 17.9725 3.99622 12.9998C3.99622 8.02721 8.02733 3.99609 13 3.99609" stroke="white" stroke-width="1.5" stroke-linecap="round" stroke-linejoin="round"/>
</svg>
