<svg width="25" height="24" viewBox="0 0 25 24" fill="none" xmlns="http://www.w3.org/2000/svg">
<g clip-path="url(#clip0_51897_29479)">
<path d="M21.0699 14.3407C20.8799 14.4696 20.6581 14.5457 20.428 14.5609C20.1978 14.5762 19.9677 14.53 19.762 14.4272C19.2789 14.1584 19.0186 13.528 19.0186 12.669V10.0363C19.0186 8.7725 18.5105 7.87331 17.6605 7.6292C16.2241 7.21514 15.1514 8.94863 14.7374 9.60062L12.1969 13.6516V8.70761C12.1686 7.5674 11.7923 6.88451 11.0803 6.68057C10.6098 6.54461 9.90414 6.60023 9.21726 7.63229L3.53718 16.6149C2.78142 15.1904 2.38955 13.6058 2.39552 11.9985C2.39552 6.58478 6.78653 2.18154 12.1969 2.18154C17.6072 2.18154 22.0139 6.58478 22.0139 11.9985V12.0263C22.0139 12.0263 22.0139 12.0448 22.0139 12.0541C22.0672 13.1016 21.7222 13.9359 21.073 14.3407H21.0699ZM24.2063 12.0015V11.949C24.1624 5.35187 18.7928 0 12.1969 0C5.60095 0 0.200012 5.38277 0.200012 11.9985C0.200012 18.6141 5.58213 24 12.1969 24C15.2307 23.9999 18.1491 22.8542 20.3516 20.7988C20.5654 20.6003 20.6912 20.3269 20.7018 20.0377C20.7123 19.7485 20.6068 19.4668 20.4081 19.2538C20.3129 19.1501 20.198 19.066 20.0697 19.0063C19.9415 18.9466 19.8026 18.9125 19.6609 18.9059C19.5192 18.8993 19.3777 18.9203 19.2443 18.9678C19.1109 19.0153 18.9884 19.0884 18.8838 19.1827C17.9355 20.0689 16.8152 20.7571 15.5903 21.2062C14.3653 21.6552 13.0608 21.8557 11.7552 21.7957C10.4496 21.7357 9.16978 21.4163 7.99257 20.8569C6.81535 20.2974 5.76503 19.5093 4.90466 18.54L10.0171 10.4442V14.18C10.0171 15.9753 10.7228 16.5562 11.3155 16.7262C11.9083 16.8961 12.8148 16.7787 13.7651 15.2584L16.5879 10.7563C16.6757 10.611 16.7604 10.4874 16.8357 10.3793V12.669C16.8357 14.3469 17.5194 15.6879 18.7175 16.3492C19.2623 16.6389 19.8762 16.7789 20.4948 16.7544C21.1135 16.73 21.714 16.542 22.2335 16.2101C23.5508 15.3666 24.269 13.8401 24.1937 12.0015H24.2063Z" fill="#17181B"/>
</g>
<defs>
<clipPath id="clip0_51897_29479">
<rect width="24" height="24" fill="white" transform="translate(0.200012)"/>
</clipPath>
</defs>
</svg>
