<svg width="24" height="24" viewBox="0 0 24 24" fill="none" xmlns="http://www.w3.org/2000/svg">
<path d="M21.0037 12C21.0037 16.9726 16.9726 21.0037 12 21.0037" stroke="#040E2C" stroke-width="1.5" stroke-linecap="round" stroke-linejoin="round"/>
<path d="M21.0037 12C21.0037 16.9726 16.9726 21.0037 12 21.0037" stroke="#0F215C" stroke-width="1.5" stroke-linecap="round" stroke-linejoin="round"/>
<path d="M21.0037 12C21.0037 16.9726 16.9726 21.0037 12 21.0037" stroke="black" stroke-width="1.5" stroke-linecap="round" stroke-linejoin="round"/>
<path d="M2.99625 11.9998C2.99625 7.02721 7.02736 2.99609 12 2.99609" stroke="#222222" stroke-width="1.5" stroke-linecap="round" stroke-linejoin="round"/>
<path d="M2.99625 12.0002C2.99639 13.0549 3.18397 14.1011 3.55024 15.0901C3.71775 15.5494 4.19002 15.823 4.6718 15.7398L5.65841 15.5658C6.45581 15.4252 6.99787 14.6773 6.88337 13.8758L6.58642 11.7972C6.52893 11.3948 6.31066 11.0329 5.98154 10.7944C5.65242 10.5558 5.24061 10.461 4.8403 10.5316L3.07898 10.8422" stroke="#222222" stroke-width="1.5" stroke-linecap="round" stroke-linejoin="round"/>
<path d="M21.0037 11.9998C21.0037 7.02721 16.9726 2.99609 12 2.99609" stroke="#222222" stroke-width="1.5" stroke-linecap="round" stroke-linejoin="round"/>
<path d="M21.0038 12.0002C21.0036 13.0549 20.816 14.1011 20.4498 15.0901C20.2823 15.5494 19.81 15.823 19.3282 15.7398L18.3416 15.5658C17.5442 15.4252 17.0021 14.6773 17.1166 13.8758L17.4136 11.7972C17.4711 11.3948 17.6893 11.0329 18.0185 10.7944C18.3476 10.5558 18.7594 10.461 19.1597 10.5316L20.921 10.8422" stroke="#222222" stroke-width="1.5" stroke-linecap="round" stroke-linejoin="round"/>
<path d="M13.4932 12.4918C13.4901 12.4918 13.4874 12.4936 13.4863 12.4964C13.4851 12.4992 13.4857 12.5024 13.4879 12.5045C13.49 12.5067 13.4932 12.5073 13.496 12.5061C13.4988 12.505 13.5006 12.5023 13.5006 12.4992C13.5007 12.4972 13.5 12.4953 13.4986 12.4938C13.4971 12.4924 13.4952 12.4916 13.4932 12.4918" stroke="#222222" stroke-width="1.5" stroke-linecap="round" stroke-linejoin="round"/>
<path d="M10.5068 12.4947C10.5038 12.4947 10.5011 12.4965 10.4999 12.4993C10.4988 12.5021 10.4994 12.5053 10.5015 12.5075C10.5037 12.5096 10.5069 12.5102 10.5097 12.5091C10.5125 12.5079 10.5143 12.5052 10.5143 12.5022C10.5144 12.5001 10.5137 12.4982 10.5123 12.4967C10.5108 12.4953 10.5088 12.4946 10.5068 12.4947" stroke="#222222" stroke-width="1.5" stroke-linecap="round" stroke-linejoin="round"/>
</svg>
