<svg width="56" height="56" viewBox="0 0 56 56" fill="none" xmlns="http://www.w3.org/2000/svg">
<rect width="56" height="56" rx="8" fill="white"/>
<g clip-path="url(#clip0_52366_55086)">
<path d="M8 8H48V48H8V8Z" fill="#26A17B"/>
<path d="M30.1428 29.515C30.0243 29.515 29.5143 29.5636 28.0236 29.5636C26.8286 29.5636 26.1528 29.5279 25.8571 29.515C21.255 29.3107 17.6478 28.5036 17.6478 27.5279C17.6478 26.5521 21.255 25.7329 25.8571 25.5279V28.7086H30.1428V25.5286C34.7328 25.7329 38.34 26.5521 38.34 27.5279C38.34 28.4914 34.7328 29.3107 30.1428 29.515ZM30.1428 25.1914V22.2857H36.5714V18H19.4286V22.2857H25.8571V25.1907C20.6514 25.4321 16.5714 26.4921 16.5714 27.7443C16.5714 28.9971 20.6514 30.0571 25.8571 30.2986V39.4286H30.1428V30.2986C35.3486 30.0571 39.4286 28.9971 39.4286 27.7443C39.4286 26.4921 35.3486 25.4443 30.1428 25.1907V25.1914Z" fill="white"/>
</g>
<defs>
<clipPath id="clip0_52366_55086">
<rect x="8" y="8" width="40" height="40" rx="20" fill="white"/>
</clipPath>
</defs>
</svg>
