<svg width="33" height="33" viewBox="0 0 33 33" fill="none" xmlns="http://www.w3.org/2000/svg">
<g clip-path="url(#clip0_52178_31268)">
<path d="M0.862305 0.430664H32.8623V32.4307H0.862305V0.430664Z" fill="#26A17B"/>
<path d="M18.5769 17.6427C18.482 17.6427 18.074 17.6815 16.8814 17.6815C15.9254 17.6815 15.3849 17.6529 15.1483 17.6427C11.4666 17.4792 8.58087 16.8335 8.58087 16.0529C8.58087 15.2724 11.4666 14.6169 15.1483 14.4529V16.9975H18.5769V14.4535C22.2489 14.6169 25.1346 15.2724 25.1346 16.0529C25.1346 16.8238 22.2489 17.4792 18.5769 17.6427ZM18.5769 14.1838V11.8592H23.7197V8.43066H10.0054V11.8592H15.1483V14.1832C10.9837 14.3764 7.71973 15.2244 7.71973 16.2261C7.71973 17.2284 10.9837 18.0764 15.1483 18.2695V25.5735H18.5769V18.2695C22.7414 18.0764 26.0054 17.2284 26.0054 16.2261C26.0054 15.2244 22.7414 14.3861 18.5769 14.1832V14.1838Z" fill="white"/>
</g>
<defs>
<clipPath id="clip0_52178_31268">
<rect x="0.862305" y="0.430664" width="32" height="32" rx="16" fill="white"/>
</clipPath>
</defs>
</svg>
