<svg width="40" height="41" viewBox="0 0 40 41" fill="none" xmlns="http://www.w3.org/2000/svg">
<rect y="0.282227" width="40" height="40" rx="8" fill="#F6F8FA"/>
<g clip-path="url(#clip0_52349_38030)">
<path d="M20 32.2822C26.6274 32.2822 32 26.9096 32 20.2822C32 13.6548 26.6274 8.28223 20 8.28223C13.3726 8.28223 8 13.6548 8 20.2822C8 26.9096 13.3726 32.2822 20 32.2822Z" fill="#26A17B"/>
<path fill-rule="evenodd" clip-rule="evenodd" d="M21.4415 21.32V21.3185C21.359 21.3245 20.9337 21.35 19.985 21.35C19.2275 21.35 18.6942 21.3275 18.5067 21.3185V21.3207C15.5907 21.1925 13.4142 20.6847 13.4142 20.0772C13.4142 19.4705 15.5907 18.9627 18.5067 18.8322V20.8152C18.6972 20.8287 19.2432 20.861 19.9977 20.861C20.903 20.861 21.3567 20.8235 21.4415 20.816V18.8337C24.3515 18.9635 26.5227 19.4712 26.5227 20.0772C26.5227 20.6847 24.3515 21.191 21.4415 21.32ZM21.4415 18.6275V16.853H25.502V14.147H14.4462V16.853H18.5067V18.6267C15.2067 18.7782 12.725 19.4322 12.725 20.2152C12.725 20.9982 15.2067 21.6515 18.5067 21.8037V27.4902H21.4415V21.8022C24.7362 21.6507 27.212 20.9975 27.212 20.2152C27.212 19.433 24.7362 18.7797 21.4415 18.6275Z" fill="white"/>
</g>
<defs>
<clipPath id="clip0_52349_38030">
<rect width="24" height="24" fill="white" transform="translate(8 8.28223)"/>
</clipPath>
</defs>
</svg>
