<svg width="24" height="24" viewBox="0 0 24 24" fill="none" xmlns="http://www.w3.org/2000/svg">
<path d="M21.0037 9.49887V6.49762C21.0037 5.11634 19.884 3.99658 18.5027 3.99658H5.49726C4.11597 3.99658 2.99622 5.11634 2.99622 6.49762V7.99825" stroke="#040E2C" stroke-width="1.5" stroke-linecap="round" stroke-linejoin="round"/>
<path d="M21.0037 9.49887V6.49762C21.0037 5.11634 19.884 3.99658 18.5027 3.99658H5.49726C4.11597 3.99658 2.99622 5.11634 2.99622 6.49762V7.99825" stroke="#0F215C" stroke-width="1.5" stroke-linecap="round" stroke-linejoin="round"/>
<path d="M21.0037 14.501V17.5022C21.0037 18.8835 19.8839 20.0033 18.5027 20.0033H13.0004" stroke="#040E2C" stroke-width="1.5" stroke-linecap="round" stroke-linejoin="round"/>
<path d="M21.0037 14.501V17.5022C21.0037 18.8835 19.8839 20.0033 18.5027 20.0033H13.0004" stroke="#0F215C" stroke-width="1.5" stroke-linecap="round" stroke-linejoin="round"/>
<path d="M1.99585 12.6006V19.4034C1.99699 20.2872 3.78746 21.0041 5.99752 21.0041C8.20758 21.0041 9.99804 20.2872 9.99918 19.4034V12.6006" stroke="#040E2C" stroke-width="1.5" stroke-linecap="round" stroke-linejoin="round"/>
<path d="M1.99585 12.6006V19.4034C1.99699 20.2872 3.78746 21.0041 5.99752 21.0041C8.20758 21.0041 9.99804 20.2872 9.99918 19.4034V12.6006" stroke="#0F215C" stroke-width="1.5" stroke-linecap="round" stroke-linejoin="round"/>
<path d="M9.99804 12.6002C9.99804 13.484 8.20644 14.2008 5.99638 14.2008C3.78632 14.2008 1.99585 13.484 1.99585 12.6002C1.99585 11.7152 3.7886 10.9995 5.99752 10.9995C8.20644 10.9995 9.99804 11.7164 9.99918 12.6002" stroke="#040E2C" stroke-width="1.5" stroke-linecap="round" stroke-linejoin="round"/>
<path d="M9.99804 12.6002C9.99804 13.484 8.20644 14.2008 5.99638 14.2008C3.78632 14.2008 1.99585 13.484 1.99585 12.6002C1.99585 11.7152 3.7886 10.9995 5.99752 10.9995C8.20644 10.9995 9.99804 11.7164 9.99918 12.6002" stroke="#0F215C" stroke-width="1.5" stroke-linecap="round" stroke-linejoin="round"/>
<path d="M1.99634 16.002C1.99634 16.8858 3.7868 17.6026 5.99686 17.6026C8.20692 17.6026 9.99853 16.8858 9.99853 16.002" stroke="#040E2C" stroke-width="1.5" stroke-linecap="round" stroke-linejoin="round"/>
<path d="M1.99634 16.002C1.99634 16.8858 3.7868 17.6026 5.99686 17.6026C8.20692 17.6026 9.99853 16.8858 9.99853 16.002" stroke="#0F215C" stroke-width="1.5" stroke-linecap="round" stroke-linejoin="round"/>
<path fill-rule="evenodd" clip-rule="evenodd" d="M18.5028 9.49902H21.0038C21.5563 9.49902 22.0042 9.94693 22.0042 10.4994V13.5007C22.0042 14.0532 21.5563 14.5011 21.0038 14.5011H18.5028C17.1215 14.5011 16.0017 13.3814 16.0017 12.0001V12.0001C16.0017 10.6188 17.1215 9.49902 18.5028 9.49902V9.49902Z" stroke="#040E2C" stroke-width="1.5" stroke-linecap="round" stroke-linejoin="round"/>
<path fill-rule="evenodd" clip-rule="evenodd" d="M18.5028 9.49902H21.0038C21.5563 9.49902 22.0042 9.94693 22.0042 10.4994V13.5007C22.0042 14.0532 21.5563 14.5011 21.0038 14.5011H18.5028C17.1215 14.5011 16.0017 13.3814 16.0017 12.0001V12.0001C16.0017 10.6188 17.1215 9.49902 18.5028 9.49902V9.49902Z" stroke="#0F215C" stroke-width="1.5" stroke-linecap="round" stroke-linejoin="round"/>
</svg>
