<svg width="50" height="50" viewBox="0 0 50 50" fill="none" xmlns="http://www.w3.org/2000/svg">
<path fill-rule="evenodd" clip-rule="evenodd" d="M41.6486 32.1452H37.5653C35.3093 32.1452 33.482 30.3179 33.482 28.0618V28.0618C33.482 25.8058 35.3093 23.9785 37.5653 23.9785H41.6486C42.7756 23.9785 43.6903 24.8932 43.6903 26.0202V30.1035C43.6903 31.2305 42.7756 32.1452 41.6486 32.1452Z" stroke="#194EF0" stroke-width="3.0625" stroke-linecap="round" stroke-linejoin="round"/>
<path fill-rule="evenodd" clip-rule="evenodd" d="M41.6486 32.1452H37.5653C35.3093 32.1452 33.482 30.3179 33.482 28.0618V28.0618C33.482 25.8058 35.3093 23.9785 37.5653 23.9785H41.6486C42.7756 23.9785 43.6903 24.8932 43.6903 26.0202V30.1035C43.6903 31.2305 42.7756 32.1452 41.6486 32.1452Z" stroke="#007BD1" stroke-width="3.0625" stroke-linecap="round" stroke-linejoin="round"/>
<path d="M41.6486 23.9798V17.8548C41.6486 15.5988 39.8214 13.7715 37.5653 13.7715H10.0028C8.31231 13.7715 6.94031 12.3995 6.94031 10.709V10.709C6.94031 9.01848 8.31231 7.64648 10.0028 7.64648H35.5236" stroke="#194EF0" stroke-width="3.0625" stroke-linecap="round" stroke-linejoin="round"/>
<path d="M41.6486 23.9798V17.8548C41.6486 15.5988 39.8214 13.7715 37.5653 13.7715H10.0028C8.31231 13.7715 6.94031 12.3995 6.94031 10.709V10.709C6.94031 9.01848 8.31231 7.64648 10.0028 7.64648H35.5236" stroke="#007BD1" stroke-width="3.0625" stroke-linecap="round" stroke-linejoin="round"/>
<path d="M41.6486 32.1465V38.2715C41.6486 40.5275 39.8214 42.3548 37.5653 42.3548H11.0236C8.7676 42.3548 6.94031 40.5275 6.94031 38.2715V10.709" stroke="#194EF0" stroke-width="3.0625" stroke-linecap="round" stroke-linejoin="round"/>
<path d="M41.6486 32.1465V38.2715C41.6486 40.5275 39.8214 42.3548 37.5653 42.3548H11.0236C8.7676 42.3548 6.94031 40.5275 6.94031 38.2715V10.709" stroke="#007BD1" stroke-width="3.0625" stroke-linecap="round" stroke-linejoin="round"/>
</svg>
