<svg width="25" height="26" viewBox="0 0 25 26" fill="none" xmlns="http://www.w3.org/2000/svg">
<path fill-rule="evenodd" clip-rule="evenodd" d="M19.9031 22.0036H4.89688C3.79185 22.0036 2.89604 21.1078 2.89604 20.0028V5.99693C2.89604 4.8919 3.79185 3.99609 4.89688 3.99609H19.9031C21.0082 3.99609 21.904 4.8919 21.904 5.99693V20.0028C21.904 21.1078 21.0082 22.0036 19.9031 22.0036Z" stroke="#040E2C" stroke-width="1.5" stroke-linecap="round" stroke-linejoin="round"/>
<path fill-rule="evenodd" clip-rule="evenodd" d="M19.9031 22.0036H4.89688C3.79185 22.0036 2.89604 21.1078 2.89604 20.0028V5.99693C2.89604 4.8919 3.79185 3.99609 4.89688 3.99609H19.9031C21.0082 3.99609 21.904 4.8919 21.904 5.99693V20.0028C21.904 21.1078 21.0082 22.0036 19.9031 22.0036Z" stroke="#0F215C" stroke-width="1.5" stroke-linecap="round" stroke-linejoin="round"/>
<path fill-rule="evenodd" clip-rule="evenodd" d="M19.9031 22.0036H4.89688C3.79185 22.0036 2.89604 21.1078 2.89604 20.0028V5.99693C2.89604 4.8919 3.79185 3.99609 4.89688 3.99609H19.9031C21.0082 3.99609 21.904 4.8919 21.904 5.99693V20.0028C21.904 21.1078 21.0082 22.0036 19.9031 22.0036Z" stroke="black" stroke-width="1.5" stroke-linecap="round" stroke-linejoin="round"/>
<path d="M2.89604 8.99826H21.904" stroke="#040E2C" stroke-width="1.5" stroke-linecap="round" stroke-linejoin="round"/>
<path d="M2.89604 8.99826H21.904" stroke="#0F215C" stroke-width="1.5" stroke-linecap="round" stroke-linejoin="round"/>
<path d="M2.89604 8.99826H21.904" stroke="black" stroke-width="1.5" stroke-linecap="round" stroke-linejoin="round"/>
<path fill-rule="evenodd" clip-rule="evenodd" d="M6.40339 15.5135C6.40096 14.409 7.29442 13.5107 8.39898 13.5083L16.404 13.4907C17.5085 13.4883 18.4059 14.3826 18.4084 15.4871V15.4871C18.4108 16.5917 17.5173 17.4899 16.4128 17.4924L8.40778 17.51C7.30321 17.5124 6.40582 16.6181 6.40339 15.5135V15.5135Z" stroke="#222222" stroke-width="1.5" stroke-linecap="round" stroke-linejoin="round"/>
<path d="M11.4006 13.502L9.40875 17.5086" stroke="#222222" stroke-width="1.5" stroke-linecap="round" stroke-linejoin="round"/>
<path d="M15.4023 13.4932L13.4104 17.4998" stroke="#222222" stroke-width="1.5" stroke-linecap="round" stroke-linejoin="round"/>
<path d="M11.0374 6.49728C11.0374 6.46965 11.015 6.44726 10.9874 6.44726C10.9742 6.44726 10.9614 6.45253 10.9521 6.46191C10.9427 6.47129 10.9374 6.48401 10.9374 6.49728C10.9374 6.5249 10.9598 6.5473 10.9874 6.5473C11.015 6.5473 11.0374 6.5249 11.0374 6.49728" stroke="#222222" stroke-width="1.5" stroke-linecap="round" stroke-linejoin="round"/>
<path d="M8.49838 6.49728C8.49838 6.48401 8.49311 6.47129 8.48373 6.46191C8.47435 6.45253 8.46163 6.44726 8.44836 6.44726C8.42073 6.44726 8.39834 6.46965 8.39834 6.49728C8.39834 6.5249 8.42073 6.5473 8.44836 6.5473C8.47598 6.5473 8.49838 6.5249 8.49838 6.49728" stroke="#222222" stroke-width="1.5" stroke-linecap="round" stroke-linejoin="round"/>
<path d="M5.95231 6.49728C5.95231 6.46965 5.92992 6.44726 5.90229 6.44726C5.87467 6.44726 5.85227 6.46965 5.85227 6.49728C5.85227 6.5249 5.87467 6.5473 5.90229 6.5473C5.92992 6.5473 5.95231 6.5249 5.95231 6.49728" stroke="#222222" stroke-width="1.5" stroke-linecap="round" stroke-linejoin="round"/>
</svg>
