<svg width="30" height="30" viewBox="0 0 30 30" fill="none" xmlns="http://www.w3.org/2000/svg">
<path d="M13.875 8.8125H9.9375C8.69486 8.8125 7.6875 9.81985 7.6875 11.0625V15H13.875V8.8125Z" fill="white"/>
<path d="M7.6875 16.125V20.0625C7.6875 21.3051 8.69486 22.3125 9.9375 22.3125H13.875V16.125H7.6875Z" fill="white"/>
<path d="M15 22.3125V16.125H21.1875V20.0625C21.1875 21.3051 20.1801 22.3125 18.9375 22.3125H15Z" fill="white"/>
<path d="M16.125 7.6875H20.0625C21.3051 7.6875 22.3125 8.69486 22.3125 9.9375V13.875H16.125V7.6875Z" fill="white"/>
<g opacity="0.1">
<path d="M9.9375 10.5C9.9375 9.56802 10.693 8.8125 11.625 8.8125H19.5C20.432 8.8125 21.1875 9.56802 21.1875 10.5V18.375C21.1875 19.307 20.432 20.0625 19.5 20.0625H11.625C10.693 20.0625 9.9375 19.307 9.9375 18.375V10.5Z" fill="#040E2C"/>
<path d="M9.9375 10.5C9.9375 9.56802 10.693 8.8125 11.625 8.8125H19.5C20.432 8.8125 21.1875 9.56802 21.1875 10.5V18.375C21.1875 19.307 20.432 20.0625 19.5 20.0625H11.625C10.693 20.0625 9.9375 19.307 9.9375 18.375V10.5Z" fill="#0F215C"/>
<path d="M9.9375 10.5C9.9375 9.56802 10.693 8.8125 11.625 8.8125H19.5C20.432 8.8125 21.1875 9.56802 21.1875 10.5V18.375C21.1875 19.307 20.432 20.0625 19.5 20.0625H11.625C10.693 20.0625 9.9375 19.307 9.9375 18.375V10.5Z" fill="black"/>
</g>
</svg>
