<svg width="30" height="30" viewBox="0 0 30 30" fill="none" xmlns="http://www.w3.org/2000/svg">
<path d="M19.5 12.0607L22.0005 10.3185C22.3743 10.058 22.875 10.3381 22.875 10.8076V19.1924C22.875 19.6619 22.3743 19.942 22.0005 19.6815L19.5 17.9393V12.0607Z" fill="white"/>
<path fill-rule="evenodd" clip-rule="evenodd" d="M8.8125 10.5C7.88052 10.5 7.125 11.2555 7.125 12.1875V17.8125C7.125 18.7445 7.88052 19.5 8.8125 19.5H16.6875C17.6195 19.5 18.375 18.7445 18.375 17.8125V12.1875C18.375 11.2555 17.6195 10.5 16.6875 10.5H8.8125ZM15.2812 14.4375C15.7473 14.4375 16.125 14.0598 16.125 13.5938C16.125 13.1277 15.7473 12.75 15.2812 12.75C14.8152 12.75 14.4375 13.1277 14.4375 13.5938C14.4375 14.0598 14.8152 14.4375 15.2812 14.4375Z" fill="white"/>
<g opacity="0.1">
<path d="M10.5 11.625C9.87869 11.625 9.375 12.1287 9.375 12.75V17.25C9.375 17.8713 9.87869 18.375 10.5 18.375H17.25C17.8713 18.375 18.375 17.8713 18.375 17.25V16.0625L21.3237 17.8372C21.5112 17.95 21.75 17.815 21.75 17.5962V12.4038C21.75 12.185 21.5112 12.05 21.3237 12.1628L18.375 13.9375V12.75C18.375 12.1287 17.8713 11.625 17.25 11.625H10.5Z" fill="#040E2C"/>
<path d="M10.5 11.625C9.87869 11.625 9.375 12.1287 9.375 12.75V17.25C9.375 17.8713 9.87869 18.375 10.5 18.375H17.25C17.8713 18.375 18.375 17.8713 18.375 17.25V16.0625L21.3237 17.8372C21.5112 17.95 21.75 17.815 21.75 17.5962V12.4038C21.75 12.185 21.5112 12.05 21.3237 12.1628L18.375 13.9375V12.75C18.375 12.1287 17.8713 11.625 17.25 11.625H10.5Z" fill="#0F215C"/>
<path d="M10.5 11.625C9.87869 11.625 9.375 12.1287 9.375 12.75V17.25C9.375 17.8713 9.87869 18.375 10.5 18.375H17.25C17.8713 18.375 18.375 17.8713 18.375 17.25V16.0625L21.3237 17.8372C21.5112 17.95 21.75 17.815 21.75 17.5962V12.4038C21.75 12.185 21.5112 12.05 21.3237 12.1628L18.375 13.9375V12.75C18.375 12.1287 17.8713 11.625 17.25 11.625H10.5Z" fill="black"/>
</g>
</svg>
