<svg width="30" height="30" viewBox="0 0 30 30" fill="none" xmlns="http://www.w3.org/2000/svg">
<path d="M9.375 15V19.5C9.375 20.7426 10.3824 21.75 11.625 21.75H14.4375V15H9.375Z" fill="white"/>
<path d="M20.625 15V19.5C20.625 20.7426 19.6176 21.75 18.375 21.75H15.5625V15H20.625Z" fill="white"/>
<path d="M15.0234 10.7435L15.1406 10.9206L15.2579 10.7435C15.6881 10.0938 16.3445 9.52434 16.9991 9.11867C17.4609 8.83252 17.9501 8.60948 18.4071 8.48937C18.8502 8.37292 19.3278 8.33635 19.7202 8.50861C20.351 8.78554 20.694 9.34856 20.7553 10.0424C20.7959 10.5014 20.7159 11.021 20.5264 11.5797L20.4633 11.7656H20.6595H21.1875C22.0418 11.7656 22.7344 12.4581 22.7344 13.3124V13.7343H7.26562V13.3124C7.26562 12.4581 7.95818 11.7656 8.8125 11.7656H9.62171H9.81791L9.75488 11.5797C9.56532 11.021 9.48536 10.5014 9.52592 10.0424C9.58726 9.34856 9.93022 8.78554 10.561 8.50861C10.9534 8.33635 11.431 8.37292 11.8741 8.48937C12.3311 8.60948 12.8204 8.83252 13.2821 9.11867C13.9367 9.52434 14.5931 10.0938 15.0234 10.7435ZM10.6962 11.6798L10.7325 11.7656H10.8257H14.3912H14.6098L14.5192 11.5666C14.2366 10.9467 13.5905 10.3052 12.8389 9.83943C12.4318 9.58712 12.0196 9.40315 11.6604 9.30877C11.2873 9.21069 11.0342 9.22535 10.8991 9.28463C10.7538 9.34845 10.6277 9.44472 10.5339 9.58608C10.4409 9.72625 10.3854 9.90223 10.3664 10.1173C10.3313 10.5139 10.4264 11.0428 10.6962 11.6798ZM15.7621 11.5666L15.6714 11.7656H15.89H19.4556H19.5488L19.5851 11.6798C19.8548 11.0428 19.9499 10.5139 19.9149 10.1173C19.8959 9.90223 19.8403 9.72625 19.7473 9.58608C19.6536 9.44472 19.5275 9.34845 19.3822 9.28466C19.2471 9.22535 18.994 9.21069 18.6208 9.30877C18.2617 9.40315 17.8495 9.58712 17.4423 9.83943C16.6908 10.3052 16.0446 10.9467 15.7621 11.5666Z" fill="white" stroke="white" stroke-width="0.28125"/>
<g opacity="0.1">
<path d="M17.8125 12.75H12.1875C11.2555 12.75 10.5 13.5055 10.5 14.4375V17.8125C10.5 18.7445 11.2555 19.5 12.1875 19.5H17.8125C18.7445 19.5 19.5 18.7445 19.5 17.8125V14.4375C19.5 13.5055 18.7445 12.75 17.8125 12.75Z" fill="#040E2C"/>
<path d="M17.8125 12.75H12.1875C11.2555 12.75 10.5 13.5055 10.5 14.4375V17.8125C10.5 18.7445 11.2555 19.5 12.1875 19.5H17.8125C18.7445 19.5 19.5 18.7445 19.5 17.8125V14.4375C19.5 13.5055 18.7445 12.75 17.8125 12.75Z" fill="#0F215C"/>
<path d="M17.8125 12.75H12.1875C11.2555 12.75 10.5 13.5055 10.5 14.4375V17.8125C10.5 18.7445 11.2555 19.5 12.1875 19.5H17.8125C18.7445 19.5 19.5 18.7445 19.5 17.8125V14.4375C19.5 13.5055 18.7445 12.75 17.8125 12.75Z" fill="black"/>
</g>
</svg>
