<svg width="30" height="30" viewBox="0 0 30 30" fill="none" xmlns="http://www.w3.org/2000/svg">
<path d="M20.9531 17.2178C20.8469 17.2387 20.7373 17.2496 20.6251 17.2496C20.6251 17.2496 17.2077 17.8121 15.0001 17.8121C12.7924 17.8121 9.37506 17.2496 9.37506 17.2496C9.26284 17.2496 9.15321 17.2387 9.04712 17.2178C9.70479 20.1719 11.7348 22.3121 15.0001 22.3121C18.2654 22.3121 20.2954 20.1719 20.9531 17.2178Z" fill="white"/>
<path d="M20.0683 10.5C20.0683 10.5 16.9914 9.9375 15 9.9375C13.0085 9.9375 9.93164 10.5 9.93164 10.5C10.9522 8.78801 12.6585 7.6875 15 7.6875C17.3415 7.6875 19.0478 8.78801 20.0683 10.5Z" fill="white"/>
<path fill-rule="evenodd" clip-rule="evenodd" d="M9.16384 11.4558C8.31852 11.546 7.6875 12.2624 7.6875 13.1126V14.6374C7.6875 15.4876 8.31852 16.204 9.16384 16.2942C10.7151 16.4599 13.1781 16.6875 15 16.6875C16.8219 16.6875 19.2849 16.4599 20.8362 16.2942C21.6815 16.204 22.3125 15.4876 22.3125 14.6374V13.1126C22.3125 12.2624 21.6815 11.546 20.8362 11.4558C19.2849 11.2901 16.8219 11.0625 15 11.0625C13.1781 11.0625 10.7151 11.2901 9.16384 11.4558ZM13.3125 13.875C13.3125 14.4963 12.8088 15 12.1875 15C11.5662 15 11.0625 14.4963 11.0625 13.875C11.0625 13.2537 11.5662 12.75 12.1875 12.75C12.8088 12.75 13.3125 13.2537 13.3125 13.875ZM18.9375 13.875C18.9375 14.4963 18.4338 15 17.8125 15C17.1912 15 16.6875 14.4963 16.6875 13.875C16.6875 13.2537 17.1912 12.75 17.8125 12.75C18.4338 12.75 18.9375 13.2537 18.9375 13.875Z" fill="white"/>
<path d="M10.9374 10.7768C11.8173 9.57024 13.1825 8.8125 15 8.8125C16.8175 8.8125 18.1827 9.57024 19.0627 10.7768C19.4129 10.8258 19.738 10.8746 20.0232 10.9191C20.7004 11.025 21.1875 11.5938 21.1875 12.2571V13.5784C21.1875 14.2541 20.6836 14.8265 19.9991 14.9263C19.4053 17.2619 17.7028 18.9375 15 18.9375C12.2972 18.9375 10.5947 17.2619 10.0009 14.9263C9.31639 14.8265 8.8125 14.2541 8.8125 13.5784V12.2571C8.8125 11.5938 9.29963 11.025 9.97682 10.9191C10.262 10.8746 10.5871 10.8258 10.9374 10.7768Z" fill="url(#paint0_linear_51866_35896)"/>
<defs>
<linearGradient id="paint0_linear_51866_35896" x1="15" y1="8.8125" x2="15" y2="18.9375" gradientUnits="userSpaceOnUse">
<stop stop-color="white" stop-opacity="0.6"/>
<stop offset="1" stop-color="white" stop-opacity="0.1"/>
</linearGradient>
</defs>
</svg>
