<svg width="30" height="30" viewBox="0 0 30 30" fill="none" xmlns="http://www.w3.org/2000/svg">
<path d="M22.3125 14.4375C22.3125 13.864 21.8476 13.399 21.274 13.399H21.1799C20.7534 11.0772 18.9228 9.24664 16.601 8.82015V8.72596C16.601 8.15243 16.136 7.6875 15.5625 7.6875V12.8209C16.3531 13.0244 16.9756 13.6469 17.1791 14.4375H22.3125Z" fill="white"/>
<path d="M13.399 8.72596C13.399 8.15243 13.864 7.6875 14.4375 7.6875V12.8209C13.6469 13.0244 13.0244 13.6469 12.8209 14.4375H7.6875C7.6875 13.864 8.15243 13.399 8.72596 13.399H8.82015C9.24664 11.0772 11.0772 9.24664 13.399 8.82015V8.72596Z" fill="white"/>
<path d="M17.1791 15.5625C16.9756 16.3531 16.3531 16.9756 15.5625 17.1791V22.3125C16.136 22.3125 16.601 21.8476 16.601 21.274V21.1799C18.9228 20.7534 20.7534 18.9228 21.1799 16.601H21.274C21.8476 16.601 22.3125 16.136 22.3125 15.5625H17.1791Z" fill="white"/>
<path d="M14.4375 17.1791C13.6469 16.9756 13.0244 16.3531 12.8209 15.5625H7.6875C7.6875 16.136 8.15243 16.601 8.72596 16.601H8.82015C9.24664 18.9228 11.0772 20.7534 13.399 21.1799V21.274C13.399 21.8476 13.864 22.3125 14.4375 22.3125V17.1791Z" fill="white"/>
<path d="M15 16.125C15.6213 16.125 16.125 15.6213 16.125 15C16.125 14.3787 15.6213 13.875 15 13.875C14.3787 13.875 13.875 14.3787 13.875 15C13.875 15.6213 14.3787 16.125 15 16.125Z" fill="white"/>
<g opacity="0.1">
<path d="M11.0625 14.4375C11.0625 11.9522 13.0772 9.9375 15.5625 9.9375C18.0478 9.9375 20.0625 11.9522 20.0625 14.4375C20.0625 16.9228 18.0478 18.9375 15.5625 18.9375C13.0772 18.9375 11.0625 16.9228 11.0625 14.4375Z" fill="#040E2C"/>
<path d="M11.0625 14.4375C11.0625 11.9522 13.0772 9.9375 15.5625 9.9375C18.0478 9.9375 20.0625 11.9522 20.0625 14.4375C20.0625 16.9228 18.0478 18.9375 15.5625 18.9375C13.0772 18.9375 11.0625 16.9228 11.0625 14.4375Z" fill="#0F215C"/>
<path d="M11.0625 14.4375C11.0625 11.9522 13.0772 9.9375 15.5625 9.9375C18.0478 9.9375 20.0625 11.9522 20.0625 14.4375C20.0625 16.9228 18.0478 18.9375 15.5625 18.9375C13.0772 18.9375 11.0625 16.9228 11.0625 14.4375Z" fill="black"/>
</g>
</svg>
