<svg width="30" height="30" viewBox="0 0 30 30" fill="none" xmlns="http://www.w3.org/2000/svg">
<path d="M7.6875 18.9375V12.1875H20.0625C21.3051 12.1875 22.3125 13.1949 22.3125 14.4375H19.2188C18.9234 14.4375 18.3911 14.553 17.9197 14.8713C17.4178 15.21 16.9688 15.794 16.9688 16.6875C16.9688 17.581 17.4178 18.165 17.9197 18.5037C18.3911 18.822 18.9234 18.9375 19.2188 18.9375H22.3125C22.3125 20.1801 21.3051 21.1875 20.0625 21.1875H9.9375C8.69486 21.1875 7.6875 20.1801 7.6875 18.9375Z" fill="#0F215C"/>
<path fill-rule="evenodd" clip-rule="evenodd" d="M19.2188 15.5625H22.3125V17.8125H19.2188C19.1391 17.8125 18.8276 17.7593 18.5491 17.5713C18.3009 17.4037 18.0938 17.144 18.0938 16.6875C18.0938 16.231 18.3009 15.9713 18.5491 15.8037C18.8276 15.6157 19.1391 15.5625 19.2188 15.5625ZM19.2188 17.25C19.5294 17.25 19.7812 16.9982 19.7812 16.6875C19.7812 16.3768 19.5294 16.125 19.2188 16.125C18.9081 16.125 18.6562 16.3768 18.6562 16.6875C18.6562 16.9982 18.9081 17.25 19.2188 17.25Z" fill="#0F215C"/>
<path d="M9.9375 8.8125H17.8125C19.0551 8.8125 20.0625 9.81985 20.0625 11.0625H7.6875C7.6875 9.81985 8.69486 8.8125 9.9375 8.8125Z" fill="#0F215C"/>
<g opacity="0.1">
<path d="M8.8125 11.625V17.25C8.8125 18.182 9.56802 18.9375 10.5 18.9375H19.5C20.432 18.9375 21.1875 18.182 21.1875 17.25V13.875C21.1875 12.943 20.432 12.1875 19.5 12.1875H18.9375V11.625C18.9375 10.693 18.182 9.9375 17.25 9.9375H10.5C9.56802 9.9375 8.8125 10.693 8.8125 11.625Z" fill="#040E2C"/>
<path d="M8.8125 11.625V17.25C8.8125 18.182 9.56802 18.9375 10.5 18.9375H19.5C20.432 18.9375 21.1875 18.182 21.1875 17.25V13.875C21.1875 12.943 20.432 12.1875 19.5 12.1875H18.9375V11.625C18.9375 10.693 18.182 9.9375 17.25 9.9375H10.5C9.56802 9.9375 8.8125 10.693 8.8125 11.625Z" fill="#0F215C"/>
<path d="M8.8125 11.625V17.25C8.8125 18.182 9.56802 18.9375 10.5 18.9375H19.5C20.432 18.9375 21.1875 18.182 21.1875 17.25V13.875C21.1875 12.943 20.432 12.1875 19.5 12.1875H18.9375V11.625C18.9375 10.693 18.182 9.9375 17.25 9.9375H10.5C9.56802 9.9375 8.8125 10.693 8.8125 11.625Z" fill="black"/>
</g>
</svg>
