<svg width="30" height="30" viewBox="0 0 30 30" fill="none" xmlns="http://www.w3.org/2000/svg">
<path d="M13.0312 9.9375H16.9688V21.1875C16.9688 21.8088 16.4651 22.3125 15.8438 22.3125H14.1562C13.5349 22.3125 13.0312 21.8088 13.0312 21.1875V9.9375Z" fill="#0F215C"/>
<path d="M18.375 15.5625H22.3125V21.1875C22.3125 21.8088 21.8088 22.3125 21.1875 22.3125H19.5C18.8787 22.3125 18.375 21.8088 18.375 21.1875V15.5625Z" fill="#0F215C"/>
<path d="M11.625 18.375H7.6875V21.1875C7.6875 21.8088 8.19118 22.3125 8.8125 22.3125H10.5C11.1213 22.3125 11.625 21.8088 11.625 21.1875V18.375Z" fill="#0F215C"/>
<path d="M13.0312 8.8125C13.0312 8.19118 13.5349 7.6875 14.1562 7.6875H15.8438C16.4651 7.6875 16.9688 8.19118 16.9688 8.8125H13.0312Z" fill="#0F215C"/>
<path d="M18.375 14.4375C18.375 13.8162 18.8787 13.3125 19.5 13.3125H21.1875C21.8088 13.3125 22.3125 13.8162 22.3125 14.4375H18.375Z" fill="#0F215C"/>
<path d="M7.6875 17.25C7.6875 16.6287 8.19118 16.125 8.8125 16.125H10.5C11.1213 16.125 11.625 16.6287 11.625 17.25H7.6875Z" fill="#0F215C"/>
<g opacity="0.1">
<path d="M19.5 15C19.5 14.6893 19.7518 14.4375 20.0625 14.4375H20.625C20.9357 14.4375 21.1875 14.6893 21.1875 15V19.5C21.1875 19.8107 20.9357 20.0625 20.625 20.0625H20.0625C19.7518 20.0625 19.5 19.8107 19.5 19.5V15Z" fill="#040E2C"/>
<path d="M19.5 15C19.5 14.6893 19.7518 14.4375 20.0625 14.4375H20.625C20.9357 14.4375 21.1875 14.6893 21.1875 15V19.5C21.1875 19.8107 20.9357 20.0625 20.625 20.0625H20.0625C19.7518 20.0625 19.5 19.8107 19.5 19.5V15Z" fill="#0F215C"/>
<path d="M19.5 15C19.5 14.6893 19.7518 14.4375 20.0625 14.4375H20.625C20.9357 14.4375 21.1875 14.6893 21.1875 15V19.5C21.1875 19.8107 20.9357 20.0625 20.625 20.0625H20.0625C19.7518 20.0625 19.5 19.8107 19.5 19.5V15Z" fill="black"/>
</g>
<g opacity="0.1">
<path d="M8.8125 17.8125C8.8125 17.5018 9.06433 17.25 9.375 17.25H9.9375C10.2482 17.25 10.5 17.5018 10.5 17.8125V19.5C10.5 19.8107 10.2482 20.0625 9.9375 20.0625H9.375C9.06433 20.0625 8.8125 19.8107 8.8125 19.5V17.8125Z" fill="#040E2C"/>
<path d="M8.8125 17.8125C8.8125 17.5018 9.06433 17.25 9.375 17.25H9.9375C10.2482 17.25 10.5 17.5018 10.5 17.8125V19.5C10.5 19.8107 10.2482 20.0625 9.9375 20.0625H9.375C9.06433 20.0625 8.8125 19.8107 8.8125 19.5V17.8125Z" fill="#0F215C"/>
<path d="M8.8125 17.8125C8.8125 17.5018 9.06433 17.25 9.375 17.25H9.9375C10.2482 17.25 10.5 17.5018 10.5 17.8125V19.5C10.5 19.8107 10.2482 20.0625 9.9375 20.0625H9.375C9.06433 20.0625 8.8125 19.8107 8.8125 19.5V17.8125Z" fill="black"/>
</g>
<g opacity="0.1">
<path d="M14.1562 9.375C14.1562 9.06433 14.4081 8.8125 14.7188 8.8125H15.2812C15.5919 8.8125 15.8438 9.06433 15.8438 9.375V19.5C15.8438 19.8107 15.5919 20.0625 15.2812 20.0625H14.7188C14.4081 20.0625 14.1562 19.8107 14.1562 19.5V9.375Z" fill="#040E2C"/>
<path d="M14.1562 9.375C14.1562 9.06433 14.4081 8.8125 14.7188 8.8125H15.2812C15.5919 8.8125 15.8438 9.06433 15.8438 9.375V19.5C15.8438 19.8107 15.5919 20.0625 15.2812 20.0625H14.7188C14.4081 20.0625 14.1562 19.8107 14.1562 19.5V9.375Z" fill="#0F215C"/>
<path d="M14.1562 9.375C14.1562 9.06433 14.4081 8.8125 14.7188 8.8125H15.2812C15.5919 8.8125 15.8438 9.06433 15.8438 9.375V19.5C15.8438 19.8107 15.5919 20.0625 15.2812 20.0625H14.7188C14.4081 20.0625 14.1562 19.8107 14.1562 19.5V9.375Z" fill="black"/>
</g>
</svg>
