<svg width="18" height="18" viewBox="0 0 18 18" fill="none" xmlns="http://www.w3.org/2000/svg">
<path d="M3.375 4.21875H11.25V15.4688H3.375C2.13236 15.4688 1.125 14.4614 1.125 13.2188V6.46875C1.125 5.2261 2.13236 4.21875 3.375 4.21875Z" fill="url(#paint0_linear_51442_34080)"/>
<path d="M3.375 4.21875H11.25V15.4688H3.375C2.13236 15.4688 1.125 14.4614 1.125 13.2188V6.46875C1.125 5.2261 2.13236 4.21875 3.375 4.21875Z" fill="#132D7C"/>
<path fill-rule="evenodd" clip-rule="evenodd" d="M7.19601 1.85225C7.41567 1.63258 7.77184 1.63258 7.9915 1.85225L10.125 3.98576L12.2585 1.85225C12.4782 1.63258 12.8343 1.63258 13.054 1.85225C13.2737 2.07192 13.2737 2.42808 13.054 2.64775L10.5228 5.17899C10.3031 5.39868 9.94692 5.39868 9.72726 5.17899L7.19601 2.64775C6.97633 2.42808 6.97633 2.07192 7.19601 1.85225Z" fill="url(#paint1_linear_51442_34080)"/>
<path fill-rule="evenodd" clip-rule="evenodd" d="M7.19601 1.85225C7.41567 1.63258 7.77184 1.63258 7.9915 1.85225L10.125 3.98576L12.2585 1.85225C12.4782 1.63258 12.8343 1.63258 13.054 1.85225C13.2737 2.07192 13.2737 2.42808 13.054 2.64775L10.5228 5.17899C10.3031 5.39868 9.94692 5.39868 9.72726 5.17899L7.19601 2.64775C6.97633 2.42808 6.97633 2.07192 7.19601 1.85225Z" fill="#132D7C"/>
<path fill-rule="evenodd" clip-rule="evenodd" d="M12.375 15.4688H14.625C15.8676 15.4688 16.875 14.4614 16.875 13.2188V6.46875C16.875 5.2261 15.8676 4.21875 14.625 4.21875H12.375V15.4688ZM14.9062 14.3438C15.3723 14.3438 15.75 13.966 15.75 13.5C15.75 13.034 15.3723 12.6562 14.9062 12.6562C14.4403 12.6562 14.0625 13.034 14.0625 13.5C14.0625 13.966 14.4403 14.3438 14.9062 14.3438Z" fill="url(#paint2_linear_51442_34080)"/>
<path fill-rule="evenodd" clip-rule="evenodd" d="M12.375 15.4688H14.625C15.8676 15.4688 16.875 14.4614 16.875 13.2188V6.46875C16.875 5.2261 15.8676 4.21875 14.625 4.21875H12.375V15.4688ZM14.9062 14.3438C15.3723 14.3438 15.75 13.966 15.75 13.5C15.75 13.034 15.3723 12.6562 14.9062 12.6562C14.4403 12.6562 14.0625 13.034 14.0625 13.5C14.0625 13.966 14.4403 14.3438 14.9062 14.3438Z" fill="#132D7C"/>
<g opacity="0.1">
<path d="M15.75 7.36875V10.4062H3.375V7.36875C3.375 6.25036 4.22738 5.34375 5.27884 5.34375H13.8462C14.8976 5.34375 15.75 6.25039 15.75 7.36875Z" fill="#040E2C"/>
<path d="M15.75 7.36875V10.4062H3.375V7.36875C3.375 6.25036 4.22738 5.34375 5.27884 5.34375H13.8462C14.8976 5.34375 15.75 6.25039 15.75 7.36875Z" fill="#0F215C"/>
<path d="M15.75 7.36875V10.4062H3.375V7.36875C3.375 6.25036 4.22738 5.34375 5.27884 5.34375H13.8462C14.8976 5.34375 15.75 6.25039 15.75 7.36875Z" fill="black"/>
</g>
<g opacity="0.1">
<path d="M3.375 12.3187V10.4062H15.75V12.3187C15.75 13.4371 14.8976 14.3438 13.8462 14.3438H5.27884C4.22738 14.3438 3.375 13.4371 3.375 12.3187Z" fill="#040E2C"/>
<path d="M3.375 12.3187V10.4062H15.75V12.3187C15.75 13.4371 14.8976 14.3438 13.8462 14.3438H5.27884C4.22738 14.3438 3.375 13.4371 3.375 12.3187Z" fill="#0F215C"/>
<path d="M3.375 12.3187V10.4062H15.75V12.3187C15.75 13.4371 14.8976 14.3438 13.8462 14.3438H5.27884C4.22738 14.3438 3.375 13.4371 3.375 12.3187Z" fill="black"/>
</g>
<defs>
<linearGradient id="paint0_linear_51442_34080" x1="6.1875" y1="4.21875" x2="6.1875" y2="15.4688" gradientUnits="userSpaceOnUse">
<stop stop-color="#0F215C"/>
<stop offset="1" stop-color="#007BD1"/>
</linearGradient>
<linearGradient id="paint1_linear_51442_34080" x1="10.125" y1="1.6875" x2="10.125" y2="5.34376" gradientUnits="userSpaceOnUse">
<stop stop-color="#0F215C"/>
<stop offset="1" stop-color="#007BD1"/>
</linearGradient>
<linearGradient id="paint2_linear_51442_34080" x1="14.625" y1="4.21875" x2="14.625" y2="15.4688" gradientUnits="userSpaceOnUse">
<stop stop-color="#0F215C"/>
<stop offset="1" stop-color="#007BD1"/>
</linearGradient>
</defs>
</svg>
