<svg width="18" height="18" viewBox="0 0 18 18" fill="none" xmlns="http://www.w3.org/2000/svg">
<path d="M1.6875 13.7812V9.28125L8.3383 11.3277C8.76946 11.4603 9.23054 11.4603 9.6617 11.3277L16.3125 9.28125V13.7812C16.3125 15.0239 15.3051 16.0312 14.0625 16.0312H3.9375C2.69486 16.0312 1.6875 15.0239 1.6875 13.7812Z" fill="url(#paint0_linear_51893_14183)"/>
<path d="M1.6875 13.7812V9.28125L8.3383 11.3277C8.76946 11.4603 9.23054 11.4603 9.6617 11.3277L16.3125 9.28125V13.7812C16.3125 15.0239 15.3051 16.0312 14.0625 16.0312H3.9375C2.69486 16.0312 1.6875 15.0239 1.6875 13.7812Z" fill="#132D7C"/>
<path fill-rule="evenodd" clip-rule="evenodd" d="M5.66454 4.78125C5.7382 4.25689 5.92428 3.67909 6.3 3.17813C6.83758 2.46133 7.71438 1.96875 9 1.96875C10.2856 1.96875 11.1624 2.46133 11.7 3.17813C12.0757 3.67909 12.2618 4.25689 12.3355 4.78125H14.0625C15.3051 4.78125 16.3125 5.7886 16.3125 7.03125V8.15625L9.6617 10.2027C9.23054 10.3353 8.76946 10.3353 8.3383 10.2027L1.6875 8.15625V7.03125C1.6875 5.7886 2.69486 4.78125 3.9375 4.78125H5.66454ZM6.80487 4.78125C6.86933 4.45517 6.99441 4.12726 7.2 3.85312C7.50617 3.44492 8.03562 3.09375 9 3.09375C9.96438 3.09375 10.4938 3.44492 10.8 3.85312C11.0056 4.12726 11.1307 4.45517 11.1951 4.78125H6.80487ZM9 9.28125C9.466 9.28125 9.84375 8.9035 9.84375 8.4375C9.84375 7.9715 9.466 7.59375 9 7.59375C8.534 7.59375 8.15625 7.9715 8.15625 8.4375C8.15625 8.9035 8.534 9.28125 9 9.28125Z" fill="url(#paint1_linear_51893_14183)"/>
<path fill-rule="evenodd" clip-rule="evenodd" d="M5.66454 4.78125C5.7382 4.25689 5.92428 3.67909 6.3 3.17813C6.83758 2.46133 7.71438 1.96875 9 1.96875C10.2856 1.96875 11.1624 2.46133 11.7 3.17813C12.0757 3.67909 12.2618 4.25689 12.3355 4.78125H14.0625C15.3051 4.78125 16.3125 5.7886 16.3125 7.03125V8.15625L9.6617 10.2027C9.23054 10.3353 8.76946 10.3353 8.3383 10.2027L1.6875 8.15625V7.03125C1.6875 5.7886 2.69486 4.78125 3.9375 4.78125H5.66454ZM6.80487 4.78125C6.86933 4.45517 6.99441 4.12726 7.2 3.85312C7.50617 3.44492 8.03562 3.09375 9 3.09375C9.96438 3.09375 10.4938 3.44492 10.8 3.85312C11.0056 4.12726 11.1307 4.45517 11.1951 4.78125H6.80487ZM9 9.28125C9.466 9.28125 9.84375 8.9035 9.84375 8.4375C9.84375 7.9715 9.466 7.59375 9 7.59375C8.534 7.59375 8.15625 7.9715 8.15625 8.4375C8.15625 8.9035 8.534 9.28125 9 9.28125Z" fill="#132D7C"/>
<g opacity="0.1">
<path d="M15.1875 7.59375V12.0938C15.1875 13.0257 14.432 13.7812 13.5 13.7812H4.5C3.56802 13.7812 2.8125 13.0257 2.8125 12.0938V7.59375C2.8125 6.66177 3.56802 5.90625 4.5 5.90625H13.5C14.432 5.90625 15.1875 6.66177 15.1875 7.59375Z" fill="#040E2C"/>
<path d="M15.1875 7.59375V12.0938C15.1875 13.0257 14.432 13.7812 13.5 13.7812H4.5C3.56802 13.7812 2.8125 13.0257 2.8125 12.0938V7.59375C2.8125 6.66177 3.56802 5.90625 4.5 5.90625H13.5C14.432 5.90625 15.1875 6.66177 15.1875 7.59375Z" fill="#0F215C"/>
<path d="M15.1875 7.59375V12.0938C15.1875 13.0257 14.432 13.7812 13.5 13.7812H4.5C3.56802 13.7812 2.8125 13.0257 2.8125 12.0938V7.59375C2.8125 6.66177 3.56802 5.90625 4.5 5.90625H13.5C14.432 5.90625 15.1875 6.66177 15.1875 7.59375Z" fill="black"/>
</g>
<defs>
<linearGradient id="paint0_linear_51893_14183" x1="9" y1="9.28125" x2="9" y2="16.0312" gradientUnits="userSpaceOnUse">
<stop stop-color="#0F215C"/>
<stop offset="1" stop-color="#007BD1"/>
</linearGradient>
<linearGradient id="paint1_linear_51893_14183" x1="9" y1="1.96875" x2="9" y2="10.3022" gradientUnits="userSpaceOnUse">
<stop stop-color="#0F215C"/>
<stop offset="1" stop-color="#007BD1"/>
</linearGradient>
</defs>
</svg>
