<svg width="30" height="30" viewBox="0 0 30 30" fill="none" xmlns="http://www.w3.org/2000/svg">
<path d="M7.6875 19.7812V15.2812L14.3383 17.3277C14.7695 17.4603 15.2305 17.4603 15.6617 17.3277L22.3125 15.2812V19.7812C22.3125 21.0239 21.3051 22.0312 20.0625 22.0312H9.9375C8.69486 22.0312 7.6875 21.0239 7.6875 19.7812Z" fill="#040E2C"/>
<path d="M7.6875 19.7812V15.2812L14.3383 17.3277C14.7695 17.4603 15.2305 17.4603 15.6617 17.3277L22.3125 15.2812V19.7812C22.3125 21.0239 21.3051 22.0312 20.0625 22.0312H9.9375C8.69486 22.0312 7.6875 21.0239 7.6875 19.7812Z" fill="#0F215C"/>
<path d="M7.6875 19.7812V15.2812L14.3383 17.3277C14.7695 17.4603 15.2305 17.4603 15.6617 17.3277L22.3125 15.2812V19.7812C22.3125 21.0239 21.3051 22.0312 20.0625 22.0312H9.9375C8.69486 22.0312 7.6875 21.0239 7.6875 19.7812Z" fill="black"/>
<path fill-rule="evenodd" clip-rule="evenodd" d="M11.6645 10.7812C11.7382 10.2569 11.9243 9.67909 12.3 9.17813C12.8376 8.46133 13.7144 7.96875 15 7.96875C16.2856 7.96875 17.1624 8.46133 17.7 9.17813C18.0757 9.67909 18.2618 10.2569 18.3355 10.7812H20.0625C21.3051 10.7812 22.3125 11.7886 22.3125 13.0312V14.1562L15.6617 16.2027C15.2305 16.3353 14.7695 16.3353 14.3383 16.2027L7.6875 14.1562V13.0312C7.6875 11.7886 8.69486 10.7812 9.9375 10.7812H11.6645ZM12.8049 10.7812C12.8693 10.4552 12.9944 10.1273 13.2 9.85312C13.5062 9.44492 14.0356 9.09375 15 9.09375C15.9644 9.09375 16.4938 9.44492 16.8 9.85312C17.0056 10.1273 17.1307 10.4552 17.1951 10.7812H12.8049ZM15 15.2812C15.466 15.2812 15.8438 14.9035 15.8438 14.4375C15.8438 13.9715 15.466 13.5938 15 13.5938C14.534 13.5938 14.1562 13.9715 14.1562 14.4375C14.1562 14.9035 14.534 15.2812 15 15.2812Z" fill="#040E2C"/>
<path fill-rule="evenodd" clip-rule="evenodd" d="M11.6645 10.7812C11.7382 10.2569 11.9243 9.67909 12.3 9.17813C12.8376 8.46133 13.7144 7.96875 15 7.96875C16.2856 7.96875 17.1624 8.46133 17.7 9.17813C18.0757 9.67909 18.2618 10.2569 18.3355 10.7812H20.0625C21.3051 10.7812 22.3125 11.7886 22.3125 13.0312V14.1562L15.6617 16.2027C15.2305 16.3353 14.7695 16.3353 14.3383 16.2027L7.6875 14.1562V13.0312C7.6875 11.7886 8.69486 10.7812 9.9375 10.7812H11.6645ZM12.8049 10.7812C12.8693 10.4552 12.9944 10.1273 13.2 9.85312C13.5062 9.44492 14.0356 9.09375 15 9.09375C15.9644 9.09375 16.4938 9.44492 16.8 9.85312C17.0056 10.1273 17.1307 10.4552 17.1951 10.7812H12.8049ZM15 15.2812C15.466 15.2812 15.8438 14.9035 15.8438 14.4375C15.8438 13.9715 15.466 13.5938 15 13.5938C14.534 13.5938 14.1562 13.9715 14.1562 14.4375C14.1562 14.9035 14.534 15.2812 15 15.2812Z" fill="#0F215C"/>
<path fill-rule="evenodd" clip-rule="evenodd" d="M11.6645 10.7812C11.7382 10.2569 11.9243 9.67909 12.3 9.17813C12.8376 8.46133 13.7144 7.96875 15 7.96875C16.2856 7.96875 17.1624 8.46133 17.7 9.17813C18.0757 9.67909 18.2618 10.2569 18.3355 10.7812H20.0625C21.3051 10.7812 22.3125 11.7886 22.3125 13.0312V14.1562L15.6617 16.2027C15.2305 16.3353 14.7695 16.3353 14.3383 16.2027L7.6875 14.1562V13.0312C7.6875 11.7886 8.69486 10.7812 9.9375 10.7812H11.6645ZM12.8049 10.7812C12.8693 10.4552 12.9944 10.1273 13.2 9.85312C13.5062 9.44492 14.0356 9.09375 15 9.09375C15.9644 9.09375 16.4938 9.44492 16.8 9.85312C17.0056 10.1273 17.1307 10.4552 17.1951 10.7812H12.8049ZM15 15.2812C15.466 15.2812 15.8438 14.9035 15.8438 14.4375C15.8438 13.9715 15.466 13.5938 15 13.5938C14.534 13.5938 14.1562 13.9715 14.1562 14.4375C14.1562 14.9035 14.534 15.2812 15 15.2812Z" fill="black"/>
<path d="M21.1875 13.5938V18.0938C21.1875 19.0257 20.432 19.7812 19.5 19.7812H10.5C9.56802 19.7812 8.8125 19.0257 8.8125 18.0938V13.5938C8.8125 12.6618 9.56802 11.9062 10.5 11.9062H19.5C20.432 11.9062 21.1875 12.6618 21.1875 13.5938Z" fill="url(#paint0_linear_51443_34902)"/>
<defs>
<linearGradient id="paint0_linear_51443_34902" x1="15" y1="11.9062" x2="15" y2="19.7812" gradientUnits="userSpaceOnUse">
<stop stop-color="white" stop-opacity="0.6"/>
<stop offset="1" stop-color="white" stop-opacity="0.1"/>
</linearGradient>
</defs>
</svg>
