<svg width="18" height="18" viewBox="0 0 18 18" fill="none" xmlns="http://www.w3.org/2000/svg">
<path d="M8.4375 2.8125C4.70959 2.8125 1.6875 5.83459 1.6875 9.5625C1.6875 13.2904 4.70959 16.3125 8.4375 16.3125C12.1654 16.3125 15.1875 13.2904 15.1875 9.5625H8.4375V2.8125Z" fill="url(#paint0_linear_51473_45955)"/>
<path d="M8.4375 2.8125C4.70959 2.8125 1.6875 5.83459 1.6875 9.5625C1.6875 13.2904 4.70959 16.3125 8.4375 16.3125C12.1654 16.3125 15.1875 13.2904 15.1875 9.5625H8.4375V2.8125Z" fill="#132D7C"/>
<path d="M16.3125 8.43744H9.5625V1.6875C13.2904 1.6875 16.3125 4.70956 16.3125 8.43744Z" fill="url(#paint1_linear_51473_45955)"/>
<path d="M16.3125 8.43744H9.5625V1.6875C13.2904 1.6875 16.3125 4.70956 16.3125 8.43744Z" fill="#132D7C"/>
<g opacity="0.1">
<path d="M15.1875 8.4375C15.1875 11.5441 12.6691 14.0625 9.5625 14.0625C6.4559 14.0625 3.9375 11.5441 3.9375 8.4375C3.9375 5.3309 6.4559 2.8125 9.5625 2.8125C12.6691 2.8125 15.1875 5.3309 15.1875 8.4375Z" fill="#040E2C"/>
<path d="M15.1875 8.4375C15.1875 11.5441 12.6691 14.0625 9.5625 14.0625C6.4559 14.0625 3.9375 11.5441 3.9375 8.4375C3.9375 5.3309 6.4559 2.8125 9.5625 2.8125C12.6691 2.8125 15.1875 5.3309 15.1875 8.4375Z" fill="#0F215C"/>
<path d="M15.1875 8.4375C15.1875 11.5441 12.6691 14.0625 9.5625 14.0625C6.4559 14.0625 3.9375 11.5441 3.9375 8.4375C3.9375 5.3309 6.4559 2.8125 9.5625 2.8125C12.6691 2.8125 15.1875 5.3309 15.1875 8.4375Z" fill="black"/>
</g>
<defs>
<linearGradient id="paint0_linear_51473_45955" x1="8.4375" y1="2.8125" x2="8.4375" y2="16.3125" gradientUnits="userSpaceOnUse">
<stop stop-color="#0F215C"/>
<stop offset="1" stop-color="#007BD1"/>
</linearGradient>
<linearGradient id="paint1_linear_51473_45955" x1="12.9375" y1="1.6875" x2="12.9375" y2="8.43744" gradientUnits="userSpaceOnUse">
<stop stop-color="#0F215C"/>
<stop offset="1" stop-color="#007BD1"/>
</linearGradient>
</defs>
</svg>
