<svg width="30" height="31" viewBox="0 0 30 31" fill="none" xmlns="http://www.w3.org/2000/svg">
<path d="M14.4375 9.28711C10.7096 9.28711 7.6875 12.3092 7.6875 16.0371C7.6875 19.765 10.7096 22.7871 14.4375 22.7871C18.1654 22.7871 21.1875 19.765 21.1875 16.0371H14.4375V9.28711Z" fill="#040E2C"/>
<path d="M14.4375 9.28711C10.7096 9.28711 7.6875 12.3092 7.6875 16.0371C7.6875 19.765 10.7096 22.7871 14.4375 22.7871C18.1654 22.7871 21.1875 19.765 21.1875 16.0371H14.4375V9.28711Z" fill="#0F215C"/>
<path d="M14.4375 9.28711C10.7096 9.28711 7.6875 12.3092 7.6875 16.0371C7.6875 19.765 10.7096 22.7871 14.4375 22.7871C18.1654 22.7871 21.1875 19.765 21.1875 16.0371H14.4375V9.28711Z" fill="white"/>
<path d="M22.3125 14.9121H15.5625V8.16211C19.2904 8.16211 22.3125 11.1842 22.3125 14.9121Z" fill="#040E2C"/>
<path d="M22.3125 14.9121H15.5625V8.16211C19.2904 8.16211 22.3125 11.1842 22.3125 14.9121Z" fill="#0F215C"/>
<path d="M22.3125 14.9121H15.5625V8.16211C19.2904 8.16211 22.3125 11.1842 22.3125 14.9121Z" fill="white"/>
<path d="M21.1875 14.9121C21.1875 18.0187 18.6691 20.5371 15.5625 20.5371C12.4559 20.5371 9.9375 18.0187 9.9375 14.9121C9.9375 11.8055 12.4559 9.28711 15.5625 9.28711C18.6691 9.28711 21.1875 11.8055 21.1875 14.9121Z" fill="url(#paint0_linear_51697_9398)"/>
<defs>
<linearGradient id="paint0_linear_51697_9398" x1="15.5625" y1="9.28711" x2="15.5625" y2="20.5371" gradientUnits="userSpaceOnUse">
<stop stop-color="white" stop-opacity="0.6"/>
<stop offset="1" stop-color="white" stop-opacity="0.1"/>
</linearGradient>
</defs>
</svg>
