<svg width="18" height="18" viewBox="0 0 18 18" fill="none" xmlns="http://www.w3.org/2000/svg">
<path d="M7.875 2.8125H3.9375C2.69486 2.8125 1.6875 3.81985 1.6875 5.0625V9H7.875V2.8125Z" fill="url(#paint0_linear_51893_12295)"/>
<path d="M7.875 2.8125H3.9375C2.69486 2.8125 1.6875 3.81985 1.6875 5.0625V9H7.875V2.8125Z" fill="#132D7C"/>
<path d="M1.6875 10.125V14.0625C1.6875 15.3051 2.69486 16.3125 3.9375 16.3125H7.875V10.125H1.6875Z" fill="url(#paint1_linear_51893_12295)"/>
<path d="M1.6875 10.125V14.0625C1.6875 15.3051 2.69486 16.3125 3.9375 16.3125H7.875V10.125H1.6875Z" fill="#132D7C"/>
<path d="M9 16.3125V10.125H15.1875V14.0625C15.1875 15.3051 14.1801 16.3125 12.9375 16.3125H9Z" fill="url(#paint2_linear_51893_12295)"/>
<path d="M9 16.3125V10.125H15.1875V14.0625C15.1875 15.3051 14.1801 16.3125 12.9375 16.3125H9Z" fill="#132D7C"/>
<path d="M10.125 1.6875H14.0625C15.3051 1.6875 16.3125 2.69486 16.3125 3.9375V7.875H10.125V1.6875Z" fill="url(#paint3_linear_51893_12295)"/>
<path d="M10.125 1.6875H14.0625C15.3051 1.6875 16.3125 2.69486 16.3125 3.9375V7.875H10.125V1.6875Z" fill="#132D7C"/>
<g opacity="0.1">
<path d="M3.9375 4.5C3.9375 3.56802 4.69302 2.8125 5.625 2.8125H13.5C14.432 2.8125 15.1875 3.56802 15.1875 4.5V12.375C15.1875 13.307 14.432 14.0625 13.5 14.0625H5.625C4.69302 14.0625 3.9375 13.307 3.9375 12.375V4.5Z" fill="#040E2C"/>
<path d="M3.9375 4.5C3.9375 3.56802 4.69302 2.8125 5.625 2.8125H13.5C14.432 2.8125 15.1875 3.56802 15.1875 4.5V12.375C15.1875 13.307 14.432 14.0625 13.5 14.0625H5.625C4.69302 14.0625 3.9375 13.307 3.9375 12.375V4.5Z" fill="#0F215C"/>
<path d="M3.9375 4.5C3.9375 3.56802 4.69302 2.8125 5.625 2.8125H13.5C14.432 2.8125 15.1875 3.56802 15.1875 4.5V12.375C15.1875 13.307 14.432 14.0625 13.5 14.0625H5.625C4.69302 14.0625 3.9375 13.307 3.9375 12.375V4.5Z" fill="black"/>
</g>
<defs>
<linearGradient id="paint0_linear_51893_12295" x1="4.78125" y1="2.8125" x2="4.78125" y2="9" gradientUnits="userSpaceOnUse">
<stop stop-color="#0F215C"/>
<stop offset="1" stop-color="#007BD1"/>
</linearGradient>
<linearGradient id="paint1_linear_51893_12295" x1="4.78125" y1="10.125" x2="4.78125" y2="16.3125" gradientUnits="userSpaceOnUse">
<stop stop-color="#0F215C"/>
<stop offset="1" stop-color="#007BD1"/>
</linearGradient>
<linearGradient id="paint2_linear_51893_12295" x1="12.0938" y1="10.125" x2="12.0938" y2="16.3125" gradientUnits="userSpaceOnUse">
<stop stop-color="#0F215C"/>
<stop offset="1" stop-color="#007BD1"/>
</linearGradient>
<linearGradient id="paint3_linear_51893_12295" x1="13.2188" y1="1.6875" x2="13.2188" y2="7.875" gradientUnits="userSpaceOnUse">
<stop stop-color="#0F215C"/>
<stop offset="1" stop-color="#007BD1"/>
</linearGradient>
</defs>
</svg>
