<svg width="18" height="18" viewBox="0 0 18 18" fill="none" xmlns="http://www.w3.org/2000/svg">
<path d="M1.6875 3.9375C1.6875 2.69486 2.69486 1.6875 3.9375 1.6875H14.0625C15.3051 1.6875 16.3125 2.69486 16.3125 3.9375V8.4375C16.3125 9.05881 15.8088 9.5625 15.1875 9.5625H2.8125C2.19118 9.5625 1.6875 9.05881 1.6875 8.4375V3.9375Z" fill="url(#paint0_linear_51442_34111)"/>
<path d="M1.6875 3.9375C1.6875 2.69486 2.69486 1.6875 3.9375 1.6875H14.0625C15.3051 1.6875 16.3125 2.69486 16.3125 3.9375V8.4375C16.3125 9.05881 15.8088 9.5625 15.1875 9.5625H2.8125C2.19118 9.5625 1.6875 9.05881 1.6875 8.4375V3.9375Z" fill="#132D7C"/>
<path fill-rule="evenodd" clip-rule="evenodd" d="M14.0625 16.3125C15.3051 16.3125 16.3125 15.3051 16.3125 14.0625V11.8125C16.3125 11.1912 15.8088 10.6875 15.1875 10.6875H2.8125C2.19118 10.6875 1.6875 11.1912 1.6875 11.8125V14.0625C1.6875 15.3051 2.69486 16.3125 3.9375 16.3125H14.0625ZM3.9375 12.375C3.9375 12.6857 3.68567 12.9375 3.375 12.9375C3.06433 12.9375 2.8125 12.6857 2.8125 12.375C2.8125 12.0643 3.06433 11.8125 3.375 11.8125C3.68567 11.8125 3.9375 12.0643 3.9375 12.375ZM3.9375 14.625C3.9375 14.9357 3.68567 15.1875 3.375 15.1875C3.06433 15.1875 2.8125 14.9357 2.8125 14.625C2.8125 14.3143 3.06433 14.0625 3.375 14.0625C3.68567 14.0625 3.9375 14.3143 3.9375 14.625ZM7.875 12.9375C8.18567 12.9375 8.4375 12.6857 8.4375 12.375C8.4375 12.0643 8.18567 11.8125 7.875 11.8125C7.56433 11.8125 7.3125 12.0643 7.3125 12.375C7.3125 12.6857 7.56433 12.9375 7.875 12.9375ZM12.9375 14.625C12.9375 14.9357 12.6857 15.1875 12.375 15.1875C12.0643 15.1875 11.8125 14.9357 11.8125 14.625C11.8125 14.3143 12.0643 14.0625 12.375 14.0625C12.6857 14.0625 12.9375 14.3143 12.9375 14.625ZM12.375 12.9375C12.6857 12.9375 12.9375 12.6857 12.9375 12.375C12.9375 12.0643 12.6857 11.8125 12.375 11.8125C12.0643 11.8125 11.8125 12.0643 11.8125 12.375C11.8125 12.6857 12.0643 12.9375 12.375 12.9375ZM6.1875 14.625C6.1875 14.9357 5.93567 15.1875 5.625 15.1875C5.31433 15.1875 5.0625 14.9357 5.0625 14.625C5.0625 14.3143 5.31433 14.0625 5.625 14.0625C5.93567 14.0625 6.1875 14.3143 6.1875 14.625ZM5.625 12.9375C5.93567 12.9375 6.1875 12.6857 6.1875 12.375C6.1875 12.0643 5.93567 11.8125 5.625 11.8125C5.31433 11.8125 5.0625 12.0643 5.0625 12.375C5.0625 12.6857 5.31433 12.9375 5.625 12.9375ZM10.6875 12.375C10.6875 12.6857 10.4357 12.9375 10.125 12.9375C9.81433 12.9375 9.5625 12.6857 9.5625 12.375C9.5625 12.0643 9.81433 11.8125 10.125 11.8125C10.4357 11.8125 10.6875 12.0643 10.6875 12.375ZM14.625 15.1875C14.9357 15.1875 15.1875 14.9357 15.1875 14.625C15.1875 14.3143 14.9357 14.0625 14.625 14.0625C14.3143 14.0625 14.0625 14.3143 14.0625 14.625C14.0625 14.9357 14.3143 15.1875 14.625 15.1875ZM15.1875 12.375C15.1875 12.6857 14.9357 12.9375 14.625 12.9375C14.3143 12.9375 14.0625 12.6857 14.0625 12.375C14.0625 12.0643 14.3143 11.8125 14.625 11.8125C14.9357 11.8125 15.1875 12.0643 15.1875 12.375ZM7.875 14.0625C7.56433 14.0625 7.3125 14.3143 7.3125 14.625C7.3125 14.9357 7.56433 15.1875 7.875 15.1875H10.125C10.4357 15.1875 10.6875 14.9357 10.6875 14.625C10.6875 14.3143 10.4357 14.0625 10.125 14.0625H7.875Z" fill="url(#paint1_linear_51442_34111)"/>
<path fill-rule="evenodd" clip-rule="evenodd" d="M14.0625 16.3125C15.3051 16.3125 16.3125 15.3051 16.3125 14.0625V11.8125C16.3125 11.1912 15.8088 10.6875 15.1875 10.6875H2.8125C2.19118 10.6875 1.6875 11.1912 1.6875 11.8125V14.0625C1.6875 15.3051 2.69486 16.3125 3.9375 16.3125H14.0625ZM3.9375 12.375C3.9375 12.6857 3.68567 12.9375 3.375 12.9375C3.06433 12.9375 2.8125 12.6857 2.8125 12.375C2.8125 12.0643 3.06433 11.8125 3.375 11.8125C3.68567 11.8125 3.9375 12.0643 3.9375 12.375ZM3.9375 14.625C3.9375 14.9357 3.68567 15.1875 3.375 15.1875C3.06433 15.1875 2.8125 14.9357 2.8125 14.625C2.8125 14.3143 3.06433 14.0625 3.375 14.0625C3.68567 14.0625 3.9375 14.3143 3.9375 14.625ZM7.875 12.9375C8.18567 12.9375 8.4375 12.6857 8.4375 12.375C8.4375 12.0643 8.18567 11.8125 7.875 11.8125C7.56433 11.8125 7.3125 12.0643 7.3125 12.375C7.3125 12.6857 7.56433 12.9375 7.875 12.9375ZM12.9375 14.625C12.9375 14.9357 12.6857 15.1875 12.375 15.1875C12.0643 15.1875 11.8125 14.9357 11.8125 14.625C11.8125 14.3143 12.0643 14.0625 12.375 14.0625C12.6857 14.0625 12.9375 14.3143 12.9375 14.625ZM12.375 12.9375C12.6857 12.9375 12.9375 12.6857 12.9375 12.375C12.9375 12.0643 12.6857 11.8125 12.375 11.8125C12.0643 11.8125 11.8125 12.0643 11.8125 12.375C11.8125 12.6857 12.0643 12.9375 12.375 12.9375ZM6.1875 14.625C6.1875 14.9357 5.93567 15.1875 5.625 15.1875C5.31433 15.1875 5.0625 14.9357 5.0625 14.625C5.0625 14.3143 5.31433 14.0625 5.625 14.0625C5.93567 14.0625 6.1875 14.3143 6.1875 14.625ZM5.625 12.9375C5.93567 12.9375 6.1875 12.6857 6.1875 12.375C6.1875 12.0643 5.93567 11.8125 5.625 11.8125C5.31433 11.8125 5.0625 12.0643 5.0625 12.375C5.0625 12.6857 5.31433 12.9375 5.625 12.9375ZM10.6875 12.375C10.6875 12.6857 10.4357 12.9375 10.125 12.9375C9.81433 12.9375 9.5625 12.6857 9.5625 12.375C9.5625 12.0643 9.81433 11.8125 10.125 11.8125C10.4357 11.8125 10.6875 12.0643 10.6875 12.375ZM14.625 15.1875C14.9357 15.1875 15.1875 14.9357 15.1875 14.625C15.1875 14.3143 14.9357 14.0625 14.625 14.0625C14.3143 14.0625 14.0625 14.3143 14.0625 14.625C14.0625 14.9357 14.3143 15.1875 14.625 15.1875ZM15.1875 12.375C15.1875 12.6857 14.9357 12.9375 14.625 12.9375C14.3143 12.9375 14.0625 12.6857 14.0625 12.375C14.0625 12.0643 14.3143 11.8125 14.625 11.8125C14.9357 11.8125 15.1875 12.0643 15.1875 12.375ZM7.875 14.0625C7.56433 14.0625 7.3125 14.3143 7.3125 14.625C7.3125 14.9357 7.56433 15.1875 7.875 15.1875H10.125C10.4357 15.1875 10.6875 14.9357 10.6875 14.625C10.6875 14.3143 10.4357 14.0625 10.125 14.0625H7.875Z" fill="#132D7C"/>
<g opacity="0.1">
<path d="M2.8125 4.5C2.8125 3.56802 3.56802 2.8125 4.5 2.8125H13.5C14.432 2.8125 15.1875 3.56802 15.1875 4.5V12.375C15.1875 13.307 14.432 14.0625 13.5 14.0625H4.5C3.56802 14.0625 2.8125 13.307 2.8125 12.375V4.5Z" fill="#040E2C"/>
<path d="M2.8125 4.5C2.8125 3.56802 3.56802 2.8125 4.5 2.8125H13.5C14.432 2.8125 15.1875 3.56802 15.1875 4.5V12.375C15.1875 13.307 14.432 14.0625 13.5 14.0625H4.5C3.56802 14.0625 2.8125 13.307 2.8125 12.375V4.5Z" fill="#0F215C"/>
<path d="M2.8125 4.5C2.8125 3.56802 3.56802 2.8125 4.5 2.8125H13.5C14.432 2.8125 15.1875 3.56802 15.1875 4.5V12.375C15.1875 13.307 14.432 14.0625 13.5 14.0625H4.5C3.56802 14.0625 2.8125 13.307 2.8125 12.375V4.5Z" fill="black"/>
</g>
<defs>
<linearGradient id="paint0_linear_51442_34111" x1="9" y1="1.6875" x2="9" y2="9.5625" gradientUnits="userSpaceOnUse">
<stop stop-color="#0F215C"/>
<stop offset="1" stop-color="#007BD1"/>
</linearGradient>
<linearGradient id="paint1_linear_51442_34111" x1="9" y1="10.6875" x2="9" y2="16.3125" gradientUnits="userSpaceOnUse">
<stop stop-color="#0F215C"/>
<stop offset="1" stop-color="#007BD1"/>
</linearGradient>
</defs>
</svg>
