<svg width="30" height="30" viewBox="0 0 30 30" fill="none" xmlns="http://www.w3.org/2000/svg">
<path d="M7.6875 9.9375C7.6875 8.69486 8.69486 7.6875 9.9375 7.6875H20.0625C21.3051 7.6875 22.3125 8.69486 22.3125 9.9375V14.4375C22.3125 15.0588 21.8088 15.5625 21.1875 15.5625H8.8125C8.19118 15.5625 7.6875 15.0588 7.6875 14.4375V9.9375Z" fill="#040E2C"/>
<path d="M7.6875 9.9375C7.6875 8.69486 8.69486 7.6875 9.9375 7.6875H20.0625C21.3051 7.6875 22.3125 8.69486 22.3125 9.9375V14.4375C22.3125 15.0588 21.8088 15.5625 21.1875 15.5625H8.8125C8.19118 15.5625 7.6875 15.0588 7.6875 14.4375V9.9375Z" fill="#0F215C"/>
<path d="M7.6875 9.9375C7.6875 8.69486 8.69486 7.6875 9.9375 7.6875H20.0625C21.3051 7.6875 22.3125 8.69486 22.3125 9.9375V14.4375C22.3125 15.0588 21.8088 15.5625 21.1875 15.5625H8.8125C8.19118 15.5625 7.6875 15.0588 7.6875 14.4375V9.9375Z" fill="black"/>
<path fill-rule="evenodd" clip-rule="evenodd" d="M20.0625 22.3125C21.3051 22.3125 22.3125 21.3051 22.3125 20.0625V17.8125C22.3125 17.1912 21.8088 16.6875 21.1875 16.6875H8.8125C8.19118 16.6875 7.6875 17.1912 7.6875 17.8125V20.0625C7.6875 21.3051 8.69486 22.3125 9.9375 22.3125H20.0625ZM9.9375 18.375C9.9375 18.6857 9.68567 18.9375 9.375 18.9375C9.06433 18.9375 8.8125 18.6857 8.8125 18.375C8.8125 18.0643 9.06433 17.8125 9.375 17.8125C9.68567 17.8125 9.9375 18.0643 9.9375 18.375ZM9.9375 20.625C9.9375 20.9357 9.68567 21.1875 9.375 21.1875C9.06433 21.1875 8.8125 20.9357 8.8125 20.625C8.8125 20.3143 9.06433 20.0625 9.375 20.0625C9.68567 20.0625 9.9375 20.3143 9.9375 20.625ZM13.875 18.9375C14.1857 18.9375 14.4375 18.6857 14.4375 18.375C14.4375 18.0643 14.1857 17.8125 13.875 17.8125C13.5643 17.8125 13.3125 18.0643 13.3125 18.375C13.3125 18.6857 13.5643 18.9375 13.875 18.9375ZM18.9375 20.625C18.9375 20.9357 18.6857 21.1875 18.375 21.1875C18.0643 21.1875 17.8125 20.9357 17.8125 20.625C17.8125 20.3143 18.0643 20.0625 18.375 20.0625C18.6857 20.0625 18.9375 20.3143 18.9375 20.625ZM18.375 18.9375C18.6857 18.9375 18.9375 18.6857 18.9375 18.375C18.9375 18.0643 18.6857 17.8125 18.375 17.8125C18.0643 17.8125 17.8125 18.0643 17.8125 18.375C17.8125 18.6857 18.0643 18.9375 18.375 18.9375ZM12.1875 20.625C12.1875 20.9357 11.9357 21.1875 11.625 21.1875C11.3143 21.1875 11.0625 20.9357 11.0625 20.625C11.0625 20.3143 11.3143 20.0625 11.625 20.0625C11.9357 20.0625 12.1875 20.3143 12.1875 20.625ZM11.625 18.9375C11.9357 18.9375 12.1875 18.6857 12.1875 18.375C12.1875 18.0643 11.9357 17.8125 11.625 17.8125C11.3143 17.8125 11.0625 18.0643 11.0625 18.375C11.0625 18.6857 11.3143 18.9375 11.625 18.9375ZM16.6875 18.375C16.6875 18.6857 16.4357 18.9375 16.125 18.9375C15.8143 18.9375 15.5625 18.6857 15.5625 18.375C15.5625 18.0643 15.8143 17.8125 16.125 17.8125C16.4357 17.8125 16.6875 18.0643 16.6875 18.375ZM20.625 21.1875C20.9357 21.1875 21.1875 20.9357 21.1875 20.625C21.1875 20.3143 20.9357 20.0625 20.625 20.0625C20.3143 20.0625 20.0625 20.3143 20.0625 20.625C20.0625 20.9357 20.3143 21.1875 20.625 21.1875ZM21.1875 18.375C21.1875 18.6857 20.9357 18.9375 20.625 18.9375C20.3143 18.9375 20.0625 18.6857 20.0625 18.375C20.0625 18.0643 20.3143 17.8125 20.625 17.8125C20.9357 17.8125 21.1875 18.0643 21.1875 18.375ZM13.875 20.0625C13.5643 20.0625 13.3125 20.3143 13.3125 20.625C13.3125 20.9357 13.5643 21.1875 13.875 21.1875H16.125C16.4357 21.1875 16.6875 20.9357 16.6875 20.625C16.6875 20.3143 16.4357 20.0625 16.125 20.0625H13.875Z" fill="#040E2C"/>
<path fill-rule="evenodd" clip-rule="evenodd" d="M20.0625 22.3125C21.3051 22.3125 22.3125 21.3051 22.3125 20.0625V17.8125C22.3125 17.1912 21.8088 16.6875 21.1875 16.6875H8.8125C8.19118 16.6875 7.6875 17.1912 7.6875 17.8125V20.0625C7.6875 21.3051 8.69486 22.3125 9.9375 22.3125H20.0625ZM9.9375 18.375C9.9375 18.6857 9.68567 18.9375 9.375 18.9375C9.06433 18.9375 8.8125 18.6857 8.8125 18.375C8.8125 18.0643 9.06433 17.8125 9.375 17.8125C9.68567 17.8125 9.9375 18.0643 9.9375 18.375ZM9.9375 20.625C9.9375 20.9357 9.68567 21.1875 9.375 21.1875C9.06433 21.1875 8.8125 20.9357 8.8125 20.625C8.8125 20.3143 9.06433 20.0625 9.375 20.0625C9.68567 20.0625 9.9375 20.3143 9.9375 20.625ZM13.875 18.9375C14.1857 18.9375 14.4375 18.6857 14.4375 18.375C14.4375 18.0643 14.1857 17.8125 13.875 17.8125C13.5643 17.8125 13.3125 18.0643 13.3125 18.375C13.3125 18.6857 13.5643 18.9375 13.875 18.9375ZM18.9375 20.625C18.9375 20.9357 18.6857 21.1875 18.375 21.1875C18.0643 21.1875 17.8125 20.9357 17.8125 20.625C17.8125 20.3143 18.0643 20.0625 18.375 20.0625C18.6857 20.0625 18.9375 20.3143 18.9375 20.625ZM18.375 18.9375C18.6857 18.9375 18.9375 18.6857 18.9375 18.375C18.9375 18.0643 18.6857 17.8125 18.375 17.8125C18.0643 17.8125 17.8125 18.0643 17.8125 18.375C17.8125 18.6857 18.0643 18.9375 18.375 18.9375ZM12.1875 20.625C12.1875 20.9357 11.9357 21.1875 11.625 21.1875C11.3143 21.1875 11.0625 20.9357 11.0625 20.625C11.0625 20.3143 11.3143 20.0625 11.625 20.0625C11.9357 20.0625 12.1875 20.3143 12.1875 20.625ZM11.625 18.9375C11.9357 18.9375 12.1875 18.6857 12.1875 18.375C12.1875 18.0643 11.9357 17.8125 11.625 17.8125C11.3143 17.8125 11.0625 18.0643 11.0625 18.375C11.0625 18.6857 11.3143 18.9375 11.625 18.9375ZM16.6875 18.375C16.6875 18.6857 16.4357 18.9375 16.125 18.9375C15.8143 18.9375 15.5625 18.6857 15.5625 18.375C15.5625 18.0643 15.8143 17.8125 16.125 17.8125C16.4357 17.8125 16.6875 18.0643 16.6875 18.375ZM20.625 21.1875C20.9357 21.1875 21.1875 20.9357 21.1875 20.625C21.1875 20.3143 20.9357 20.0625 20.625 20.0625C20.3143 20.0625 20.0625 20.3143 20.0625 20.625C20.0625 20.9357 20.3143 21.1875 20.625 21.1875ZM21.1875 18.375C21.1875 18.6857 20.9357 18.9375 20.625 18.9375C20.3143 18.9375 20.0625 18.6857 20.0625 18.375C20.0625 18.0643 20.3143 17.8125 20.625 17.8125C20.9357 17.8125 21.1875 18.0643 21.1875 18.375ZM13.875 20.0625C13.5643 20.0625 13.3125 20.3143 13.3125 20.625C13.3125 20.9357 13.5643 21.1875 13.875 21.1875H16.125C16.4357 21.1875 16.6875 20.9357 16.6875 20.625C16.6875 20.3143 16.4357 20.0625 16.125 20.0625H13.875Z" fill="#0F215C"/>
<path fill-rule="evenodd" clip-rule="evenodd" d="M20.0625 22.3125C21.3051 22.3125 22.3125 21.3051 22.3125 20.0625V17.8125C22.3125 17.1912 21.8088 16.6875 21.1875 16.6875H8.8125C8.19118 16.6875 7.6875 17.1912 7.6875 17.8125V20.0625C7.6875 21.3051 8.69486 22.3125 9.9375 22.3125H20.0625ZM9.9375 18.375C9.9375 18.6857 9.68567 18.9375 9.375 18.9375C9.06433 18.9375 8.8125 18.6857 8.8125 18.375C8.8125 18.0643 9.06433 17.8125 9.375 17.8125C9.68567 17.8125 9.9375 18.0643 9.9375 18.375ZM9.9375 20.625C9.9375 20.9357 9.68567 21.1875 9.375 21.1875C9.06433 21.1875 8.8125 20.9357 8.8125 20.625C8.8125 20.3143 9.06433 20.0625 9.375 20.0625C9.68567 20.0625 9.9375 20.3143 9.9375 20.625ZM13.875 18.9375C14.1857 18.9375 14.4375 18.6857 14.4375 18.375C14.4375 18.0643 14.1857 17.8125 13.875 17.8125C13.5643 17.8125 13.3125 18.0643 13.3125 18.375C13.3125 18.6857 13.5643 18.9375 13.875 18.9375ZM18.9375 20.625C18.9375 20.9357 18.6857 21.1875 18.375 21.1875C18.0643 21.1875 17.8125 20.9357 17.8125 20.625C17.8125 20.3143 18.0643 20.0625 18.375 20.0625C18.6857 20.0625 18.9375 20.3143 18.9375 20.625ZM18.375 18.9375C18.6857 18.9375 18.9375 18.6857 18.9375 18.375C18.9375 18.0643 18.6857 17.8125 18.375 17.8125C18.0643 17.8125 17.8125 18.0643 17.8125 18.375C17.8125 18.6857 18.0643 18.9375 18.375 18.9375ZM12.1875 20.625C12.1875 20.9357 11.9357 21.1875 11.625 21.1875C11.3143 21.1875 11.0625 20.9357 11.0625 20.625C11.0625 20.3143 11.3143 20.0625 11.625 20.0625C11.9357 20.0625 12.1875 20.3143 12.1875 20.625ZM11.625 18.9375C11.9357 18.9375 12.1875 18.6857 12.1875 18.375C12.1875 18.0643 11.9357 17.8125 11.625 17.8125C11.3143 17.8125 11.0625 18.0643 11.0625 18.375C11.0625 18.6857 11.3143 18.9375 11.625 18.9375ZM16.6875 18.375C16.6875 18.6857 16.4357 18.9375 16.125 18.9375C15.8143 18.9375 15.5625 18.6857 15.5625 18.375C15.5625 18.0643 15.8143 17.8125 16.125 17.8125C16.4357 17.8125 16.6875 18.0643 16.6875 18.375ZM20.625 21.1875C20.9357 21.1875 21.1875 20.9357 21.1875 20.625C21.1875 20.3143 20.9357 20.0625 20.625 20.0625C20.3143 20.0625 20.0625 20.3143 20.0625 20.625C20.0625 20.9357 20.3143 21.1875 20.625 21.1875ZM21.1875 18.375C21.1875 18.6857 20.9357 18.9375 20.625 18.9375C20.3143 18.9375 20.0625 18.6857 20.0625 18.375C20.0625 18.0643 20.3143 17.8125 20.625 17.8125C20.9357 17.8125 21.1875 18.0643 21.1875 18.375ZM13.875 20.0625C13.5643 20.0625 13.3125 20.3143 13.3125 20.625C13.3125 20.9357 13.5643 21.1875 13.875 21.1875H16.125C16.4357 21.1875 16.6875 20.9357 16.6875 20.625C16.6875 20.3143 16.4357 20.0625 16.125 20.0625H13.875Z" fill="black"/>
<path d="M8.8125 10.5C8.8125 9.56802 9.56802 8.8125 10.5 8.8125H19.5C20.432 8.8125 21.1875 9.56802 21.1875 10.5V18.375C21.1875 19.307 20.432 20.0625 19.5 20.0625H10.5C9.56802 20.0625 8.8125 19.307 8.8125 18.375V10.5Z" fill="url(#paint0_linear_51442_34009)"/>
<defs>
<linearGradient id="paint0_linear_51442_34009" x1="15" y1="8.8125" x2="15" y2="20.0625" gradientUnits="userSpaceOnUse">
<stop stop-color="white" stop-opacity="0.6"/>
<stop offset="1" stop-color="white" stop-opacity="0.1"/>
</linearGradient>
</defs>
</svg>
