<svg width="18" height="18" viewBox="0 0 18 18" fill="none" xmlns="http://www.w3.org/2000/svg">
<path d="M3.375 9V13.5C3.375 14.7426 4.38235 15.75 5.625 15.75H8.4375V9H3.375Z" fill="url(#paint0_linear_51442_34072)"/>
<path d="M3.375 9V13.5C3.375 14.7426 4.38235 15.75 5.625 15.75H8.4375V9H3.375Z" fill="#132D7C"/>
<path d="M14.625 9V13.5C14.625 14.7426 13.6176 15.75 12.375 15.75H9.5625V9H14.625Z" fill="url(#paint1_linear_51442_34072)"/>
<path d="M14.625 9V13.5C14.625 14.7426 13.6176 15.75 12.375 15.75H9.5625V9H14.625Z" fill="#132D7C"/>
<path d="M9.02337 4.74348L9.14062 4.92055L9.25788 4.74348C9.68811 4.09376 10.3445 3.52434 10.9991 3.11867C11.4609 2.83252 11.9501 2.60948 12.4071 2.48937C12.8502 2.37292 13.3278 2.33635 13.7202 2.50861C14.351 2.78554 14.694 3.34856 14.7553 4.04243C14.7959 4.50141 14.7159 5.02102 14.5264 5.57975L14.4633 5.76557H14.6595H15.1875C16.0418 5.76557 16.7344 6.45812 16.7344 7.31244V7.73432H1.26562V7.31244C1.26562 6.45812 1.95818 5.76557 2.8125 5.76557H3.62171H3.81791L3.75488 5.57975C3.56532 5.02102 3.48536 4.50141 3.52592 4.04243C3.58726 3.34856 3.93022 2.78554 4.56103 2.50861C4.9534 2.33635 5.43105 2.37292 5.87413 2.48937C6.33111 2.60948 6.82037 2.83252 7.28212 3.11867C7.93673 3.52434 8.59314 4.09376 9.02337 4.74348ZM4.69617 5.67976L4.73248 5.76557H4.82566H8.39121H8.60985L8.51918 5.56661C8.23663 4.94665 7.59046 4.30515 6.8389 3.83943C6.43179 3.58712 6.01957 3.40315 5.66044 3.30877C5.28727 3.21069 5.03418 3.22535 4.89909 3.28463C4.75377 3.34845 4.62766 3.44472 4.53392 3.58608C4.44091 3.72625 4.38539 3.90223 4.36638 4.11733C4.33131 4.51389 4.42642 5.04278 4.69617 5.67976ZM9.76207 5.56661L9.6714 5.76557H9.89004H13.4556H13.5488L13.5851 5.67976C13.8548 5.04278 13.9499 4.51389 13.9149 4.11733C13.8959 3.90223 13.8403 3.72625 13.7473 3.58608C13.6536 3.44472 13.5275 3.34845 13.3822 3.28466C13.2471 3.22535 12.994 3.21069 12.6208 3.30877C12.2617 3.40315 11.8495 3.58712 11.4423 3.83943C10.6908 4.30515 10.0446 4.94665 9.76207 5.56661Z" fill="url(#paint2_linear_51442_34072)"/>
<path d="M9.02337 4.74348L9.14062 4.92055L9.25788 4.74348C9.68811 4.09376 10.3445 3.52434 10.9991 3.11867C11.4609 2.83252 11.9501 2.60948 12.4071 2.48937C12.8502 2.37292 13.3278 2.33635 13.7202 2.50861C14.351 2.78554 14.694 3.34856 14.7553 4.04243C14.7959 4.50141 14.7159 5.02102 14.5264 5.57975L14.4633 5.76557H14.6595H15.1875C16.0418 5.76557 16.7344 6.45812 16.7344 7.31244V7.73432H1.26562V7.31244C1.26562 6.45812 1.95818 5.76557 2.8125 5.76557H3.62171H3.81791L3.75488 5.57975C3.56532 5.02102 3.48536 4.50141 3.52592 4.04243C3.58726 3.34856 3.93022 2.78554 4.56103 2.50861C4.9534 2.33635 5.43105 2.37292 5.87413 2.48937C6.33111 2.60948 6.82037 2.83252 7.28212 3.11867C7.93673 3.52434 8.59314 4.09376 9.02337 4.74348ZM4.69617 5.67976L4.73248 5.76557H4.82566H8.39121H8.60985L8.51918 5.56661C8.23663 4.94665 7.59046 4.30515 6.8389 3.83943C6.43179 3.58712 6.01957 3.40315 5.66044 3.30877C5.28727 3.21069 5.03418 3.22535 4.89909 3.28463C4.75377 3.34845 4.62766 3.44472 4.53392 3.58608C4.44091 3.72625 4.38539 3.90223 4.36638 4.11733C4.33131 4.51389 4.42642 5.04278 4.69617 5.67976ZM9.76207 5.56661L9.6714 5.76557H9.89004H13.4556H13.5488L13.5851 5.67976C13.8548 5.04278 13.9499 4.51389 13.9149 4.11733C13.8959 3.90223 13.8403 3.72625 13.7473 3.58608C13.6536 3.44472 13.5275 3.34845 13.3822 3.28466C13.2471 3.22535 12.994 3.21069 12.6208 3.30877C12.2617 3.40315 11.8495 3.58712 11.4423 3.83943C10.6908 4.30515 10.0446 4.94665 9.76207 5.56661Z" fill="#132D7C"/>
<path d="M9.02337 4.74348L9.14062 4.92055L9.25788 4.74348C9.68811 4.09376 10.3445 3.52434 10.9991 3.11867C11.4609 2.83252 11.9501 2.60948 12.4071 2.48937C12.8502 2.37292 13.3278 2.33635 13.7202 2.50861C14.351 2.78554 14.694 3.34856 14.7553 4.04243C14.7959 4.50141 14.7159 5.02102 14.5264 5.57975L14.4633 5.76557H14.6595H15.1875C16.0418 5.76557 16.7344 6.45812 16.7344 7.31244V7.73432H1.26562V7.31244C1.26562 6.45812 1.95818 5.76557 2.8125 5.76557H3.62171H3.81791L3.75488 5.57975C3.56532 5.02102 3.48536 4.50141 3.52592 4.04243C3.58726 3.34856 3.93022 2.78554 4.56103 2.50861C4.9534 2.33635 5.43105 2.37292 5.87413 2.48937C6.33111 2.60948 6.82037 2.83252 7.28212 3.11867C7.93673 3.52434 8.59314 4.09376 9.02337 4.74348ZM4.69617 5.67976L4.73248 5.76557H4.82566H8.39121H8.60985L8.51918 5.56661C8.23663 4.94665 7.59046 4.30515 6.8389 3.83943C6.43179 3.58712 6.01957 3.40315 5.66044 3.30877C5.28727 3.21069 5.03418 3.22535 4.89909 3.28463C4.75377 3.34845 4.62766 3.44472 4.53392 3.58608C4.44091 3.72625 4.38539 3.90223 4.36638 4.11733C4.33131 4.51389 4.42642 5.04278 4.69617 5.67976ZM9.76207 5.56661L9.6714 5.76557H9.89004H13.4556H13.5488L13.5851 5.67976C13.8548 5.04278 13.9499 4.51389 13.9149 4.11733C13.8959 3.90223 13.8403 3.72625 13.7473 3.58608C13.6536 3.44472 13.5275 3.34845 13.3822 3.28466C13.2471 3.22535 12.994 3.21069 12.6208 3.30877C12.2617 3.40315 11.8495 3.58712 11.4423 3.83943C10.6908 4.30515 10.0446 4.94665 9.76207 5.56661Z" stroke="url(#paint3_linear_51442_34072)" stroke-width="0.28125"/>
<path d="M9.02337 4.74348L9.14062 4.92055L9.25788 4.74348C9.68811 4.09376 10.3445 3.52434 10.9991 3.11867C11.4609 2.83252 11.9501 2.60948 12.4071 2.48937C12.8502 2.37292 13.3278 2.33635 13.7202 2.50861C14.351 2.78554 14.694 3.34856 14.7553 4.04243C14.7959 4.50141 14.7159 5.02102 14.5264 5.57975L14.4633 5.76557H14.6595H15.1875C16.0418 5.76557 16.7344 6.45812 16.7344 7.31244V7.73432H1.26562V7.31244C1.26562 6.45812 1.95818 5.76557 2.8125 5.76557H3.62171H3.81791L3.75488 5.57975C3.56532 5.02102 3.48536 4.50141 3.52592 4.04243C3.58726 3.34856 3.93022 2.78554 4.56103 2.50861C4.9534 2.33635 5.43105 2.37292 5.87413 2.48937C6.33111 2.60948 6.82037 2.83252 7.28212 3.11867C7.93673 3.52434 8.59314 4.09376 9.02337 4.74348ZM4.69617 5.67976L4.73248 5.76557H4.82566H8.39121H8.60985L8.51918 5.56661C8.23663 4.94665 7.59046 4.30515 6.8389 3.83943C6.43179 3.58712 6.01957 3.40315 5.66044 3.30877C5.28727 3.21069 5.03418 3.22535 4.89909 3.28463C4.75377 3.34845 4.62766 3.44472 4.53392 3.58608C4.44091 3.72625 4.38539 3.90223 4.36638 4.11733C4.33131 4.51389 4.42642 5.04278 4.69617 5.67976ZM9.76207 5.56661L9.6714 5.76557H9.89004H13.4556H13.5488L13.5851 5.67976C13.8548 5.04278 13.9499 4.51389 13.9149 4.11733C13.8959 3.90223 13.8403 3.72625 13.7473 3.58608C13.6536 3.44472 13.5275 3.34845 13.3822 3.28466C13.2471 3.22535 12.994 3.21069 12.6208 3.30877C12.2617 3.40315 11.8495 3.58712 11.4423 3.83943C10.6908 4.30515 10.0446 4.94665 9.76207 5.56661Z" stroke="#132D7C" stroke-width="0.28125"/>
<g opacity="0.1">
<path d="M11.8125 6.75H6.1875C5.25552 6.75 4.5 7.50552 4.5 8.4375V11.8125C4.5 12.7445 5.25552 13.5 6.1875 13.5H11.8125C12.7445 13.5 13.5 12.7445 13.5 11.8125V8.4375C13.5 7.50552 12.7445 6.75 11.8125 6.75Z" fill="#040E2C"/>
<path d="M11.8125 6.75H6.1875C5.25552 6.75 4.5 7.50552 4.5 8.4375V11.8125C4.5 12.7445 5.25552 13.5 6.1875 13.5H11.8125C12.7445 13.5 13.5 12.7445 13.5 11.8125V8.4375C13.5 7.50552 12.7445 6.75 11.8125 6.75Z" fill="#0F215C"/>
<path d="M11.8125 6.75H6.1875C5.25552 6.75 4.5 7.50552 4.5 8.4375V11.8125C4.5 12.7445 5.25552 13.5 6.1875 13.5H11.8125C12.7445 13.5 13.5 12.7445 13.5 11.8125V8.4375C13.5 7.50552 12.7445 6.75 11.8125 6.75Z" fill="black"/>
</g>
<defs>
<linearGradient id="paint0_linear_51442_34072" x1="5.90625" y1="9" x2="5.90625" y2="15.75" gradientUnits="userSpaceOnUse">
<stop stop-color="#0F215C"/>
<stop offset="1" stop-color="#007BD1"/>
</linearGradient>
<linearGradient id="paint1_linear_51442_34072" x1="12.0938" y1="9" x2="12.0938" y2="15.75" gradientUnits="userSpaceOnUse">
<stop stop-color="#0F215C"/>
<stop offset="1" stop-color="#007BD1"/>
</linearGradient>
<linearGradient id="paint2_linear_51442_34072" x1="9" y1="2.39062" x2="9" y2="7.73432" gradientUnits="userSpaceOnUse">
<stop stop-color="#0F215C"/>
<stop offset="1" stop-color="#007BD1"/>
</linearGradient>
<linearGradient id="paint3_linear_51442_34072" x1="9" y1="2.39062" x2="9" y2="7.73432" gradientUnits="userSpaceOnUse">
<stop stop-color="#0F215C"/>
<stop offset="1" stop-color="#007BD1"/>
</linearGradient>
</defs>
</svg>
