<svg width="30" height="30" viewBox="0 0 30 30" fill="none" xmlns="http://www.w3.org/2000/svg">
<path fill-rule="evenodd" clip-rule="evenodd" d="M8.25 20.625C8.25 18.4412 10.5 15.5625 15 15.5625C19.5 15.5625 21.75 18.4412 21.75 20.625C21.75 20.625 19.5 22.3125 15 22.3125C10.5 22.3125 8.25 20.625 8.25 20.625ZM17.25 17.8125C16.9393 17.8125 16.6875 18.0643 16.6875 18.375C16.6875 18.6857 16.9393 18.9375 17.25 18.9375H18.9375C19.2482 18.9375 19.5 18.6857 19.5 18.375C19.5 18.0643 19.2482 17.8125 18.9375 17.8125H17.25Z" fill="#040E2C"/>
<path fill-rule="evenodd" clip-rule="evenodd" d="M8.25 20.625C8.25 18.4412 10.5 15.5625 15 15.5625C19.5 15.5625 21.75 18.4412 21.75 20.625C21.75 20.625 19.5 22.3125 15 22.3125C10.5 22.3125 8.25 20.625 8.25 20.625ZM17.25 17.8125C16.9393 17.8125 16.6875 18.0643 16.6875 18.375C16.6875 18.6857 16.9393 18.9375 17.25 18.9375H18.9375C19.2482 18.9375 19.5 18.6857 19.5 18.375C19.5 18.0643 19.2482 17.8125 18.9375 17.8125H17.25Z" fill="#0F215C"/>
<path fill-rule="evenodd" clip-rule="evenodd" d="M8.25 20.625C8.25 18.4412 10.5 15.5625 15 15.5625C19.5 15.5625 21.75 18.4412 21.75 20.625C21.75 20.625 19.5 22.3125 15 22.3125C10.5 22.3125 8.25 20.625 8.25 20.625ZM17.25 17.8125C16.9393 17.8125 16.6875 18.0643 16.6875 18.375C16.6875 18.6857 16.9393 18.9375 17.25 18.9375H18.9375C19.2482 18.9375 19.5 18.6857 19.5 18.375C19.5 18.0643 19.2482 17.8125 18.9375 17.8125H17.25Z" fill="black"/>
<path d="M18.0938 11.9062C18.0938 13.6149 16.7086 14.4375 15 14.4375C13.2914 14.4375 11.9062 13.6149 11.9062 11.9062C11.9062 9.09375 15 7.6875 15 7.6875C15 7.6875 18.0938 9.09375 18.0938 11.9062Z" fill="#040E2C"/>
<path d="M18.0938 11.9062C18.0938 13.6149 16.7086 14.4375 15 14.4375C13.2914 14.4375 11.9062 13.6149 11.9062 11.9062C11.9062 9.09375 15 7.6875 15 7.6875C15 7.6875 18.0938 9.09375 18.0938 11.9062Z" fill="#0F215C"/>
<path d="M18.0938 11.9062C18.0938 13.6149 16.7086 14.4375 15 14.4375C13.2914 14.4375 11.9062 13.6149 11.9062 11.9062C11.9062 9.09375 15 7.6875 15 7.6875C15 7.6875 18.0938 9.09375 18.0938 11.9062Z" fill="black"/>
<path d="M15 13.3125C16.0873 13.3125 16.9688 12.4311 16.9688 11.3438C16.9688 9.65625 15 8.8125 15 8.8125C15 8.8125 13.0312 9.65625 13.0312 11.3438C13.0312 12.4311 13.9127 13.3125 15 13.3125Z" fill="url(#paint0_linear_51442_34001)"/>
<path d="M9.375 19.0673C9.375 17.5554 11.25 15.5625 15 15.5625C18.75 15.5625 20.625 17.5554 20.625 19.0673C20.625 19.0673 18.75 20.0625 15 20.0625C11.25 20.0625 9.375 19.0673 9.375 19.0673Z" fill="url(#paint1_linear_51442_34001)"/>
<defs>
<linearGradient id="paint0_linear_51442_34001" x1="15" y1="8.8125" x2="15" y2="20.0625" gradientUnits="userSpaceOnUse">
<stop stop-color="white" stop-opacity="0.6"/>
<stop offset="1" stop-color="white" stop-opacity="0.1"/>
</linearGradient>
<linearGradient id="paint1_linear_51442_34001" x1="15" y1="8.8125" x2="15" y2="20.0625" gradientUnits="userSpaceOnUse">
<stop stop-color="white" stop-opacity="0.6"/>
<stop offset="1" stop-color="white" stop-opacity="0.1"/>
</linearGradient>
</defs>
</svg>
