<svg width="18" height="18" viewBox="0 0 18 18" fill="none" xmlns="http://www.w3.org/2000/svg">
<path fill-rule="evenodd" clip-rule="evenodd" d="M2.25 14.625C2.25 12.4412 4.5 9.5625 9 9.5625C13.5 9.5625 15.75 12.4412 15.75 14.625C15.75 14.625 13.5 16.3125 9 16.3125C4.5 16.3125 2.25 14.625 2.25 14.625ZM11.25 11.8125C10.9393 11.8125 10.6875 12.0643 10.6875 12.375C10.6875 12.6857 10.9393 12.9375 11.25 12.9375H12.9375C13.2482 12.9375 13.5 12.6857 13.5 12.375C13.5 12.0643 13.2482 11.8125 12.9375 11.8125H11.25Z" fill="url(#paint0_linear_51442_34103)"/>
<path fill-rule="evenodd" clip-rule="evenodd" d="M2.25 14.625C2.25 12.4412 4.5 9.5625 9 9.5625C13.5 9.5625 15.75 12.4412 15.75 14.625C15.75 14.625 13.5 16.3125 9 16.3125C4.5 16.3125 2.25 14.625 2.25 14.625ZM11.25 11.8125C10.9393 11.8125 10.6875 12.0643 10.6875 12.375C10.6875 12.6857 10.9393 12.9375 11.25 12.9375H12.9375C13.2482 12.9375 13.5 12.6857 13.5 12.375C13.5 12.0643 13.2482 11.8125 12.9375 11.8125H11.25Z" fill="#132D7C"/>
<path d="M12.0938 5.90625C12.0938 7.61487 10.7086 8.4375 9 8.4375C7.29138 8.4375 5.90625 7.61487 5.90625 5.90625C5.90625 3.09375 9 1.6875 9 1.6875C9 1.6875 12.0938 3.09375 12.0938 5.90625Z" fill="url(#paint1_linear_51442_34103)"/>
<path d="M12.0938 5.90625C12.0938 7.61487 10.7086 8.4375 9 8.4375C7.29138 8.4375 5.90625 7.61487 5.90625 5.90625C5.90625 3.09375 9 1.6875 9 1.6875C9 1.6875 12.0938 3.09375 12.0938 5.90625Z" fill="#132D7C"/>
<g opacity="0.1">
<path d="M9 7.3125C10.0873 7.3125 10.9688 6.43106 10.9688 5.34375C10.9688 3.65625 9 2.8125 9 2.8125C9 2.8125 7.03125 3.65625 7.03125 5.34375C7.03125 6.43106 7.91269 7.3125 9 7.3125Z" fill="#040E2C"/>
<path d="M9 7.3125C10.0873 7.3125 10.9688 6.43106 10.9688 5.34375C10.9688 3.65625 9 2.8125 9 2.8125C9 2.8125 7.03125 3.65625 7.03125 5.34375C7.03125 6.43106 7.91269 7.3125 9 7.3125Z" fill="#0F215C"/>
<path d="M9 7.3125C10.0873 7.3125 10.9688 6.43106 10.9688 5.34375C10.9688 3.65625 9 2.8125 9 2.8125C9 2.8125 7.03125 3.65625 7.03125 5.34375C7.03125 6.43106 7.91269 7.3125 9 7.3125Z" fill="black"/>
</g>
<g opacity="0.1">
<path d="M3.375 13.0673C3.375 11.5554 5.25001 9.5625 9 9.5625C12.75 9.5625 14.625 11.5554 14.625 13.0673C14.625 13.0673 12.75 14.0625 9 14.0625C5.25001 14.0625 3.375 13.0673 3.375 13.0673Z" fill="#040E2C"/>
<path d="M3.375 13.0673C3.375 11.5554 5.25001 9.5625 9 9.5625C12.75 9.5625 14.625 11.5554 14.625 13.0673C14.625 13.0673 12.75 14.0625 9 14.0625C5.25001 14.0625 3.375 13.0673 3.375 13.0673Z" fill="#0F215C"/>
<path d="M3.375 13.0673C3.375 11.5554 5.25001 9.5625 9 9.5625C12.75 9.5625 14.625 11.5554 14.625 13.0673C14.625 13.0673 12.75 14.0625 9 14.0625C5.25001 14.0625 3.375 13.0673 3.375 13.0673Z" fill="black"/>
</g>
<defs>
<linearGradient id="paint0_linear_51442_34103" x1="9" y1="9.5625" x2="9" y2="16.3125" gradientUnits="userSpaceOnUse">
<stop stop-color="#0F215C"/>
<stop offset="1" stop-color="#007BD1"/>
</linearGradient>
<linearGradient id="paint1_linear_51442_34103" x1="9" y1="1.6875" x2="9" y2="8.4375" gradientUnits="userSpaceOnUse">
<stop stop-color="#0F215C"/>
<stop offset="1" stop-color="#007BD1"/>
</linearGradient>
</defs>
</svg>
