<svg width="18" height="18" viewBox="0 0 18 18" fill="none" xmlns="http://www.w3.org/2000/svg">
<path fill-rule="evenodd" clip-rule="evenodd" d="M14.0627 3.9375C14.5287 3.9375 14.9065 4.31525 14.9065 4.78125C14.9065 6.01954 14.8409 7.13798 14.4674 8.23331C14.0888 9.3436 13.418 10.3637 12.3129 11.4688C11.2077 12.574 9.83952 13.1299 8.43771 13.3336V14.625H8.71896C9.18497 14.625 9.56271 15.0027 9.56271 15.4688C9.56271 15.9347 9.18497 16.3125 8.71896 16.3125H6.46896C6.00299 16.3125 5.62521 15.9347 5.62521 15.4688C5.62521 15.0027 6.00299 14.625 6.46896 14.625H6.75021V13.4215C5.65733 13.3845 4.60048 13.1791 3.69069 12.9005C3.24513 12.7641 2.99451 12.2923 3.13095 11.8467C3.26735 11.4012 3.73915 11.1506 4.18473 11.287C6.52395 12.0032 9.37928 12.016 11.1196 10.2756C12.0927 9.30257 12.5951 8.49524 12.8702 7.68864C13.1504 6.86703 13.219 5.97909 13.219 4.78125C13.219 4.31525 13.5967 3.9375 14.0627 3.9375Z" fill="url(#paint0_linear_51893_13924)"/>
<path fill-rule="evenodd" clip-rule="evenodd" d="M14.0627 3.9375C14.5287 3.9375 14.9065 4.31525 14.9065 4.78125C14.9065 6.01954 14.8409 7.13798 14.4674 8.23331C14.0888 9.3436 13.418 10.3637 12.3129 11.4688C11.2077 12.574 9.83952 13.1299 8.43771 13.3336V14.625H8.71896C9.18497 14.625 9.56271 15.0027 9.56271 15.4688C9.56271 15.9347 9.18497 16.3125 8.71896 16.3125H6.46896C6.00299 16.3125 5.62521 15.9347 5.62521 15.4688C5.62521 15.0027 6.00299 14.625 6.46896 14.625H6.75021V13.4215C5.65733 13.3845 4.60048 13.1791 3.69069 12.9005C3.24513 12.7641 2.99451 12.2923 3.13095 11.8467C3.26735 11.4012 3.73915 11.1506 4.18473 11.287C6.52395 12.0032 9.37928 12.016 11.1196 10.2756C12.0927 9.30257 12.5951 8.49524 12.8702 7.68864C13.1504 6.86703 13.219 5.97909 13.219 4.78125C13.219 4.31525 13.5967 3.9375 14.0627 3.9375Z" fill="#132D7C"/>
<path fill-rule="evenodd" clip-rule="evenodd" d="M7.59375 10.6875C10.079 10.6875 12.0938 8.67279 12.0938 6.1875C12.0938 3.70221 10.079 1.6875 7.59375 1.6875C5.10846 1.6875 3.09375 3.70221 3.09375 6.1875C3.09375 8.67279 5.10846 10.6875 7.59375 10.6875ZM5.90625 5.34375C6.37225 5.34375 6.75 4.966 6.75 4.5C6.75 4.034 6.37225 3.65625 5.90625 3.65625C5.44025 3.65625 5.0625 4.034 5.0625 4.5C5.0625 4.966 5.44025 5.34375 5.90625 5.34375Z" fill="url(#paint1_linear_51893_13924)"/>
<path fill-rule="evenodd" clip-rule="evenodd" d="M7.59375 10.6875C10.079 10.6875 12.0938 8.67279 12.0938 6.1875C12.0938 3.70221 10.079 1.6875 7.59375 1.6875C5.10846 1.6875 3.09375 3.70221 3.09375 6.1875C3.09375 8.67279 5.10846 10.6875 7.59375 10.6875ZM5.90625 5.34375C6.37225 5.34375 6.75 4.966 6.75 4.5C6.75 4.034 6.37225 3.65625 5.90625 3.65625C5.44025 3.65625 5.0625 4.034 5.0625 4.5C5.0625 4.966 5.44025 5.34375 5.90625 5.34375Z" fill="#132D7C"/>
<g opacity="0.1">
<path d="M10.9688 6.1875C10.9688 8.05146 9.45771 9.5625 7.59375 9.5625C5.72979 9.5625 4.21875 8.05146 4.21875 6.1875C4.21875 4.32354 5.72979 2.8125 7.59375 2.8125C9.45771 2.8125 10.9688 4.32354 10.9688 6.1875Z" fill="#040E2C"/>
<path d="M10.9688 6.1875C10.9688 8.05146 9.45771 9.5625 7.59375 9.5625C5.72979 9.5625 4.21875 8.05146 4.21875 6.1875C4.21875 4.32354 5.72979 2.8125 7.59375 2.8125C9.45771 2.8125 10.9688 4.32354 10.9688 6.1875Z" fill="#0F215C"/>
<path d="M10.9688 6.1875C10.9688 8.05146 9.45771 9.5625 7.59375 9.5625C5.72979 9.5625 4.21875 8.05146 4.21875 6.1875C4.21875 4.32354 5.72979 2.8125 7.59375 2.8125C9.45771 2.8125 10.9688 4.32354 10.9688 6.1875Z" fill="black"/>
</g>
<defs>
<linearGradient id="paint0_linear_51893_13924" x1="9.00011" y1="3.9375" x2="9.00011" y2="16.3125" gradientUnits="userSpaceOnUse">
<stop stop-color="#0F215C"/>
<stop offset="1" stop-color="#007BD1"/>
</linearGradient>
<linearGradient id="paint1_linear_51893_13924" x1="7.59375" y1="1.6875" x2="7.59375" y2="10.6875" gradientUnits="userSpaceOnUse">
<stop stop-color="#0F215C"/>
<stop offset="1" stop-color="#007BD1"/>
</linearGradient>
</defs>
</svg>
