<svg width="18" height="18" viewBox="0 0 18 18" fill="none" xmlns="http://www.w3.org/2000/svg">
<path d="M7.03125 3.9375H10.9688V15.1875C10.9688 15.8088 10.4651 16.3125 9.84375 16.3125H8.15625C7.53494 16.3125 7.03125 15.8088 7.03125 15.1875V3.9375Z" fill="url(#paint0_linear_51442_34059)"/>
<path d="M7.03125 3.9375H10.9688V15.1875C10.9688 15.8088 10.4651 16.3125 9.84375 16.3125H8.15625C7.53494 16.3125 7.03125 15.8088 7.03125 15.1875V3.9375Z" fill="#132D7C"/>
<path d="M12.375 9.5625H16.3125V15.1875C16.3125 15.8088 15.8088 16.3125 15.1875 16.3125H13.5C12.8787 16.3125 12.375 15.8088 12.375 15.1875V9.5625Z" fill="url(#paint1_linear_51442_34059)"/>
<path d="M12.375 9.5625H16.3125V15.1875C16.3125 15.8088 15.8088 16.3125 15.1875 16.3125H13.5C12.8787 16.3125 12.375 15.8088 12.375 15.1875V9.5625Z" fill="#132D7C"/>
<path d="M5.625 12.375H1.6875V15.1875C1.6875 15.8088 2.19118 16.3125 2.8125 16.3125H4.5C5.12131 16.3125 5.625 15.8088 5.625 15.1875V12.375Z" fill="url(#paint2_linear_51442_34059)"/>
<path d="M5.625 12.375H1.6875V15.1875C1.6875 15.8088 2.19118 16.3125 2.8125 16.3125H4.5C5.12131 16.3125 5.625 15.8088 5.625 15.1875V12.375Z" fill="#132D7C"/>
<path d="M7.03125 2.8125C7.03125 2.19118 7.53494 1.6875 8.15625 1.6875H9.84375C10.4651 1.6875 10.9688 2.19118 10.9688 2.8125H7.03125Z" fill="url(#paint3_linear_51442_34059)"/>
<path d="M7.03125 2.8125C7.03125 2.19118 7.53494 1.6875 8.15625 1.6875H9.84375C10.4651 1.6875 10.9688 2.19118 10.9688 2.8125H7.03125Z" fill="#132D7C"/>
<path d="M12.375 8.4375C12.375 7.81619 12.8787 7.3125 13.5 7.3125H15.1875C15.8088 7.3125 16.3125 7.81619 16.3125 8.4375H12.375Z" fill="url(#paint4_linear_51442_34059)"/>
<path d="M12.375 8.4375C12.375 7.81619 12.8787 7.3125 13.5 7.3125H15.1875C15.8088 7.3125 16.3125 7.81619 16.3125 8.4375H12.375Z" fill="#132D7C"/>
<path d="M1.6875 11.25C1.6875 10.6287 2.19118 10.125 2.8125 10.125H4.5C5.12131 10.125 5.625 10.6287 5.625 11.25H1.6875Z" fill="url(#paint5_linear_51442_34059)"/>
<path d="M1.6875 11.25C1.6875 10.6287 2.19118 10.125 2.8125 10.125H4.5C5.12131 10.125 5.625 10.6287 5.625 11.25H1.6875Z" fill="#132D7C"/>
<g opacity="0.1">
<path d="M13.5 9C13.5 8.68933 13.7518 8.4375 14.0625 8.4375H14.625C14.9357 8.4375 15.1875 8.68933 15.1875 9V13.5C15.1875 13.8107 14.9357 14.0625 14.625 14.0625H14.0625C13.7518 14.0625 13.5 13.8107 13.5 13.5V9Z" fill="#040E2C"/>
<path d="M13.5 9C13.5 8.68933 13.7518 8.4375 14.0625 8.4375H14.625C14.9357 8.4375 15.1875 8.68933 15.1875 9V13.5C15.1875 13.8107 14.9357 14.0625 14.625 14.0625H14.0625C13.7518 14.0625 13.5 13.8107 13.5 13.5V9Z" fill="#0F215C"/>
<path d="M13.5 9C13.5 8.68933 13.7518 8.4375 14.0625 8.4375H14.625C14.9357 8.4375 15.1875 8.68933 15.1875 9V13.5C15.1875 13.8107 14.9357 14.0625 14.625 14.0625H14.0625C13.7518 14.0625 13.5 13.8107 13.5 13.5V9Z" fill="black"/>
</g>
<g opacity="0.1">
<path d="M2.8125 11.8125C2.8125 11.5018 3.06433 11.25 3.375 11.25H3.9375C4.24817 11.25 4.5 11.5018 4.5 11.8125V13.5C4.5 13.8107 4.24817 14.0625 3.9375 14.0625H3.375C3.06433 14.0625 2.8125 13.8107 2.8125 13.5V11.8125Z" fill="#040E2C"/>
<path d="M2.8125 11.8125C2.8125 11.5018 3.06433 11.25 3.375 11.25H3.9375C4.24817 11.25 4.5 11.5018 4.5 11.8125V13.5C4.5 13.8107 4.24817 14.0625 3.9375 14.0625H3.375C3.06433 14.0625 2.8125 13.8107 2.8125 13.5V11.8125Z" fill="#0F215C"/>
<path d="M2.8125 11.8125C2.8125 11.5018 3.06433 11.25 3.375 11.25H3.9375C4.24817 11.25 4.5 11.5018 4.5 11.8125V13.5C4.5 13.8107 4.24817 14.0625 3.9375 14.0625H3.375C3.06433 14.0625 2.8125 13.8107 2.8125 13.5V11.8125Z" fill="black"/>
</g>
<g opacity="0.1">
<path d="M8.15625 3.375C8.15625 3.06433 8.40808 2.8125 8.71875 2.8125H9.28125C9.59192 2.8125 9.84375 3.06433 9.84375 3.375V13.5C9.84375 13.8107 9.59192 14.0625 9.28125 14.0625H8.71875C8.40808 14.0625 8.15625 13.8107 8.15625 13.5V3.375Z" fill="#040E2C"/>
<path d="M8.15625 3.375C8.15625 3.06433 8.40808 2.8125 8.71875 2.8125H9.28125C9.59192 2.8125 9.84375 3.06433 9.84375 3.375V13.5C9.84375 13.8107 9.59192 14.0625 9.28125 14.0625H8.71875C8.40808 14.0625 8.15625 13.8107 8.15625 13.5V3.375Z" fill="#0F215C"/>
<path d="M8.15625 3.375C8.15625 3.06433 8.40808 2.8125 8.71875 2.8125H9.28125C9.59192 2.8125 9.84375 3.06433 9.84375 3.375V13.5C9.84375 13.8107 9.59192 14.0625 9.28125 14.0625H8.71875C8.40808 14.0625 8.15625 13.8107 8.15625 13.5V3.375Z" fill="black"/>
</g>
<defs>
<linearGradient id="paint0_linear_51442_34059" x1="9" y1="3.9375" x2="9" y2="16.3125" gradientUnits="userSpaceOnUse">
<stop stop-color="#0F215C"/>
<stop offset="1" stop-color="#007BD1"/>
</linearGradient>
<linearGradient id="paint1_linear_51442_34059" x1="14.3438" y1="9.5625" x2="14.3438" y2="16.3125" gradientUnits="userSpaceOnUse">
<stop stop-color="#0F215C"/>
<stop offset="1" stop-color="#007BD1"/>
</linearGradient>
<linearGradient id="paint2_linear_51442_34059" x1="3.65625" y1="12.375" x2="3.65625" y2="16.3125" gradientUnits="userSpaceOnUse">
<stop stop-color="#0F215C"/>
<stop offset="1" stop-color="#007BD1"/>
</linearGradient>
<linearGradient id="paint3_linear_51442_34059" x1="9" y1="1.6875" x2="9" y2="2.8125" gradientUnits="userSpaceOnUse">
<stop stop-color="#0F215C"/>
<stop offset="1" stop-color="#007BD1"/>
</linearGradient>
<linearGradient id="paint4_linear_51442_34059" x1="14.3438" y1="7.3125" x2="14.3438" y2="8.4375" gradientUnits="userSpaceOnUse">
<stop stop-color="#0F215C"/>
<stop offset="1" stop-color="#007BD1"/>
</linearGradient>
<linearGradient id="paint5_linear_51442_34059" x1="3.65625" y1="10.125" x2="3.65625" y2="11.25" gradientUnits="userSpaceOnUse">
<stop stop-color="#0F215C"/>
<stop offset="1" stop-color="#007BD1"/>
</linearGradient>
</defs>
</svg>
