<svg width="18" height="18" viewBox="0 0 18 18" fill="none" xmlns="http://www.w3.org/2000/svg">
<path d="M14.9531 11.2178C14.8469 11.2387 14.7373 11.2496 14.6251 11.2496C14.6251 11.2496 11.2077 11.8121 9.00006 11.8121C6.79238 11.8121 3.37506 11.2496 3.37506 11.2496C3.26284 11.2496 3.15321 11.2387 3.04712 11.2178C3.70479 14.1719 5.7348 16.3121 9.00008 16.3121C12.2654 16.3121 14.2954 14.1719 14.9531 11.2178Z" fill="url(#paint0_linear_51866_35657)"/>
<path d="M14.9531 11.2178C14.8469 11.2387 14.7373 11.2496 14.6251 11.2496C14.6251 11.2496 11.2077 11.8121 9.00006 11.8121C6.79238 11.8121 3.37506 11.2496 3.37506 11.2496C3.26284 11.2496 3.15321 11.2387 3.04712 11.2178C3.70479 14.1719 5.7348 16.3121 9.00008 16.3121C12.2654 16.3121 14.2954 14.1719 14.9531 11.2178Z" fill="#132D7C"/>
<path d="M14.0683 4.5C14.0683 4.5 10.9914 3.9375 8.99999 3.9375C7.00852 3.9375 3.93164 4.5 3.93164 4.5C4.95221 2.78801 6.6585 1.6875 8.99999 1.6875C11.3415 1.6875 13.0478 2.78801 14.0683 4.5Z" fill="url(#paint1_linear_51866_35657)"/>
<path d="M14.0683 4.5C14.0683 4.5 10.9914 3.9375 8.99999 3.9375C7.00852 3.9375 3.93164 4.5 3.93164 4.5C4.95221 2.78801 6.6585 1.6875 8.99999 1.6875C11.3415 1.6875 13.0478 2.78801 14.0683 4.5Z" fill="#132D7C"/>
<path fill-rule="evenodd" clip-rule="evenodd" d="M3.16384 5.45577C2.31852 5.54603 1.6875 6.26243 1.6875 7.11256V8.63744C1.6875 9.48758 2.31852 10.204 3.16384 10.2942C4.71507 10.4599 7.17806 10.6875 9 10.6875C10.8219 10.6875 13.2849 10.4599 14.8362 10.2942C15.6815 10.204 16.3125 9.48758 16.3125 8.63744V7.11256C16.3125 6.26243 15.6815 5.54603 14.8362 5.45577C13.2849 5.29012 10.8219 5.0625 9 5.0625C7.17806 5.0625 4.71507 5.29012 3.16384 5.45577ZM7.3125 7.875C7.3125 8.49631 6.80881 9 6.1875 9C5.56619 9 5.0625 8.49631 5.0625 7.875C5.0625 7.25369 5.56619 6.75 6.1875 6.75C6.80881 6.75 7.3125 7.25369 7.3125 7.875ZM12.9375 7.875C12.9375 8.49631 12.4338 9 11.8125 9C11.1912 9 10.6875 8.49631 10.6875 7.875C10.6875 7.25369 11.1912 6.75 11.8125 6.75C12.4338 6.75 12.9375 7.25369 12.9375 7.875Z" fill="url(#paint2_linear_51866_35657)"/>
<path fill-rule="evenodd" clip-rule="evenodd" d="M3.16384 5.45577C2.31852 5.54603 1.6875 6.26243 1.6875 7.11256V8.63744C1.6875 9.48758 2.31852 10.204 3.16384 10.2942C4.71507 10.4599 7.17806 10.6875 9 10.6875C10.8219 10.6875 13.2849 10.4599 14.8362 10.2942C15.6815 10.204 16.3125 9.48758 16.3125 8.63744V7.11256C16.3125 6.26243 15.6815 5.54603 14.8362 5.45577C13.2849 5.29012 10.8219 5.0625 9 5.0625C7.17806 5.0625 4.71507 5.29012 3.16384 5.45577ZM7.3125 7.875C7.3125 8.49631 6.80881 9 6.1875 9C5.56619 9 5.0625 8.49631 5.0625 7.875C5.0625 7.25369 5.56619 6.75 6.1875 6.75C6.80881 6.75 7.3125 7.25369 7.3125 7.875ZM12.9375 7.875C12.9375 8.49631 12.4338 9 11.8125 9C11.1912 9 10.6875 8.49631 10.6875 7.875C10.6875 7.25369 11.1912 6.75 11.8125 6.75C12.4338 6.75 12.9375 7.25369 12.9375 7.875Z" fill="#132D7C"/>
<path d="M4.9374 4.77683C5.81729 3.57024 7.18251 2.8125 9.00003 2.8125C10.8175 2.8125 12.1827 3.57024 13.0627 4.77683C13.4129 4.8258 13.738 4.87457 14.0232 4.91915C14.7004 5.02501 15.1875 5.59375 15.1875 6.25705V7.57837C15.1875 8.25407 14.6836 8.8265 13.9991 8.92634C13.4053 11.2619 11.7028 12.9375 9.00003 12.9375C6.29724 12.9375 4.5947 11.2619 4.00089 8.92634C3.31639 8.8265 2.8125 8.25407 2.8125 7.57837V6.25705C2.8125 5.59375 3.29963 5.02501 3.97682 4.91915C4.26203 4.87457 4.5871 4.8258 4.9374 4.77683Z" fill="url(#paint3_linear_51866_35657)"/>
<defs>
<linearGradient id="paint0_linear_51866_35657" x1="9.00008" y1="11.2178" x2="9.00008" y2="16.3121" gradientUnits="userSpaceOnUse">
<stop stop-color="#0F215C"/>
<stop offset="1" stop-color="#007BD1"/>
</linearGradient>
<linearGradient id="paint1_linear_51866_35657" x1="8.99998" y1="1.6875" x2="8.99998" y2="4.5" gradientUnits="userSpaceOnUse">
<stop stop-color="#0F215C"/>
<stop offset="1" stop-color="#007BD1"/>
</linearGradient>
<linearGradient id="paint2_linear_51866_35657" x1="9" y1="5.0625" x2="9" y2="10.6875" gradientUnits="userSpaceOnUse">
<stop stop-color="#0F215C"/>
<stop offset="1" stop-color="#007BD1"/>
</linearGradient>
<linearGradient id="paint3_linear_51866_35657" x1="9" y1="2.8125" x2="9" y2="12.9375" gradientUnits="userSpaceOnUse">
<stop stop-color="white" stop-opacity="0.6"/>
<stop offset="1" stop-color="white" stop-opacity="0.1"/>
</linearGradient>
</defs>
</svg>
