<svg width="30" height="30" viewBox="0 0 30 30" fill="none" xmlns="http://www.w3.org/2000/svg">
<path fill-rule="evenodd" clip-rule="evenodd" d="M7.6875 20.3438V14.7188C7.6875 13.7868 8.44302 13.0312 9.375 13.0312H20.625C21.557 13.0312 22.3125 13.7868 22.3125 14.7188V20.3438C22.3125 21.2757 21.557 22.0312 20.625 22.0312H9.375C8.44302 22.0312 7.6875 21.2757 7.6875 20.3438ZM9.9375 18.375C10.4035 18.375 10.7812 17.9973 10.7812 17.5312C10.7812 17.0652 10.4035 16.6875 9.9375 16.6875C9.4715 16.6875 9.09375 17.0652 9.09375 17.5312C9.09375 17.9973 9.4715 18.375 9.9375 18.375ZM20.0625 18.375C20.5285 18.375 20.9062 17.9973 20.9062 17.5312C20.9062 17.0652 20.5285 16.6875 20.0625 16.6875C19.5965 16.6875 19.2188 17.0652 19.2188 17.5312C19.2188 17.9973 19.5965 18.375 20.0625 18.375ZM15 20.3438C16.5533 20.3438 17.8125 19.0845 17.8125 17.5312C17.8125 15.978 16.5533 14.7188 15 14.7188C13.4467 14.7188 12.1875 15.978 12.1875 17.5312C12.1875 19.0845 13.4467 20.3438 15 20.3438Z" fill="#040E2C"/>
<path fill-rule="evenodd" clip-rule="evenodd" d="M7.6875 20.3438V14.7188C7.6875 13.7868 8.44302 13.0312 9.375 13.0312H20.625C21.557 13.0312 22.3125 13.7868 22.3125 14.7188V20.3438C22.3125 21.2757 21.557 22.0312 20.625 22.0312H9.375C8.44302 22.0312 7.6875 21.2757 7.6875 20.3438ZM9.9375 18.375C10.4035 18.375 10.7812 17.9973 10.7812 17.5312C10.7812 17.0652 10.4035 16.6875 9.9375 16.6875C9.4715 16.6875 9.09375 17.0652 9.09375 17.5312C9.09375 17.9973 9.4715 18.375 9.9375 18.375ZM20.0625 18.375C20.5285 18.375 20.9062 17.9973 20.9062 17.5312C20.9062 17.0652 20.5285 16.6875 20.0625 16.6875C19.5965 16.6875 19.2188 17.0652 19.2188 17.5312C19.2188 17.9973 19.5965 18.375 20.0625 18.375ZM15 20.3438C16.5533 20.3438 17.8125 19.0845 17.8125 17.5312C17.8125 15.978 16.5533 14.7188 15 14.7188C13.4467 14.7188 12.1875 15.978 12.1875 17.5312C12.1875 19.0845 13.4467 20.3438 15 20.3438Z" fill="#0F215C"/>
<path fill-rule="evenodd" clip-rule="evenodd" d="M7.6875 20.3438V14.7188C7.6875 13.7868 8.44302 13.0312 9.375 13.0312H20.625C21.557 13.0312 22.3125 13.7868 22.3125 14.7188V20.3438C22.3125 21.2757 21.557 22.0312 20.625 22.0312H9.375C8.44302 22.0312 7.6875 21.2757 7.6875 20.3438ZM9.9375 18.375C10.4035 18.375 10.7812 17.9973 10.7812 17.5312C10.7812 17.0652 10.4035 16.6875 9.9375 16.6875C9.4715 16.6875 9.09375 17.0652 9.09375 17.5312C9.09375 17.9973 9.4715 18.375 9.9375 18.375ZM20.0625 18.375C20.5285 18.375 20.9062 17.9973 20.9062 17.5312C20.9062 17.0652 20.5285 16.6875 20.0625 16.6875C19.5965 16.6875 19.2188 17.0652 19.2188 17.5312C19.2188 17.9973 19.5965 18.375 20.0625 18.375ZM15 20.3438C16.5533 20.3438 17.8125 19.0845 17.8125 17.5312C17.8125 15.978 16.5533 14.7188 15 14.7188C13.4467 14.7188 12.1875 15.978 12.1875 17.5312C12.1875 19.0845 13.4467 20.3438 15 20.3438Z" fill="black"/>
<path d="M21.1875 9.56414V11.9062H8.8125V11.5545C8.8125 10.5267 9.59016 9.64601 10.66 9.46219L19.1981 7.99494C20.234 7.81693 21.1875 8.56906 21.1875 9.56414Z" fill="#040E2C"/>
<path d="M21.1875 9.56414V11.9062H8.8125V11.5545C8.8125 10.5267 9.59016 9.64601 10.66 9.46219L19.1981 7.99494C20.234 7.81693 21.1875 8.56906 21.1875 9.56414Z" fill="#0F215C"/>
<path d="M21.1875 9.56414V11.9062H8.8125V11.5545C8.8125 10.5267 9.59016 9.64601 10.66 9.46219L19.1981 7.99494C20.234 7.81693 21.1875 8.56906 21.1875 9.56414Z" fill="black"/>
<path d="M15.5381 17.3376C15.7249 17.1828 15.8439 16.949 15.8439 16.6875C15.8439 16.2215 15.4661 15.8438 15.0001 15.8438C14.5341 15.8438 14.1564 16.2215 14.1564 16.6875C14.1564 16.949 14.2754 17.1828 14.4622 17.3376C14.0193 17.4864 13.6586 17.8139 13.4656 18.2344C13.7322 18.8153 14.319 19.2188 15.0001 19.2188C15.6811 19.2188 16.268 18.8153 16.5346 18.2344C16.3416 17.8139 15.9809 17.4864 15.5381 17.3376Z" fill="#040E2C"/>
<path d="M15.5381 17.3376C15.7249 17.1828 15.8439 16.949 15.8439 16.6875C15.8439 16.2215 15.4661 15.8438 15.0001 15.8438C14.5341 15.8438 14.1564 16.2215 14.1564 16.6875C14.1564 16.949 14.2754 17.1828 14.4622 17.3376C14.0193 17.4864 13.6586 17.8139 13.4656 18.2344C13.7322 18.8153 14.319 19.2188 15.0001 19.2188C15.6811 19.2188 16.268 18.8153 16.5346 18.2344C16.3416 17.8139 15.9809 17.4864 15.5381 17.3376Z" fill="#0F215C"/>
<path d="M15.5381 17.3376C15.7249 17.1828 15.8439 16.949 15.8439 16.6875C15.8439 16.2215 15.4661 15.8438 15.0001 15.8438C14.5341 15.8438 14.1564 16.2215 14.1564 16.6875C14.1564 16.949 14.2754 17.1828 14.4622 17.3376C14.0193 17.4864 13.6586 17.8139 13.4656 18.2344C13.7322 18.8153 14.319 19.2188 15.0001 19.2188C15.6811 19.2188 16.268 18.8153 16.5346 18.2344C16.3416 17.8139 15.9809 17.4864 15.5381 17.3376Z" fill="black"/>
<path d="M20.0625 12.8959C20.7179 13.1258 21.1875 13.7462 21.1875 14.4754V18.1064C21.1875 19.0314 20.432 19.7812 19.5 19.7812H10.5C9.56802 19.7812 8.8125 19.0314 8.8125 18.1064V14.4754C8.8125 13.7462 9.28207 13.1258 9.9375 12.8959V11.5133C9.9375 10.9674 10.3351 10.5016 10.8775 10.4119L18.7526 9.10922C19.4383 8.99579 20.0625 9.52063 20.0625 10.2106V12.8959Z" fill="url(#paint0_linear_51442_34026)"/>
<defs>
<linearGradient id="paint0_linear_51442_34026" x1="16.125" y1="9.09375" x2="16.125" y2="19.5" gradientUnits="userSpaceOnUse">
<stop stop-color="white" stop-opacity="0.6"/>
<stop offset="1" stop-color="white" stop-opacity="0.1"/>
</linearGradient>
</defs>
</svg>
