<svg width="18" height="18" viewBox="0 0 18 18" fill="none" xmlns="http://www.w3.org/2000/svg">
<path fill-rule="evenodd" clip-rule="evenodd" d="M1.6875 14.3438V8.71875C1.6875 7.78677 2.44302 7.03125 3.375 7.03125H14.625C15.557 7.03125 16.3125 7.78677 16.3125 8.71875V14.3438C16.3125 15.2757 15.557 16.0312 14.625 16.0312H3.375C2.44302 16.0312 1.6875 15.2757 1.6875 14.3438ZM3.9375 12.375C4.4035 12.375 4.78125 11.9973 4.78125 11.5312C4.78125 11.0652 4.4035 10.6875 3.9375 10.6875C3.4715 10.6875 3.09375 11.0652 3.09375 11.5312C3.09375 11.9973 3.4715 12.375 3.9375 12.375ZM14.0625 12.375C14.5285 12.375 14.9062 11.9973 14.9062 11.5312C14.9062 11.0652 14.5285 10.6875 14.0625 10.6875C13.5965 10.6875 13.2188 11.0652 13.2188 11.5312C13.2188 11.9973 13.5965 12.375 14.0625 12.375ZM9 14.3438C10.5533 14.3438 11.8125 13.0845 11.8125 11.5312C11.8125 9.97796 10.5533 8.71875 9 8.71875C7.44671 8.71875 6.1875 9.97796 6.1875 11.5312C6.1875 13.0845 7.44671 14.3438 9 14.3438Z" fill="url(#paint0_linear_51893_14237)"/>
<path fill-rule="evenodd" clip-rule="evenodd" d="M1.6875 14.3438V8.71875C1.6875 7.78677 2.44302 7.03125 3.375 7.03125H14.625C15.557 7.03125 16.3125 7.78677 16.3125 8.71875V14.3438C16.3125 15.2757 15.557 16.0312 14.625 16.0312H3.375C2.44302 16.0312 1.6875 15.2757 1.6875 14.3438ZM3.9375 12.375C4.4035 12.375 4.78125 11.9973 4.78125 11.5312C4.78125 11.0652 4.4035 10.6875 3.9375 10.6875C3.4715 10.6875 3.09375 11.0652 3.09375 11.5312C3.09375 11.9973 3.4715 12.375 3.9375 12.375ZM14.0625 12.375C14.5285 12.375 14.9062 11.9973 14.9062 11.5312C14.9062 11.0652 14.5285 10.6875 14.0625 10.6875C13.5965 10.6875 13.2188 11.0652 13.2188 11.5312C13.2188 11.9973 13.5965 12.375 14.0625 12.375ZM9 14.3438C10.5533 14.3438 11.8125 13.0845 11.8125 11.5312C11.8125 9.97796 10.5533 8.71875 9 8.71875C7.44671 8.71875 6.1875 9.97796 6.1875 11.5312C6.1875 13.0845 7.44671 14.3438 9 14.3438Z" fill="#132D7C"/>
<path d="M15.1875 3.56414V5.90625H2.8125V5.55446C2.8125 4.52672 3.59016 3.64601 4.66 3.46219L13.1981 1.99494C14.234 1.81693 15.1875 2.56906 15.1875 3.56414Z" fill="url(#paint1_linear_51893_14237)"/>
<path d="M15.1875 3.56414V5.90625H2.8125V5.55446C2.8125 4.52672 3.59016 3.64601 4.66 3.46219L13.1981 1.99494C14.234 1.81693 15.1875 2.56906 15.1875 3.56414Z" fill="#132D7C"/>
<path d="M9.53811 11.3376C9.72492 11.1828 9.84392 10.949 9.84392 10.6875C9.84392 10.2215 9.46617 9.84375 9.00017 9.84375C8.53416 9.84375 8.15642 10.2215 8.15642 10.6875C8.15642 10.949 8.27541 11.1828 8.46222 11.3376C8.01939 11.4864 7.65863 11.8139 7.46564 12.2344C7.73229 12.8153 8.31909 13.2188 9.00014 13.2188C9.68118 13.2188 10.268 12.8153 10.5346 12.2344C10.3416 11.8139 9.98091 11.4864 9.53811 11.3376Z" fill="url(#paint2_linear_51893_14237)"/>
<path d="M9.53811 11.3376C9.72492 11.1828 9.84392 10.949 9.84392 10.6875C9.84392 10.2215 9.46617 9.84375 9.00017 9.84375C8.53416 9.84375 8.15642 10.2215 8.15642 10.6875C8.15642 10.949 8.27541 11.1828 8.46222 11.3376C8.01939 11.4864 7.65863 11.8139 7.46564 12.2344C7.73229 12.8153 8.31909 13.2188 9.00014 13.2188C9.68118 13.2188 10.268 12.8153 10.5346 12.2344C10.3416 11.8139 9.98091 11.4864 9.53811 11.3376Z" fill="#132D7C"/>
<g opacity="0.1">
<path d="M14.0625 6.89586C14.7179 7.12578 15.1875 7.74616 15.1875 8.47541V12.1064C15.1875 13.0314 14.432 13.7812 13.5 13.7812H4.5C3.56802 13.7812 2.8125 13.0314 2.8125 12.1064V8.47541C2.8125 7.74616 3.28207 7.12578 3.9375 6.89586V5.51326C3.9375 4.96744 4.3351 4.50163 4.87755 4.41188L12.7526 3.10922C13.4383 2.99579 14.0625 3.52063 14.0625 4.21059V6.89586Z" fill="#040E2C"/>
<path d="M14.0625 6.89586C14.7179 7.12578 15.1875 7.74616 15.1875 8.47541V12.1064C15.1875 13.0314 14.432 13.7812 13.5 13.7812H4.5C3.56802 13.7812 2.8125 13.0314 2.8125 12.1064V8.47541C2.8125 7.74616 3.28207 7.12578 3.9375 6.89586V5.51326C3.9375 4.96744 4.3351 4.50163 4.87755 4.41188L12.7526 3.10922C13.4383 2.99579 14.0625 3.52063 14.0625 4.21059V6.89586Z" fill="#0F215C"/>
<path d="M14.0625 6.89586C14.7179 7.12578 15.1875 7.74616 15.1875 8.47541V12.1064C15.1875 13.0314 14.432 13.7812 13.5 13.7812H4.5C3.56802 13.7812 2.8125 13.0314 2.8125 12.1064V8.47541C2.8125 7.74616 3.28207 7.12578 3.9375 6.89586V5.51326C3.9375 4.96744 4.3351 4.50163 4.87755 4.41188L12.7526 3.10922C13.4383 2.99579 14.0625 3.52063 14.0625 4.21059V6.89586Z" fill="black"/>
</g>
<defs>
<linearGradient id="paint0_linear_51893_14237" x1="9" y1="7.03125" x2="9" y2="16.0312" gradientUnits="userSpaceOnUse">
<stop stop-color="#0F215C"/>
<stop offset="1" stop-color="#007BD1"/>
</linearGradient>
<linearGradient id="paint1_linear_51893_14237" x1="9" y1="1.96875" x2="9" y2="5.90625" gradientUnits="userSpaceOnUse">
<stop stop-color="#0F215C"/>
<stop offset="1" stop-color="#007BD1"/>
</linearGradient>
<linearGradient id="paint2_linear_51893_14237" x1="9.00014" y1="9.84375" x2="9.00014" y2="13.2188" gradientUnits="userSpaceOnUse">
<stop stop-color="#0F215C"/>
<stop offset="1" stop-color="#007BD1"/>
</linearGradient>
</defs>
</svg>
