<svg width="18" height="18" viewBox="0 0 18 18" fill="none" xmlns="http://www.w3.org/2000/svg">
<path d="M1.6875 12.9375V6.1875H14.0625C15.3051 6.1875 16.3125 7.19485 16.3125 8.4375H13.2188C12.9234 8.4375 12.3911 8.55304 11.9197 8.87127C11.4178 9.20998 10.9688 9.79402 10.9688 10.6875C10.9688 11.581 11.4178 12.165 11.9197 12.5037C12.3911 12.822 12.9234 12.9375 13.2188 12.9375H16.3125C16.3125 14.1801 15.3051 15.1875 14.0625 15.1875H3.9375C2.69486 15.1875 1.6875 14.1801 1.6875 12.9375Z" fill="url(#paint0_linear_51893_13153)"/>
<path d="M1.6875 12.9375V6.1875H14.0625C15.3051 6.1875 16.3125 7.19485 16.3125 8.4375H13.2188C12.9234 8.4375 12.3911 8.55304 11.9197 8.87127C11.4178 9.20998 10.9688 9.79402 10.9688 10.6875C10.9688 11.581 11.4178 12.165 11.9197 12.5037C12.3911 12.822 12.9234 12.9375 13.2188 12.9375H16.3125C16.3125 14.1801 15.3051 15.1875 14.0625 15.1875H3.9375C2.69486 15.1875 1.6875 14.1801 1.6875 12.9375Z" fill="#132D7C"/>
<path fill-rule="evenodd" clip-rule="evenodd" d="M13.2188 9.5625H16.3125V11.8125H13.2188C13.1391 11.8125 12.8276 11.7593 12.5491 11.5713C12.3009 11.4037 12.0938 11.144 12.0938 10.6875C12.0938 10.231 12.3009 9.97127 12.5491 9.80373C12.8276 9.61571 13.1391 9.5625 13.2188 9.5625ZM13.2188 11.25C13.5294 11.25 13.7812 10.9982 13.7812 10.6875C13.7812 10.3768 13.5294 10.125 13.2188 10.125C12.9081 10.125 12.6562 10.3768 12.6562 10.6875C12.6562 10.9982 12.9081 11.25 13.2188 11.25Z" fill="url(#paint1_linear_51893_13153)"/>
<path fill-rule="evenodd" clip-rule="evenodd" d="M13.2188 9.5625H16.3125V11.8125H13.2188C13.1391 11.8125 12.8276 11.7593 12.5491 11.5713C12.3009 11.4037 12.0938 11.144 12.0938 10.6875C12.0938 10.231 12.3009 9.97127 12.5491 9.80373C12.8276 9.61571 13.1391 9.5625 13.2188 9.5625ZM13.2188 11.25C13.5294 11.25 13.7812 10.9982 13.7812 10.6875C13.7812 10.3768 13.5294 10.125 13.2188 10.125C12.9081 10.125 12.6562 10.3768 12.6562 10.6875C12.6562 10.9982 12.9081 11.25 13.2188 11.25Z" fill="#132D7C"/>
<path d="M3.9375 2.8125H11.8125C13.0551 2.8125 14.0625 3.81985 14.0625 5.0625H1.6875C1.6875 3.81985 2.69486 2.8125 3.9375 2.8125Z" fill="url(#paint2_linear_51893_13153)"/>
<path d="M3.9375 2.8125H11.8125C13.0551 2.8125 14.0625 3.81985 14.0625 5.0625H1.6875C1.6875 3.81985 2.69486 2.8125 3.9375 2.8125Z" fill="#132D7C"/>
<g opacity="0.1">
<path d="M2.8125 5.625V11.25C2.8125 12.182 3.56802 12.9375 4.5 12.9375H13.5C14.432 12.9375 15.1875 12.182 15.1875 11.25V7.875C15.1875 6.94302 14.432 6.1875 13.5 6.1875H12.9375V5.625C12.9375 4.69302 12.182 3.9375 11.25 3.9375H4.5C3.56802 3.9375 2.8125 4.69302 2.8125 5.625Z" fill="#040E2C"/>
<path d="M2.8125 5.625V11.25C2.8125 12.182 3.56802 12.9375 4.5 12.9375H13.5C14.432 12.9375 15.1875 12.182 15.1875 11.25V7.875C15.1875 6.94302 14.432 6.1875 13.5 6.1875H12.9375V5.625C12.9375 4.69302 12.182 3.9375 11.25 3.9375H4.5C3.56802 3.9375 2.8125 4.69302 2.8125 5.625Z" fill="#0F215C"/>
<path d="M2.8125 5.625V11.25C2.8125 12.182 3.56802 12.9375 4.5 12.9375H13.5C14.432 12.9375 15.1875 12.182 15.1875 11.25V7.875C15.1875 6.94302 14.432 6.1875 13.5 6.1875H12.9375V5.625C12.9375 4.69302 12.182 3.9375 11.25 3.9375H4.5C3.56802 3.9375 2.8125 4.69302 2.8125 5.625Z" fill="black"/>
</g>
<defs>
<linearGradient id="paint0_linear_51893_13153" x1="9" y1="6.1875" x2="9" y2="15.1875" gradientUnits="userSpaceOnUse">
<stop stop-color="#0F215C"/>
<stop offset="1" stop-color="#007BD1"/>
</linearGradient>
<linearGradient id="paint1_linear_51893_13153" x1="14.2031" y1="9.5625" x2="14.2031" y2="11.8125" gradientUnits="userSpaceOnUse">
<stop stop-color="#0F215C"/>
<stop offset="1" stop-color="#007BD1"/>
</linearGradient>
<linearGradient id="paint2_linear_51893_13153" x1="7.875" y1="2.8125" x2="7.875" y2="5.0625" gradientUnits="userSpaceOnUse">
<stop stop-color="#0F215C"/>
<stop offset="1" stop-color="#007BD1"/>
</linearGradient>
</defs>
</svg>
