<svg width="24" height="24" viewBox="0 0 24 24" fill="none" xmlns="http://www.w3.org/2000/svg"><path d="M9.560 3.104 C 8.756 3.169,8.026 3.341,7.362 3.621 C 5.185 4.540,3.650 6.537,3.320 8.880 C 3.258 9.317,3.258 10.283,3.320 10.720 C 3.545 12.319,4.319 13.762,5.520 14.827 C 7.689 16.749,10.872 17.060,13.370 15.593 C 13.529 15.500,13.752 15.355,13.864 15.271 C 13.976 15.188,14.085 15.120,14.107 15.120 C 14.129 15.120,15.361 16.352,16.844 17.858 C 18.327 19.364,19.609 20.635,19.694 20.683 C 19.998 20.854,20.383 20.737,20.633 20.397 C 20.797 20.173,20.827 19.973,20.729 19.753 C 20.657 19.590,19.507 18.402,16.007 14.873 L 15.186 14.045 15.385 13.773 C 16.827 11.790,17.086 9.191,16.060 6.980 C 15.119 4.950,13.163 3.482,10.980 3.166 C 10.656 3.119,9.823 3.083,9.560 3.104 M11.203 4.735 C 12.210 4.990,13.054 5.482,13.751 6.218 C 15.197 7.745,15.586 9.930,14.759 11.868 C 14.198 13.180,13.071 14.236,11.720 14.716 C 8.323 15.923,4.760 13.406,4.760 9.800 C 4.760 7.604,6.135 5.642,8.193 4.900 C 9.130 4.562,10.275 4.499,11.203 4.735 " stroke="none" fill-rule="evenodd" fill="black"></path></svg>