<svg width="24" height="24" viewBox="0 0 24 24" fill="none" xmlns="http://www.w3.org/2000/svg">
<path fill-rule="evenodd" clip-rule="evenodd" d="M5.9975 21.0043H3.99666C3.44423 21.0041 2.99645 20.5563 2.99625 20.0039V14.0014C2.99645 13.449 3.44423 13.0012 3.99666 13.001H5.9975C6.54993 13.0012 6.99771 13.449 6.99791 14.0014V20.0039C6.99771 20.5563 6.54993 21.0041 5.9975 21.0043V21.0043Z" stroke="#194EF0" stroke-width="1.5" stroke-linecap="round" stroke-linejoin="round"/>
<path fill-rule="evenodd" clip-rule="evenodd" d="M5.9975 21.0043H3.99666C3.44423 21.0041 2.99645 20.5563 2.99625 20.0039V14.0014C2.99645 13.449 3.44423 13.0012 3.99666 13.001H5.9975C6.54993 13.0012 6.99771 13.449 6.99791 14.0014V20.0039C6.99771 20.5563 6.54993 21.0041 5.9975 21.0043V21.0043Z" stroke="url(#paint0_linear_51450_40555)" stroke-width="1.5" stroke-linecap="round" stroke-linejoin="round"/>
<path fill-rule="evenodd" clip-rule="evenodd" d="M5.9975 21.0043H3.99666C3.44423 21.0041 2.99645 20.5563 2.99625 20.0039V14.0014C2.99645 13.449 3.44423 13.0012 3.99666 13.001H5.9975C6.54993 13.0012 6.99771 13.449 6.99791 14.0014V20.0039C6.99771 20.5563 6.54993 21.0041 5.9975 21.0043V21.0043Z" stroke="black" stroke-width="1.5" stroke-linecap="round" stroke-linejoin="round"/>
<path d="M13.0004 17.0021H14.9612C15.3942 17.0023 15.8155 16.8619 16.1617 16.6019L18.5787 14.7892C19.1822 14.3369 20.0263 14.3971 20.5596 14.9302V14.9302C20.8439 15.2143 21.0037 15.5997 21.0037 16.0017C21.0037 16.4036 20.8439 16.7891 20.5596 17.0731L18.4857 19.147C17.9269 19.7055 17.2155 20.0863 16.4408 20.2414L13.5096 20.8277C12.9285 20.9439 12.3288 20.9296 11.7539 20.7857L9.10279 20.1234C8.78585 20.0435 8.46023 20.0032 8.13338 20.0033H6.99791" stroke="#194EF0" stroke-width="1.5" stroke-linecap="round" stroke-linejoin="round"/>
<path d="M13.0004 17.0021H14.9612C15.3942 17.0023 15.8155 16.8619 16.1617 16.6019L18.5787 14.7892C19.1822 14.3369 20.0263 14.3971 20.5596 14.9302V14.9302C20.8439 15.2143 21.0037 15.5997 21.0037 16.0017C21.0037 16.4036 20.8439 16.7891 20.5596 17.0731L18.4857 19.147C17.9269 19.7055 17.2155 20.0863 16.4408 20.2414L13.5096 20.8277C12.9285 20.9439 12.3288 20.9296 11.7539 20.7857L9.10279 20.1234C8.78585 20.0435 8.46023 20.0032 8.13338 20.0033H6.99791" stroke="url(#paint1_linear_51450_40555)" stroke-width="1.5" stroke-linecap="round" stroke-linejoin="round"/>
<path d="M13.0004 17.0021H14.9612C15.3942 17.0023 15.8155 16.8619 16.1617 16.6019L18.5787 14.7892C19.1822 14.3369 20.0263 14.3971 20.5596 14.9302V14.9302C20.8439 15.2143 21.0037 15.5997 21.0037 16.0017C21.0037 16.4036 20.8439 16.7891 20.5596 17.0731L18.4857 19.147C17.9269 19.7055 17.2155 20.0863 16.4408 20.2414L13.5096 20.8277C12.9285 20.9439 12.3288 20.9296 11.7539 20.7857L9.10279 20.1234C8.78585 20.0435 8.46023 20.0032 8.13338 20.0033H6.99791" stroke="black" stroke-width="1.5" stroke-linecap="round" stroke-linejoin="round"/>
<path d="M13.0004 17.0026H14.486C14.888 17.0027 15.2736 16.8431 15.5578 16.5588C15.8421 16.2746 16.0018 15.889 16.0017 15.487V15.1839C16.0018 14.4887 15.5287 13.8827 14.8542 13.7143L12.5612 13.141C12.1885 13.048 11.8059 13.001 11.4218 13.001V13.001C10.4941 13.0007 9.58724 13.2754 8.81567 13.7903L6.99791 15.0018" stroke="#194EF0" stroke-width="1.5" stroke-linecap="round" stroke-linejoin="round"/>
<path d="M13.0004 17.0026H14.486C14.888 17.0027 15.2736 16.8431 15.5578 16.5588C15.8421 16.2746 16.0018 15.889 16.0017 15.487V15.1839C16.0018 14.4887 15.5287 13.8827 14.8542 13.7143L12.5612 13.141C12.1885 13.048 11.8059 13.001 11.4218 13.001V13.001C10.4941 13.0007 9.58724 13.2754 8.81567 13.7903L6.99791 15.0018" stroke="url(#paint2_linear_51450_40555)" stroke-width="1.5" stroke-linecap="round" stroke-linejoin="round"/>
<path d="M13.0004 17.0026H14.486C14.888 17.0027 15.2736 16.8431 15.5578 16.5588C15.8421 16.2746 16.0018 15.889 16.0017 15.487V15.1839C16.0018 14.4887 15.5287 13.8827 14.8542 13.7143L12.5612 13.141C12.1885 13.048 11.8059 13.001 11.4218 13.001V13.001C10.4941 13.0007 9.58724 13.2754 8.81567 13.7903L6.99791 15.0018" stroke="black" stroke-width="1.5" stroke-linecap="round" stroke-linejoin="round"/>
<path d="M19.2708 6.73059C20.2475 7.70731 20.2475 9.29088 19.2708 10.2676C18.2941 11.2443 16.7105 11.2443 15.7338 10.2676C14.7571 9.29088 14.7571 7.70731 15.7338 6.73059C16.2028 6.26155 16.839 5.99805 17.5023 5.99805C18.1656 5.99805 18.8018 6.26155 19.2708 6.73059" stroke="#194EF0" stroke-width="1.5" stroke-linecap="round" stroke-linejoin="round"/>
<path d="M19.2708 6.73059C20.2475 7.70731 20.2475 9.29088 19.2708 10.2676C18.2941 11.2443 16.7105 11.2443 15.7338 10.2676C14.7571 9.29088 14.7571 7.70731 15.7338 6.73059C16.2028 6.26155 16.839 5.99805 17.5023 5.99805C18.1656 5.99805 18.8018 6.26155 19.2708 6.73059" stroke="url(#paint3_linear_51450_40555)" stroke-width="1.5" stroke-linecap="round" stroke-linejoin="round"/>
<path d="M19.2708 6.73059C20.2475 7.70731 20.2475 9.29088 19.2708 10.2676C18.2941 11.2443 16.7105 11.2443 15.7338 10.2676C14.7571 9.29088 14.7571 7.70731 15.7338 6.73059C16.2028 6.26155 16.839 5.99805 17.5023 5.99805C18.1656 5.99805 18.8018 6.26155 19.2708 6.73059" stroke="black" stroke-width="1.5" stroke-linecap="round" stroke-linejoin="round"/>
<path fill-rule="evenodd" clip-rule="evenodd" d="M6.93134 6.04457C6.35282 5.46605 6.35282 4.52809 6.93134 3.94957L8.45145 2.42945C9.02997 1.85093 9.96794 1.85093 10.5465 2.42945L12.0666 3.94957C12.6451 4.52809 12.6451 5.46605 12.0666 6.04457L10.5465 7.56469C9.96794 8.14321 9.02997 8.14321 8.45145 7.56469L6.93134 6.04457Z" stroke="#194EF0" stroke-width="1.5" stroke-linecap="round" stroke-linejoin="round"/>
<path fill-rule="evenodd" clip-rule="evenodd" d="M6.93134 6.04457C6.35282 5.46605 6.35282 4.52809 6.93134 3.94957L8.45145 2.42945C9.02997 1.85093 9.96794 1.85093 10.5465 2.42945L12.0666 3.94957C12.6451 4.52809 12.6451 5.46605 12.0666 6.04457L10.5465 7.56469C9.96794 8.14321 9.02997 8.14321 8.45145 7.56469L6.93134 6.04457Z" stroke="url(#paint4_linear_51450_40555)" stroke-width="1.5" stroke-linecap="round" stroke-linejoin="round"/>
<path fill-rule="evenodd" clip-rule="evenodd" d="M6.93134 6.04457C6.35282 5.46605 6.35282 4.52809 6.93134 3.94957L8.45145 2.42945C9.02997 1.85093 9.96794 1.85093 10.5465 2.42945L12.0666 3.94957C12.6451 4.52809 12.6451 5.46605 12.0666 6.04457L10.5465 7.56469C9.96794 8.14321 9.02997 8.14321 8.45145 7.56469L6.93134 6.04457Z" stroke="black" stroke-width="1.5" stroke-linecap="round" stroke-linejoin="round"/>
<defs>
<linearGradient id="paint0_linear_51450_40555" x1="4.99708" y1="13.001" x2="4.99708" y2="21.0043" gradientUnits="userSpaceOnUse">
<stop stop-color="#0F215C"/>
<stop offset="1" stop-color="#007BD1"/>
</linearGradient>
<linearGradient id="paint1_linear_51450_40555" x1="14.0008" y1="14.4863" x2="14.0008" y2="20.9054" gradientUnits="userSpaceOnUse">
<stop stop-color="#0F215C"/>
<stop offset="1" stop-color="#007BD1"/>
</linearGradient>
<linearGradient id="paint2_linear_51450_40555" x1="11.4998" y1="13.001" x2="11.4998" y2="17.0026" gradientUnits="userSpaceOnUse">
<stop stop-color="#0F215C"/>
<stop offset="1" stop-color="#007BD1"/>
</linearGradient>
<linearGradient id="paint3_linear_51450_40555" x1="17.5023" y1="5.99805" x2="17.5023" y2="11.0001" gradientUnits="userSpaceOnUse">
<stop stop-color="#0F215C"/>
<stop offset="1" stop-color="#007BD1"/>
</linearGradient>
<linearGradient id="paint4_linear_51450_40555" x1="7.69139" y1="3.18951" x2="11.3065" y2="6.80463" gradientUnits="userSpaceOnUse">
<stop stop-color="#0F215C"/>
<stop offset="1" stop-color="#007BD1"/>
</linearGradient>
</defs>
</svg>
