<svg width="24" height="24" viewBox="0 0 24 24" fill="none" xmlns="http://www.w3.org/2000/svg">
<path fill-rule="evenodd" clip-rule="evenodd" d="M15.5429 21.0022H8.45708C7.28089 21.0022 6.30299 20.0966 6.21278 18.9239L5.24718 6.37109H18.7528L17.7872 18.9239C17.697 20.0966 16.7191 21.0022 15.5429 21.0022V21.0022Z" stroke="#040E2C" stroke-width="1.5" stroke-linecap="round" stroke-linejoin="round"/>
<path fill-rule="evenodd" clip-rule="evenodd" d="M15.5429 21.0022H8.45708C7.28089 21.0022 6.30299 20.0966 6.21278 18.9239L5.24718 6.37109H18.7528L17.7872 18.9239C17.697 20.0966 16.7191 21.0022 15.5429 21.0022V21.0022Z" stroke="#0F215C" stroke-width="1.5" stroke-linecap="round" stroke-linejoin="round"/>
<path fill-rule="evenodd" clip-rule="evenodd" d="M15.5429 21.0022H8.45708C7.28089 21.0022 6.30299 20.0966 6.21278 18.9239L5.24718 6.37109H18.7528L17.7872 18.9239C17.697 20.0966 16.7191 21.0022 15.5429 21.0022V21.0022Z" stroke="black" stroke-width="1.5" stroke-linecap="round" stroke-linejoin="round"/>
<path d="M20.0033 6.3713H3.99666" stroke="#040E2C" stroke-width="1.5" stroke-linecap="round" stroke-linejoin="round"/>
<path d="M20.0033 6.3713H3.99666" stroke="#0F215C" stroke-width="1.5" stroke-linecap="round" stroke-linejoin="round"/>
<path d="M20.0033 6.3713H3.99666" stroke="black" stroke-width="1.5" stroke-linecap="round" stroke-linejoin="round"/>
<path fill-rule="evenodd" clip-rule="evenodd" d="M9.18632 2.99609H14.8137C15.4352 2.99609 15.9391 3.49998 15.9391 4.12156V6.3725H8.06085V4.12156C8.06085 3.49998 8.56474 2.99609 9.18632 2.99609Z" stroke="#040E2C" stroke-width="1.5" stroke-linecap="round" stroke-linejoin="round"/>
<path fill-rule="evenodd" clip-rule="evenodd" d="M9.18632 2.99609H14.8137C15.4352 2.99609 15.9391 3.49998 15.9391 4.12156V6.3725H8.06085V4.12156C8.06085 3.49998 8.56474 2.99609 9.18632 2.99609Z" stroke="#0F215C" stroke-width="1.5" stroke-linecap="round" stroke-linejoin="round"/>
<path fill-rule="evenodd" clip-rule="evenodd" d="M9.18632 2.99609H14.8137C15.4352 2.99609 15.9391 3.49998 15.9391 4.12156V6.3725H8.06085V4.12156C8.06085 3.49998 8.56474 2.99609 9.18632 2.99609Z" stroke="black" stroke-width="1.5" stroke-linecap="round" stroke-linejoin="round"/>
<path d="M13.9696 10.873V16.5004" stroke="#040E2C" stroke-width="1.5" stroke-linecap="round" stroke-linejoin="round"/>
<path d="M13.9696 10.873V16.5004" stroke="#0F215C" stroke-width="1.5" stroke-linecap="round" stroke-linejoin="round"/>
<path d="M13.9696 10.873V16.5004" stroke="black" stroke-width="1.5" stroke-linecap="round" stroke-linejoin="round"/>
<path d="M10.0304 10.873V16.5004" stroke="#040E2C" stroke-width="1.5" stroke-linecap="round" stroke-linejoin="round"/>
<path d="M10.0304 10.873V16.5004" stroke="#0F215C" stroke-width="1.5" stroke-linecap="round" stroke-linejoin="round"/>
<path d="M10.0304 10.873V16.5004" stroke="black" stroke-width="1.5" stroke-linecap="round" stroke-linejoin="round"/>
</svg>
