<svg width="30" height="30" viewBox="0 0 30 30" fill="none" xmlns="http://www.w3.org/2000/svg">
<path d="M9.375 10.2188H17.25V21.4688H9.375C8.13236 21.4688 7.125 20.4614 7.125 19.2188V12.4688C7.125 11.2261 8.13236 10.2188 9.375 10.2188Z" fill="#040E2C"/>
<path d="M9.375 10.2188H17.25V21.4688H9.375C8.13236 21.4688 7.125 20.4614 7.125 19.2188V12.4688C7.125 11.2261 8.13236 10.2188 9.375 10.2188Z" fill="#0F215C"/>
<path d="M9.375 10.2188H17.25V21.4688H9.375C8.13236 21.4688 7.125 20.4614 7.125 19.2188V12.4688C7.125 11.2261 8.13236 10.2188 9.375 10.2188Z" fill="black"/>
<path fill-rule="evenodd" clip-rule="evenodd" d="M13.196 7.85225C13.4157 7.63258 13.7718 7.63258 13.9915 7.85225L16.125 9.98576L18.2585 7.85225C18.4782 7.63258 18.8343 7.63258 19.054 7.85225C19.2737 8.07192 19.2737 8.42808 19.054 8.64775L16.5228 11.179C16.3031 11.3987 15.9469 11.3987 15.7273 11.179L13.196 8.64775C12.9763 8.42808 12.9763 8.07192 13.196 7.85225Z" fill="#040E2C"/>
<path fill-rule="evenodd" clip-rule="evenodd" d="M13.196 7.85225C13.4157 7.63258 13.7718 7.63258 13.9915 7.85225L16.125 9.98576L18.2585 7.85225C18.4782 7.63258 18.8343 7.63258 19.054 7.85225C19.2737 8.07192 19.2737 8.42808 19.054 8.64775L16.5228 11.179C16.3031 11.3987 15.9469 11.3987 15.7273 11.179L13.196 8.64775C12.9763 8.42808 12.9763 8.07192 13.196 7.85225Z" fill="#0F215C"/>
<path fill-rule="evenodd" clip-rule="evenodd" d="M13.196 7.85225C13.4157 7.63258 13.7718 7.63258 13.9915 7.85225L16.125 9.98576L18.2585 7.85225C18.4782 7.63258 18.8343 7.63258 19.054 7.85225C19.2737 8.07192 19.2737 8.42808 19.054 8.64775L16.5228 11.179C16.3031 11.3987 15.9469 11.3987 15.7273 11.179L13.196 8.64775C12.9763 8.42808 12.9763 8.07192 13.196 7.85225Z" fill="black"/>
<path fill-rule="evenodd" clip-rule="evenodd" d="M18.375 21.4688H20.625C21.8676 21.4688 22.875 20.4614 22.875 19.2188V12.4688C22.875 11.2261 21.8676 10.2188 20.625 10.2188H18.375V21.4688ZM20.9062 20.3438C21.3723 20.3438 21.75 19.966 21.75 19.5C21.75 19.034 21.3723 18.6562 20.9062 18.6562C20.4403 18.6562 20.0625 19.034 20.0625 19.5C20.0625 19.966 20.4403 20.3438 20.9062 20.3438Z" fill="#040E2C"/>
<path fill-rule="evenodd" clip-rule="evenodd" d="M18.375 21.4688H20.625C21.8676 21.4688 22.875 20.4614 22.875 19.2188V12.4688C22.875 11.2261 21.8676 10.2188 20.625 10.2188H18.375V21.4688ZM20.9062 20.3438C21.3723 20.3438 21.75 19.966 21.75 19.5C21.75 19.034 21.3723 18.6562 20.9062 18.6562C20.4403 18.6562 20.0625 19.034 20.0625 19.5C20.0625 19.966 20.4403 20.3438 20.9062 20.3438Z" fill="#0F215C"/>
<path fill-rule="evenodd" clip-rule="evenodd" d="M18.375 21.4688H20.625C21.8676 21.4688 22.875 20.4614 22.875 19.2188V12.4688C22.875 11.2261 21.8676 10.2188 20.625 10.2188H18.375V21.4688ZM20.9062 20.3438C21.3723 20.3438 21.75 19.966 21.75 19.5C21.75 19.034 21.3723 18.6562 20.9062 18.6562C20.4403 18.6562 20.0625 19.034 20.0625 19.5C20.0625 19.966 20.4403 20.3438 20.9062 20.3438Z" fill="black"/>
<path d="M21.75 13.3688V16.4062H9.375V13.3688C9.375 12.2504 10.2274 11.3438 11.2788 11.3438H19.8462C20.8976 11.3438 21.75 12.2504 21.75 13.3688Z" fill="url(#paint0_linear_51442_33978)"/>
<path d="M9.375 18.3187V16.4062H21.75V18.3187C21.75 19.4371 20.8976 20.3438 19.8462 20.3438H11.2788C10.2274 20.3438 9.375 19.4371 9.375 18.3187Z" fill="url(#paint1_linear_51442_33978)"/>
<defs>
<linearGradient id="paint0_linear_51442_33978" x1="15.5625" y1="11.3438" x2="15.5625" y2="20.3438" gradientUnits="userSpaceOnUse">
<stop stop-color="white" stop-opacity="0.6"/>
<stop offset="1" stop-color="white" stop-opacity="0.1"/>
</linearGradient>
<linearGradient id="paint1_linear_51442_33978" x1="15.5625" y1="11.3438" x2="15.5625" y2="20.3438" gradientUnits="userSpaceOnUse">
<stop stop-color="white" stop-opacity="0.6"/>
<stop offset="1" stop-color="white" stop-opacity="0.1"/>
</linearGradient>
</defs>
</svg>
