<svg width="30" height="30" viewBox="0 0 30 30" fill="none" xmlns="http://www.w3.org/2000/svg">
<path fill-rule="evenodd" clip-rule="evenodd" d="M20.0627 9.9375C20.5287 9.9375 20.9065 10.3152 20.9065 10.7812C20.9065 12.0195 20.8409 13.138 20.4674 14.2333C20.0888 15.3436 19.418 16.3637 18.3129 17.4688C17.2077 18.574 15.8395 19.1299 14.4377 19.3336V20.625H14.719C15.185 20.625 15.5627 21.0027 15.5627 21.4688C15.5627 21.9347 15.185 22.3125 14.719 22.3125H12.469C12.003 22.3125 11.6252 21.9347 11.6252 21.4688C11.6252 21.0027 12.003 20.625 12.469 20.625H12.7502V19.4215C11.6573 19.3845 10.6005 19.1791 9.69069 18.9005C9.24513 18.7641 8.99451 18.2923 9.13095 17.8467C9.26735 17.4012 9.73915 17.1506 10.1847 17.287C12.5239 18.0032 15.3793 18.016 17.1196 16.2756C18.0927 15.3026 18.5951 14.4952 18.8702 13.6886C19.1504 12.867 19.219 11.9791 19.219 10.7812C19.219 10.3152 19.5967 9.9375 20.0627 9.9375Z" fill="#040E2C"/>
<path fill-rule="evenodd" clip-rule="evenodd" d="M20.0627 9.9375C20.5287 9.9375 20.9065 10.3152 20.9065 10.7812C20.9065 12.0195 20.8409 13.138 20.4674 14.2333C20.0888 15.3436 19.418 16.3637 18.3129 17.4688C17.2077 18.574 15.8395 19.1299 14.4377 19.3336V20.625H14.719C15.185 20.625 15.5627 21.0027 15.5627 21.4688C15.5627 21.9347 15.185 22.3125 14.719 22.3125H12.469C12.003 22.3125 11.6252 21.9347 11.6252 21.4688C11.6252 21.0027 12.003 20.625 12.469 20.625H12.7502V19.4215C11.6573 19.3845 10.6005 19.1791 9.69069 18.9005C9.24513 18.7641 8.99451 18.2923 9.13095 17.8467C9.26735 17.4012 9.73915 17.1506 10.1847 17.287C12.5239 18.0032 15.3793 18.016 17.1196 16.2756C18.0927 15.3026 18.5951 14.4952 18.8702 13.6886C19.1504 12.867 19.219 11.9791 19.219 10.7812C19.219 10.3152 19.5967 9.9375 20.0627 9.9375Z" fill="#0F215C"/>
<path fill-rule="evenodd" clip-rule="evenodd" d="M20.0627 9.9375C20.5287 9.9375 20.9065 10.3152 20.9065 10.7812C20.9065 12.0195 20.8409 13.138 20.4674 14.2333C20.0888 15.3436 19.418 16.3637 18.3129 17.4688C17.2077 18.574 15.8395 19.1299 14.4377 19.3336V20.625H14.719C15.185 20.625 15.5627 21.0027 15.5627 21.4688C15.5627 21.9347 15.185 22.3125 14.719 22.3125H12.469C12.003 22.3125 11.6252 21.9347 11.6252 21.4688C11.6252 21.0027 12.003 20.625 12.469 20.625H12.7502V19.4215C11.6573 19.3845 10.6005 19.1791 9.69069 18.9005C9.24513 18.7641 8.99451 18.2923 9.13095 17.8467C9.26735 17.4012 9.73915 17.1506 10.1847 17.287C12.5239 18.0032 15.3793 18.016 17.1196 16.2756C18.0927 15.3026 18.5951 14.4952 18.8702 13.6886C19.1504 12.867 19.219 11.9791 19.219 10.7812C19.219 10.3152 19.5967 9.9375 20.0627 9.9375Z" fill="white"/>
<path fill-rule="evenodd" clip-rule="evenodd" d="M13.5938 16.6875C16.079 16.6875 18.0938 14.6728 18.0938 12.1875C18.0938 9.70221 16.079 7.6875 13.5938 7.6875C11.1085 7.6875 9.09375 9.70221 9.09375 12.1875C9.09375 14.6728 11.1085 16.6875 13.5938 16.6875ZM11.9062 11.3438C12.3723 11.3438 12.75 10.966 12.75 10.5C12.75 10.034 12.3723 9.65625 11.9062 9.65625C11.4402 9.65625 11.0625 10.034 11.0625 10.5C11.0625 10.966 11.4402 11.3438 11.9062 11.3438Z" fill="#040E2C"/>
<path fill-rule="evenodd" clip-rule="evenodd" d="M13.5938 16.6875C16.079 16.6875 18.0938 14.6728 18.0938 12.1875C18.0938 9.70221 16.079 7.6875 13.5938 7.6875C11.1085 7.6875 9.09375 9.70221 9.09375 12.1875C9.09375 14.6728 11.1085 16.6875 13.5938 16.6875ZM11.9062 11.3438C12.3723 11.3438 12.75 10.966 12.75 10.5C12.75 10.034 12.3723 9.65625 11.9062 9.65625C11.4402 9.65625 11.0625 10.034 11.0625 10.5C11.0625 10.966 11.4402 11.3438 11.9062 11.3438Z" fill="#0F215C"/>
<path fill-rule="evenodd" clip-rule="evenodd" d="M13.5938 16.6875C16.079 16.6875 18.0938 14.6728 18.0938 12.1875C18.0938 9.70221 16.079 7.6875 13.5938 7.6875C11.1085 7.6875 9.09375 9.70221 9.09375 12.1875C9.09375 14.6728 11.1085 16.6875 13.5938 16.6875ZM11.9062 11.3438C12.3723 11.3438 12.75 10.966 12.75 10.5C12.75 10.034 12.3723 9.65625 11.9062 9.65625C11.4402 9.65625 11.0625 10.034 11.0625 10.5C11.0625 10.966 11.4402 11.3438 11.9062 11.3438Z" fill="white"/>
<path d="M16.9688 12.1875C16.9688 14.0515 15.4577 15.5625 13.5938 15.5625C11.7298 15.5625 10.2188 14.0515 10.2188 12.1875C10.2188 10.3235 11.7298 8.8125 13.5938 8.8125C15.4577 8.8125 16.9688 10.3235 16.9688 12.1875Z" fill="url(#paint0_linear_51442_33994)"/>
<defs>
<linearGradient id="paint0_linear_51442_33994" x1="13.5938" y1="8.8125" x2="13.5938" y2="15.5625" gradientUnits="userSpaceOnUse">
<stop stop-color="white" stop-opacity="0.6"/>
<stop offset="1" stop-color="white" stop-opacity="0.1"/>
</linearGradient>
</defs>
</svg>
